<?xml version="1.0" encoding="utf-8"?>
<!-- Generator: Adobe Illustrator 28.0.0, SVG Export Plug-In . SVG Version: 6.00 Build 0)  -->
<svg version="1.1" id="Livello_1" xmlns="http://www.w3.org/2000/svg" xmlns:xlink="http://www.w3.org/1999/xlink" x="0px" y="0px"
	 viewBox="0 0 213.76 100" style="enable-background:new 0 0 213.76 100;" xml:space="preserve">
<style type="text/css">
    .st0{fill: #54575C};
</style>
<g>
	<path class="st0" d="M89.94,73c0.79,3.26,2.86,5.3,6.01,6.24c2.89,0.86,5.84,0.82,8.76,0.12c3.58-0.86,5.82-3.06,6.6-6.72
		c0.5-2.36,0.69-4.74,0.7-7.14c0.02-5.13,0-10.27,0-15.41v-2.05c0-5.74,0-11.47,0-17.21c0-1.14-0.01-1.15-1.11-1.16
		c-1.28-0.01-2.57-0.01-3.86,0c-1.87,0.01-1.67-0.19-1.67,1.62c0,11.51,0,23.03,0,34.55c0,1.41-0.07,2.82-0.3,4.22
		c-0.39,2.36-1.35,3.26-3.71,3.5c-0.34,0.03-0.68,0.04-1.03,0.02c-2.62-0.07-3.79-1.11-4.24-3.7c-0.37-2.17-0.36-4.35-0.36-6.53
		c-0.01-10.66,0-21.32,0-31.98c0-0.39,0-0.77-0.01-1.16c-0.01-0.36-0.19-0.54-0.56-0.54c-1.8,0.01-3.6,0.01-5.39,0
		c-0.44,0-0.62,0.21-0.6,0.63c0,0.21,0,0.43,0,0.64c0,11.69,0,23.37,0,35.06C89.16,68.36,89.38,70.7,89.94,73"/>
	<path class="st0" d="M190.62,79.26c4.5,0.01,8.99,0,13.49,0c1.76,0,3.51,0.01,5.26,0c1.5-0.01,1.43,0.17,1.43-1.48
		c0-0.95,0-1.89,0-2.83c-0.01-1.5,0.11-1.42-1.37-1.42c-3.13,0-6.25,0-9.38-0.01c-0.41,0-0.85,0.09-1.44-0.19
		c0.32-0.64,0.61-1.21,0.91-1.76c1.44-2.72,2.9-5.43,4.32-8.17c2.48-4.79,4.74-9.68,6.24-14.88c1.04-3.61,1.53-7.28,0.9-11.04
		c-0.8-4.73-3.55-7.53-8.21-8.26c-1.32-0.21-2.65-0.16-3.97-0.09c-4.45,0.26-7.25,2.54-8.36,6.83c-0.78,2.97-0.86,6-0.79,9.05
		c0.01,0.63,0.29,0.8,0.86,0.79c1.5-0.02,3,0,4.5-0.01c1.21,0,1.24-0.01,1.19-1.2c-0.07-1.63-0.1-3.25,0.12-4.87
		c0.16-1.15,0.41-2.28,1.04-3.28c0.69-1.11,1.69-1.65,3-1.64c2.04,0.02,3.43,1.27,3.92,3.54c0.43,2.01,0.28,4-0.1,5.99
		c-0.77,4.03-2.43,7.74-4.1,11.45c-3.31,7.33-6.93,14.51-10.33,21.8c-0.22,0.49-0.57,0.95-0.55,1.54
		C189.69,79.35,190.16,79.26,190.62,79.26"/>
	<path class="st0" d="M140.75,37.25c-0.48,1.8-0.51,3.63-0.47,5.47c0.05,3.2,1.04,6.03,3.15,8.48c1.48,1.72,3.02,3.38,4.63,4.99
		c1.36,1.36,2.65,2.79,3.85,4.3c1.85,2.33,2.38,4.98,2.02,7.85c-0.39,3.07-2.45,5.04-5.44,5.16c-1.48,0.06-2.87-0.4-4.18-1.08
		c-0.79-0.42-1.55-0.88-2.57-1.47c0,2.06,0.03,3.89-0.01,5.72c-0.01,0.7,0.27,1.1,0.84,1.43c2.74,1.65,5.71,2.08,8.78,1.52
		c4.41-0.78,7.15-3.63,8.46-7.72c1.64-5.11,1.13-10.06-2.01-14.57c-1.3-1.87-2.8-3.57-4.41-5.17c-1.74-1.72-3.44-3.46-4.93-5.4
		c-1.36-1.76-1.83-3.76-1.64-5.92c0.34-3.64,3.06-6.06,6.42-5.75c1.39,0.13,2.64,0.69,3.84,1.37c0.35,0.2,0.64,0.57,1.22,0.5
		c0-1.8-0.04-3.59,0.01-5.37c0.03-0.75-0.3-1.07-0.91-1.34c-1.91-0.87-3.91-1.26-5.99-1.27C146.01,28.98,142.14,32.01,140.75,37.25"
		/>
	<path class="st0" d="M177.68,52.17c-1.62-1.59-3.16-3.25-4.61-5c-1.62-1.94-2.15-4.15-1.9-6.6c0.29-2.82,2.34-5.06,5-5.44
		c1.5-0.22,2.89,0.16,4.22,0.82c0.68,0.33,1.34,0.72,2.02,1.1c0.22-0.31,0.18-0.62,0.18-0.91c0-1.5-0.04-3,0.02-4.49
		c0.03-0.79-0.32-1.14-0.98-1.43c-1.79-0.78-3.67-1.18-5.61-1.21c-4.05-0.06-7.35,1.37-9.56,4.93c-1.2,1.94-1.71,4.09-1.86,6.34
		c-0.28,4.21,0.48,8.08,3.46,11.32c1.39,1.51,2.77,3.04,4.22,4.5c1.45,1.46,2.84,2.97,4.09,4.6c1.66,2.17,2.2,4.62,1.93,7.26
		c-0.43,4.28-3.77,6.45-7.89,5.19c-1.2-0.36-2.28-0.95-3.35-1.6c-0.27-0.17-0.49-0.49-1.01-0.35c0,1.77,0.04,3.56-0.01,5.34
		c-0.02,0.8,0.29,1.24,0.93,1.64c6.17,3.78,14.06,1.37,16.78-5.31c2.06-5.05,1.71-10.07-1.17-14.78
		C181.25,55.88,179.51,53.98,177.68,52.17"/>
	<path class="st0" d="M136.08,73.59c-2.78-0.01-5.57,0-8.35-0.01c-1.73,0-1.59,0.21-1.59-1.57c0-13.53,0-27.06,0-40.59
		c0-0.34-0.01-0.69,0-1.03c0.02-0.46-0.13-0.73-0.65-0.72c-1.84,0.01-3.68,0.01-5.52,0c-0.46,0-0.59,0.25-0.59,0.65
		c0,0.34-0.01,0.69-0.01,1.03v23.12v23.38c0,1.63,0.03,1.41,1.37,1.41c3.43,0.01,6.85,0.01,10.28,0.01c1.67,0,3.34,0.01,5.01-0.01
		c0.96-0.01,0.98-0.02,0.98-1.01c0.02-1.24,0.02-2.48,0-3.72C137,73.62,136.99,73.59,136.08,73.59"/>
	<path class="st0" d="M165.87,11.81c0.47-0.01,0.95,0.05,0.94-0.69c-0.03-1.79-0.01-3.59-0.01-5.39V4.72
		c0.54,0.19,0.58,0.57,0.72,0.86c0.88,1.75,1.8,3.5,2.61,5.29c0.37,0.81,0.9,0.99,1.71,0.96c0.67-0.02,0.87-0.27,0.86-0.93
		c-0.02-3.25-0.03-6.5,0.01-9.75c0.01-0.74-0.33-0.84-0.94-0.83c-0.94,0.02-0.99,0.01-1,0.88c-0.02,1.62,0,3.25-0.01,4.88
		c0,0.4,0.09,0.82-0.16,1.27c-0.4-0.34-0.51-0.76-0.7-1.12c-0.81-1.6-1.59-3.21-2.4-4.82c-0.57-1.15-0.6-1.15-1.86-1.08
		c-0.45,0.02-0.7,0.12-0.7,0.65c0.02,3.38,0.02,6.76,0,10.14C164.93,11.85,165.38,11.82,165.87,11.81"/>
	<path class="st0" d="M63.7,10.73c0,0.21,0,0.43,0.02,0.64c0.01,0.19,0.09,0.36,0.27,0.39c0.46,0.06,0.96,0.17,1.38-0.06
		c0.36-0.19,0.2-0.62,0.21-0.94c0.02-0.98,0.01-1.97,0.01-2.95V4.52c0.63,0.62,0.8,1.19,1.05,1.7c0.83,1.64,1.64,3.3,2.47,4.93
		c0.33,0.65,0.93,0.81,1.87,0.65c0.75-0.13,0.48-0.71,0.48-1.12c0.02-3.13,0.02-6.25,0.01-9.38c-0.01-0.96-0.03-0.96-0.9-0.97
		c-0.95-0.01-0.98,0.01-0.99,1c-0.01,1.8,0,3.6-0.01,5.4c0,0.2,0.17,0.53-0.32,0.6c-0.55-1.08-1.1-2.18-1.65-3.29
		c-0.54-1.07-1.06-2.15-1.62-3.21c-0.24-0.47-1.29-0.7-1.94-0.47c-0.54,0.19-0.32,0.65-0.32,0.99C63.69,4.48,63.7,7.6,63.7,10.73"/>
	<path class="st0" d="M35.07,10.97c0.05-0.05,0.16-0.04,0.29-0.06c0.05,0.2,0.08,0.41,0.16,0.59c0.18,0.43,0.57,0.29,0.89,0.29
		c0.33,0,0.42-0.25,0.42-0.53c0-1.71,0-3.42,0-5.13c0-0.35-0.16-0.56-0.54-0.56c-0.94,0-1.88,0-2.82,0c-0.23,0-0.4,0.09-0.49,0.33
		c-0.32,0.93,0.07,1.54,1.03,1.59c0.29,0.02,0.6-0.06,0.86,0.16c-0.1,1.27-0.52,1.94-1.39,2.18C32.56,10.1,31.68,9.79,31.1,9
		c-1.03-1.4-0.99-4.65,0.08-5.99c0.95-1.2,2.63-1.12,3.25,0.26c0.35,0.78,0.81,0.87,1.49,0.82c0.77-0.04,0.83-0.1,0.66-0.82
		c-0.36-1.58-1.24-2.76-2.87-3.12c-1.69-0.37-3.13,0.17-4.17,1.59c-0.65,0.88-0.98,1.9-1.13,2.96c-0.26,1.87-0.1,3.69,0.91,5.33
		C30.68,12.27,33.14,12.65,35.07,10.97"/>
	<path class="st0" d="M16.53,9.59c0,2.22,0,2.22,2.25,2.22c1.33,0,2.65-0.02,3.98,0.01c0.61,0.01,0.87-0.24,0.81-0.84
		c-0.01-0.17-0.01-0.34,0-0.51c0.05-0.6-0.2-0.85-0.82-0.82c-0.77,0.03-1.54,0.02-2.31,0c-2.03-0.05-1.83,0.44-1.86-1.95
		c-0.01-0.7,0.3-0.88,0.93-0.85c0.9,0.03,1.8,0.02,2.69,0c0.84-0.02,0.84-0.04,0.85-0.9c0.01-0.95-0.04-1.04-0.83-1.06
		c-0.94-0.03-1.88-0.03-2.82-0.01c-0.6,0.01-0.87-0.24-0.82-0.85c0.02-0.3,0.01-0.6,0-0.9c-0.01-0.48,0.21-0.69,0.7-0.68
		c0.98,0.02,1.97,0.01,2.96,0c1.21-0.01,1.21-0.01,1.19-1.19c-0.02-0.9-0.02-0.91-0.93-0.92c-1.62-0.02-3.25-0.01-4.88,0
		c-1.07,0.01-1.08,0.02-1.09,1.05c-0.01,1.54,0,3.08,0,4.62V9.59z"/>
	<path class="st0" d="M152.78,5.95c0,1.67,0,3.34,0,5c0,0.38-0.05,0.84,0.52,0.84c1.97,0.01,3.94,0.01,5.9,0.01
		c0.36,0,0.55-0.18,0.56-0.56c0-0.25-0.01-0.51,0.01-0.77c0.05-0.59-0.19-0.86-0.81-0.83c-0.76,0.04-1.54,0.01-2.31,0.01
		c-2.03,0-2.04-0.03-1.87-2.08c0.04-0.55,0.27-0.74,0.8-0.73c0.98,0.02,1.97-0.04,2.95,0.01c0.8,0.04,0.77-0.44,0.77-0.98
		c0-0.55,0.01-1.03-0.77-1c-0.9,0.04-1.8,0.01-2.69,0c-1.01-0.02-1.01-0.04-1.04-1c-0.01-0.13-0.01-0.26,0-0.39
		c0.02-1,0.02-1.01,0.99-1.03c0.9-0.01,1.79,0,2.69,0c1.2-0.01,1.17-0.02,1.17-1.23c0-0.62-0.14-0.92-0.85-0.91
		c-1.71,0.04-3.42,0.04-5.13,0c-0.67-0.02-0.91,0.22-0.9,0.88C152.8,2.78,152.78,4.37,152.78,5.95"/>
	<path class="st0" d="M83.22,9.64c-0.77,0.04-1.54,0.03-2.31,0c-2.01-0.05-1.81,0.46-1.84-1.96c-0.01-0.71,0.32-0.86,0.94-0.84
		c0.94,0.03,1.88-0.02,2.83,0.01c0.72,0.02,0.71-0.43,0.69-0.93c-0.02-0.5,0.12-1.07-0.7-1.05c-0.9,0.02-1.8,0.01-2.7,0
		c-1.03-0.02-1.03-0.03-1.04-1.11c-0.01-0.12-0.01-0.26,0-0.38c0.03-0.9,0.03-0.91,0.96-0.92c0.98-0.01,1.97,0.01,2.96-0.01
		c0.89-0.01,0.92-0.06,0.92-1.09c-0.01-0.97-0.01-1.01-0.86-1.02c-1.71-0.02-3.42,0.02-5.13-0.02c-0.67-0.01-0.9,0.21-0.88,0.88
		c0.04,1.63,0.01,3.25,0.01,4.87c0,1.62,0,3.25,0,4.88c0,0.37-0.07,0.83,0.51,0.84c1.97,0.02,3.94,0.01,5.9,0.01
		c0.35,0,0.55-0.18,0.55-0.55c-0.01-0.26-0.02-0.51,0-0.77C84.07,9.88,83.86,9.61,83.22,9.64"/>
	<path class="st0" d="M184.48,9.64c-0.77,0.04-1.54,0.03-2.31,0c-2.02-0.05-1.82,0.46-1.85-1.96c-0.01-0.71,0.32-0.87,0.94-0.84
		c0.77,0.03,1.54,0.01,2.31,0c1.18-0.01,1.18-0.01,1.18-0.94c0.01-1.01,0.01-1.01-1.25-1.02c-0.64-0.01-1.28,0-1.92,0
		c-1.26-0.01-1.26-0.01-1.25-1.28c0-0.12,0.01-0.26,0-0.38c-0.04-0.55,0.21-0.77,0.76-0.76c0.94,0.03,1.88,0.01,2.83,0.01
		c1.22-0.01,1.22-0.01,1.2-1.2c-0.02-0.89-0.02-0.91-0.95-0.92c-1.67-0.01-3.34,0.02-5.01-0.01c-0.67-0.01-0.9,0.22-0.89,0.88
		c0.04,1.58,0.01,3.16,0.01,4.75c0,1.67,0.01,3.34-0.01,5c-0.01,0.58,0.16,0.87,0.79,0.86c1.84-0.02,3.68-0.01,5.52-0.01
		c0.48,0,0.72-0.18,0.69-0.69c-0.01-0.21-0.02-0.43,0-0.64C185.32,9.9,185.11,9.61,184.48,9.64"/>
	<path class="st0" d="M109.92,5.96v5.01c0,0.39-0.03,0.82,0.54,0.82c1.97,0.01,3.94,0,5.91,0c0.36,0,0.55-0.18,0.54-0.56
		c-0.01-0.26-0.02-0.52,0-0.77c0.05-0.6-0.17-0.86-0.8-0.83c-0.77,0.03-1.54,0.02-2.31,0c-2.01-0.06-1.81,0.46-1.83-1.98
		c-0.01-0.59,0.19-0.86,0.82-0.83c0.86,0.04,1.71,0.02,2.57,0.01c1.06-0.01,1.03-0.04,1.06-1.08c0.02-0.69-0.23-0.92-0.88-0.9
		c-0.73,0.03-1.46,0.01-2.18,0.01c-1.41-0.01-1.41-0.01-1.37-1.42c0-0.04,0-0.09,0-0.13c-0.07-0.67,0.24-0.9,0.9-0.87
		c0.9,0.04,1.8,0.01,2.7,0.01c1.21-0.01,1.19-0.02,1.19-1.22c0-0.6-0.12-0.94-0.84-0.92c-1.71,0.05-3.43,0.04-5.13,0
		c-0.68-0.01-0.89,0.25-0.88,0.89C109.94,2.79,109.92,4.38,109.92,5.96"/>
	<path class="st0" d="M142.68,11.16c0.05,0.2,0.15,0.48,0.3,0.54c0.61,0.22,1.27,0.16,1.9,0.06c0.47-0.08,0.44-0.58,0.54-0.93
		c0.86-3.18,1.7-6.35,2.54-9.53c0.07-0.27,0.21-0.56,0.06-0.85c-0.2-0.16-0.42-0.11-0.62-0.11c-1.31-0.03-1.32-0.03-1.63,1.21
		c-0.45,1.78-0.9,3.56-1.36,5.33c-0.08,0.33-0.22,0.64-0.43,1.24c-0.57-2.24-1.08-4.18-1.57-6.12c-0.44-1.74-0.44-1.75-2.39-1.57
		c0,0.15-0.01,0.24,0,0.32C140.9,4.21,141.78,7.69,142.68,11.16"/>
	<path class="st0" d="M97.81,84.91c-0.48-0.05-0.95-0.07-1.11,0.56c-0.1,0.37-0.22,0.73-0.34,1.1c-0.86,2.73-1.72,5.46-2.63,8.31
		c-0.44-0.46-0.47-0.91-0.59-1.3c-0.82-2.65-1.64-5.31-2.41-7.98c-0.19-0.66-0.58-0.77-1.15-0.7c-0.6,0.08-0.42,0.56-0.42,0.9
		c-0.01,2.48-0.01,4.96-0.01,7.44c0,0.94,0,1.88,0.01,2.82c0,0.28-0.06,0.64,0.4,0.66c0.5,0.03,0.51-0.34,0.52-0.69
		c0.01-0.26,0.01-0.51,0.01-0.77c0-2.23,0-4.45,0.01-6.68c0-0.3-0.11-0.7,0.03-1.57c0.16,0.46,0.51,1.34,0.61,1.66
		c0.69,2.25,1.37,4.5,2.06,6.74c0.1,0.33,0.2,0.65,0.31,0.98c0.08,0.23,0.26,0.32,0.49,0.34c0.29,0.02,0.51-0.08,0.61-0.36
		c0.12-0.32,0.23-0.65,0.33-0.97c0.72-2.28,1.42-4.57,2.17-6.84c0.12-0.38,0.21-1.06,0.64-1.77v1.6c0,2.35,0,4.71,0.01,7.06
		c0,0.34,0.01,0.69,0.06,1.02c0.03,0.18,0.21,0.25,0.4,0.24c0.19,0,0.34-0.07,0.39-0.26c0.04-0.16,0.05-0.34,0.05-0.51
		c0-3.43,0-6.85,0-10.27C98.21,85.39,98.34,84.96,97.81,84.91"/>
	<path class="st0" d="M201.83,84.93c-0.7-0.04-0.52,0.54-0.52,0.93c-0.03,0.98-0.01,1.97-0.01,2.95c0,1.78,0.01,4.07,0.01,6.07
		c-0.37-0.78-0.72-1.36-0.92-1.72c-1.37-2.47-2.73-4.94-4.09-7.41c-0.25-0.44-0.43-1-1.11-0.83c-0.7,0.16-0.4,0.76-0.4,1.16
		c-0.02,2.69-0.01,5.39-0.01,8.09c0,0.6-0.02,1.2,0.01,1.79c0.01,0.31-0.14,0.75,0.4,0.77c0.61,0.03,0.49-0.46,0.51-0.82
		c0.02-0.26,0.01-0.51,0.01-0.77c0-2.27-0.01-4.53,0-6.8c0-0.31-0.13-0.9,0.02-1.41c0.18,0.29,0.55,0.9,0.67,1.11
		c1.38,2.5,2.76,5.02,4.15,7.52c0.16,0.3,0.33,0.6,0.51,0.89c0.22,0.36,0.56,0.35,0.91,0.26c0.34-0.08,0.27-0.39,0.28-0.62
		c0.01-0.39,0-0.77,0-1.15c0-3.04,0.01-6.07-0.01-9.11C202.24,85.48,202.43,84.96,201.83,84.93"/>
	<path class="st0" d="M190.97,2.45c0.21,0,0.43,0.02,0.64,0c0.6-0.05,0.86,0.18,0.84,0.8c-0.03,1.28-0.01,2.57-0.01,3.85
		c0,1.28,0,2.57,0.01,3.85c0,0.25-0.09,0.58,0.16,0.71c0.51,0.26,1.1,0.21,1.62,0.05c0.42-0.12,0.26-0.58,0.26-0.9
		c0.01-2.23,0-4.45,0.01-6.67c0.01-1.96-0.14-1.68,1.6-1.7c0.12,0,0.26-0.01,0.38,0c0.47,0.03,0.73-0.16,0.7-0.66
		c-0.01-0.3-0.01-0.6,0-0.9c0.01-0.36-0.16-0.55-0.53-0.55c-2.14,0-4.28,0-6.42,0c-0.46,0-0.55,0.26-0.58,0.66
		C189.54,2.36,189.6,2.44,190.97,2.45"/>
	<path class="st0" d="M122.05,11.05c0,0.44,0.09,0.75,0.62,0.75c1.76,0,3.51,0,5.27,0c0.43,0,0.62-0.21,0.6-0.63
		c-0.01-0.26-0.01-0.51,0-0.77c0.04-0.54-0.17-0.78-0.73-0.76c-0.86,0.03-1.71,0.01-2.57,0c-1.11-0.01-1.13-0.02-1.13-1.13
		c-0.01-2.44,0.01-4.88-0.01-7.32c0-0.85-0.04-0.85-1.01-0.86c-0.98-0.01-1.02,0-1.03,0.83c-0.02,1.63-0.01,3.25-0.01,4.88
		C122.05,7.71,122.06,9.38,122.05,11.05"/>
	<path class="st0" d="M181.21,90.76c-1.03,0-2.05,0-3.08,0.01c-0.24,0-0.39,0.15-0.4,0.4c-0.01,0.28,0.09,0.52,0.41,0.54
		c0.42,0.02,0.85,0.02,1.28,0.02c1.62,0.01,1.76,0.18,1.27,1.78c-0.05,0.16-0.1,0.33-0.17,0.48c-0.49,1.15-1.3,1.89-2.6,1.99
		c-1.34,0.11-2.35-0.46-2.95-1.63c-1.2-2.37-1.2-4.78,0.04-7.14c0.56-1.06,1.5-1.61,2.74-1.56c1.26,0.04,2.04,0.75,2.61,1.78
		c0.16,0.29,0.22,0.65,0.37,0.95c0.11,0.21,0.36,0.2,0.57,0.15c0.29-0.06,0.26-0.27,0.21-0.49c-0.32-1.46-1.03-2.65-2.51-3.16
		c-1.48-0.51-2.87-0.3-4.05,0.81c-2.38,2.23-2.41,7.85-0.1,10.16c1.78,1.78,4.91,1.42,5.78-0.67c0.55,0.36,0.06,1.1,0.54,1.48
		c0.31,0.09,0.51-0.01,0.51-0.35c0.01-1.67,0.01-3.34,0.01-5C181.73,90.97,181.58,90.76,181.21,90.76"/>
	<path class="st0" d="M161.16,95.77c-0.3-0.02-0.6-0.02-0.9-0.02c-1.16,0-2.31,0.01-3.47-0.01c-0.89-0.01-0.91-0.03-0.92-0.96
		c-0.02-0.94,0.01-1.88-0.01-2.82c-0.01-0.59,0.21-0.86,0.82-0.84c1.16,0.03,2.31,0.02,3.46,0c0.37-0.01,0.96,0.24,0.96-0.47
		c0.01-0.69-0.57-0.47-0.95-0.52c-0.17-0.02-0.34,0-0.51,0c-1.03,0-2.06-0.01-3.08,0c-0.47,0-0.71-0.19-0.7-0.67
		c0.01-0.98,0.01-1.97,0-2.96c0-0.44,0.24-0.6,0.65-0.58c0.34,0.01,0.69-0.01,1.03-0.01c1.11,0,2.23,0,3.34,0
		c0.27,0,0.52-0.04,0.59-0.36c0.04-0.22,0.05-0.47-0.17-0.56c-0.19-0.08-0.41-0.08-0.62-0.08c-1.63-0.01-3.25,0.02-4.87-0.02
		c-0.69-0.01-0.89,0.25-0.88,0.9c0.03,1.67,0.01,3.34,0.01,5.01c0,1.62-0.01,3.25,0,4.88c0,1.07,0.02,1.09,1.03,1.1
		c1.54,0.01,3.08,0,4.62,0c0.17,0,0.34,0,0.51-0.01c0.29-0.02,0.48-0.13,0.48-0.46C161.59,95.99,161.48,95.79,161.16,95.77"/>
	<path class="st0" d="M124.92,92.28c-0.28-0.05-0.5,0.03-0.59,0.34c-0.12,0.45-0.23,0.91-0.4,1.35c-0.44,1.08-1.12,1.92-2.4,2.02
		c-1.36,0.11-2.3-0.54-2.93-1.67c-0.73-1.31-0.94-2.74-0.8-4.22c0.11-1.11,0.34-2.2,1.02-3.13c1.43-1.97,4.06-1.71,5.07,0.5
		c0.09,0.19,0.17,0.4,0.22,0.6c0.09,0.37,0.33,0.49,0.66,0.42c0.46-0.08,0.33-0.42,0.26-0.7c-0.4-1.57-1.31-2.71-2.94-3.05
		c-1.66-0.34-3.04,0.23-4.03,1.62c-0.96,1.34-1.22,2.89-1.22,4.5c0,1.48,0.23,2.89,1.03,4.17c1.02,1.63,2.83,2.36,4.51,1.83
		c1.51-0.48,2.84-2.43,2.81-4.09C125.21,92.54,125.2,92.32,124.92,92.28"/>
	<path class="st0" d="M43.3,11.81c0.95,0,0.98-0.02,0.99-1.03c0.01-1.58,0-3.17,0-4.76c0-1.54,0.01-3.08,0-4.62
		c-0.01-1.08-0.02-1.08-1.05-1.08c-0.97,0.01-1,0.01-1,1.01c-0.01,3.17-0.01,6.34,0,9.51C42.24,11.76,42.32,11.81,43.3,11.81"/>
	<path class="st0" d="M169.52,84.93c-0.25-0.05-0.54-0.07-0.66,0.22c-0.12,0.27-0.2,0.56-0.28,0.85c-0.87,2.99-1.73,5.98-2.68,9.28
		c-0.2-0.5-0.31-0.73-0.39-0.97c-0.79-2.7-1.57-5.41-2.36-8.12c-0.1-0.37-0.2-0.74-0.37-1.08c-0.13-0.26-0.44-0.26-0.68-0.17
		c-0.26,0.09-0.2,0.35-0.15,0.55c0.22,0.78,0.47,1.55,0.7,2.33c0.81,2.74,1.61,5.49,2.42,8.23c0.11,0.37,0.21,0.72,0.74,0.72
		c0.49,0,0.67-0.25,0.77-0.68c0.1-0.41,0.25-0.82,0.37-1.23c0.92-3.11,1.84-6.22,2.76-9.33C169.76,85.29,169.91,85.01,169.52,84.93"
		/>
	<path class="st0" d="M144.61,84.9h-6.29c-0.32,0-0.6,0.05-0.6,0.47c0,0.4,0.21,0.52,0.56,0.52c0.65,0.01,1.29,0.04,1.93,0
		c0.62-0.03,0.81,0.25,0.81,0.84c-0.03,1.54-0.01,3.08-0.01,4.62v3.21c0,0.56,0,1.11,0.02,1.67c0,0.28,0.11,0.5,0.45,0.5
		c0.34-0.01,0.41-0.24,0.42-0.52c0.01-0.34,0.01-0.68,0.01-1.03c0-2.78-0.01-5.56,0-8.35c0-0.91,0.02-0.92,0.93-0.94
		c0.6-0.01,1.2,0,1.79-0.01c0.35,0,0.57-0.12,0.57-0.52C145.2,84.94,144.93,84.9,144.61,84.9"/>
	<path class="st0" d="M171.68,85.57c0-0.29,0.05-0.63-0.4-0.66c-0.48-0.02-0.56,0.28-0.56,0.66c0,0.17,0,0.34,0,0.51v9.48
		c0,0.25,0,0.51,0.03,0.77c0.03,0.32,0.25,0.41,0.54,0.4c0.26,0,0.38-0.16,0.39-0.4c0.01-0.3,0.01-0.6,0.01-0.9
		c0.01-1.54,0.01-3.08,0.01-4.61h-0.01C171.68,89.07,171.69,87.32,171.68,85.57"/>
	<path class="st0" d="M184.48,85.32c-0.02-0.32-0.22-0.43-0.52-0.42c-0.24,0.01-0.41,0.11-0.44,0.36c-0.02,0.26-0.03,0.51-0.03,0.77
		v9.59c0,0.17,0,0.34,0,0.51c0.01,0.32,0.06,0.59,0.47,0.61c0.4,0.02,0.52-0.21,0.53-0.55c0-0.26,0-0.51,0-0.77
		c0-1.49,0-2.98,0-4.47c0-1.58,0-3.16,0-4.73C184.5,85.92,184.5,85.62,184.48,85.32"/>
	<path class="st0" d="M65.64,20.39c-0.01,0.48,0.25,0.8,0.76,0.83c0.49,0.04,0.94-0.37,0.89-0.84c-0.05-0.49-0.34-0.75-0.82-0.78
		C65.96,19.63,65.65,19.9,65.64,20.39"/>
	<path class="st0" d="M50.48,20.4c-0.01,0.48,0.27,0.78,0.74,0.82c0.48,0.01,0.88-0.32,0.92-0.73c0.04-0.47-0.37-0.91-0.86-0.88
		C50.78,19.62,50.49,19.92,50.48,20.4"/>
	<path class="st0" d="M183.45,20.5c0.03-0.45-0.31-0.85-0.75-0.88c-0.5-0.05-0.8,0.22-0.9,0.69c-0.1,0.46,0.31,0.92,0.8,0.91
		C183.09,21.22,183.36,20.94,183.45,20.5"/>
	<path class="st0" d="M196.95,20.42c0,0.48,0.29,0.78,0.8,0.8c0.49,0.02,0.92-0.41,0.85-0.88c-0.07-0.48-0.37-0.74-0.87-0.75
		C197.23,19.64,196.95,19.94,196.95,20.42"/>
	<path class="st0" d="M143.04,20.46c0.01-0.46-0.34-0.83-0.78-0.85c-0.5-0.01-0.79,0.26-0.86,0.73c-0.07,0.46,0.35,0.9,0.83,0.87
		C142.73,21.2,142.97,20.89,143.04,20.46"/>
	<path class="st0" d="M126.23,20.43c0.04,0.48,0.32,0.78,0.82,0.8c0.51,0.01,0.76-0.29,0.85-0.75c0.03-0.45-0.32-0.83-0.76-0.87
		C126.64,19.57,126.19,19.95,126.23,20.43"/>
	<path class="st0" d="M212.93,19.61c-0.5-0.01-0.79,0.29-0.85,0.76c-0.06,0.47,0.39,0.9,0.88,0.86c0.51-0.04,0.74-0.35,0.8-0.82
		C213.69,19.92,213.44,19.62,212.93,19.61"/>
	<path class="st0" d="M5.05,20.38c-0.02,0.5,0.25,0.82,0.77,0.83c0.5,0.02,0.78-0.27,0.87-0.83c-0.07-0.4-0.28-0.74-0.8-0.76
		C5.38,19.6,5.07,19.88,5.05,20.38"/>
	<path class="st0" d="M171.7,20.45c0.02,0.5,0.34,0.77,0.84,0.77c0.52-0.01,0.74-0.34,0.77-0.82c-0.06-0.51-0.32-0.8-0.84-0.77
		C171.97,19.65,171.68,19.95,171.7,20.45"/>
	<path class="st0" d="M36.16,19.61c-0.51,0-0.81,0.31-0.81,0.8c0,0.49,0.3,0.8,0.81,0.8c0.51,0,0.77-0.31,0.83-0.8
		C36.92,19.93,36.67,19.61,36.16,19.61"/>
	<path class="st0" d="M41.17,21.21c0.51,0.02,0.77-0.28,0.83-0.79c-0.04-0.48-0.27-0.8-0.79-0.81c-0.51,0-0.82,0.28-0.83,0.77
		C40.37,20.89,40.67,21.19,41.17,21.21"/>
	<path class="st0" d="M10.08,20.45c0.05,0.49,0.35,0.77,0.86,0.76c0.45-0.01,0.83-0.41,0.78-0.84c-0.06-0.49-0.35-0.77-0.86-0.76
		C10.41,19.63,10.03,20.02,10.08,20.45"/>
	<path class="st0" d="M166.65,20.38c-0.05,0.44,0.33,0.83,0.78,0.83c0.51,0.01,0.78-0.27,0.87-0.77c-0.05-0.48-0.28-0.8-0.79-0.82
		C166.99,19.6,166.71,19.89,166.65,20.38"/>
	<path class="st0" d="M111.08,20.41c-0.03,0.48,0.42,0.87,0.93,0.8c0.5-0.06,0.71-0.39,0.75-0.85c-0.11-0.49-0.37-0.78-0.88-0.76
		C111.38,19.63,111.11,19.93,111.08,20.41"/>
	<path class="st0" d="M152.35,21.22c0.48-0.04,0.78-0.32,0.77-0.82c-0.01-0.51-0.31-0.79-0.82-0.78c-0.51,0-0.8,0.31-0.79,0.81
		C151.52,20.92,151.82,21.2,152.35,21.22"/>
	<path class="st0" d="M156.55,20.4c-0.01,0.5,0.28,0.8,0.79,0.82c0.52,0.01,0.77-0.3,0.84-0.75c0.01-0.48-0.35-0.86-0.81-0.85
		C156.87,19.62,156.56,19.9,156.55,20.4"/>
	<path class="st0" d="M26.04,21.22c0.5-0.02,0.87-0.39,0.82-0.83c-0.05-0.49-0.33-0.78-0.84-0.77c-0.51,0.02-0.8,0.33-0.78,0.83
		C25.26,20.94,25.58,21.2,26.04,21.22"/>
	<path class="st0" d="M81.54,19.6c-0.47,0.05-0.75,0.34-0.77,0.82c-0.02,0.48,0.44,0.86,0.94,0.79c0.51-0.07,0.77-0.4,0.72-0.88
		C82.39,19.86,82.07,19.6,81.54,19.6"/>
	<path class="st0" d="M20.2,20.37c-0.03,0.49,0.25,0.8,0.76,0.85c0.51,0,0.83-0.26,0.86-0.76c0.02-0.49-0.25-0.81-0.77-0.84
		C20.53,19.59,20.22,19.88,20.2,20.37"/>
	<path class="st0" d="M96.73,21.23c0.5,0.01,0.77-0.29,0.88-0.76c-0.04-0.46-0.25-0.8-0.76-0.85c-0.5-0.05-0.81,0.21-0.92,0.68
		C95.83,20.75,96.23,21.21,96.73,21.23"/>
	<path class="st0" d="M137.97,20.46c0.02-0.5-0.26-0.8-0.77-0.83c-0.52-0.03-0.81,0.26-0.84,0.76c-0.03,0.5,0.24,0.8,0.76,0.84
		C137.62,21.21,137.95,20.96,137.97,20.46"/>
	<path class="st0" d="M30.31,20.35c-0.03,0.5,0.21,0.82,0.72,0.86c0.5,0.03,0.8-0.23,0.87-0.73c0-0.5-0.23-0.82-0.74-0.86
		C30.67,19.59,30.34,19.84,30.31,20.35"/>
	<path class="st0" d="M16.02,21.21c0.5-0.07,0.76-0.36,0.72-0.86c-0.03-0.51-0.35-0.76-0.85-0.73c-0.5,0.04-0.76,0.35-0.73,0.85
		C15.19,20.99,15.52,21.21,16.02,21.21"/>
	<path class="st0" d="M0.82,19.62c-0.5-0.01-0.8,0.27-0.82,0.77c-0.01,0.5,0.27,0.8,0.77,0.82c0.5,0.01,0.77-0.26,0.81-0.78
		C1.57,19.94,1.33,19.63,0.82,19.62"/>
	<path class="st0" d="M187.59,21.2c0.51,0.05,0.82-0.22,0.86-0.72c0.04-0.49-0.21-0.81-0.73-0.88c-0.48,0.01-0.82,0.24-0.86,0.73
		C186.82,20.84,187.09,21.15,187.59,21.2"/>
	<path class="st0" d="M192.74,19.62c-0.5-0.01-0.8,0.26-0.81,0.77c-0.01,0.5,0.26,0.8,0.77,0.82c0.51,0.01,0.77-0.27,0.82-0.78
		C193.5,19.94,193.26,19.63,192.74,19.62"/>
	<path class="st0" d="M202.01,20.45c0.02,0.5,0.33,0.77,0.83,0.76c0.51-0.01,0.75-0.33,0.79-0.85c-0.09-0.45-0.33-0.76-0.85-0.73
		C202.27,19.65,201.99,19.94,202.01,20.45"/>
	<path class="st0" d="M101.01,20.4c-0.01,0.5,0.28,0.79,0.79,0.8c0.51,0.02,0.77-0.27,0.81-0.78c-0.03-0.49-0.27-0.8-0.78-0.8
		C101.32,19.62,101.02,19.9,101.01,20.4"/>
	<path class="st0" d="M177.59,21.22c0.5-0.05,0.79-0.32,0.77-0.82c-0.01-0.5-0.31-0.78-0.82-0.77c-0.51,0.01-0.78,0.31-0.77,0.81
		C176.79,20.95,177.09,21.19,177.59,21.22"/>
	<path class="st0" d="M163.21,20.4c-0.01-0.5-0.31-0.78-0.81-0.77c-0.51,0.01-0.78,0.31-0.77,0.81c0.01,0.51,0.31,0.76,0.8,0.78
		C162.93,21.17,163.22,20.9,163.21,20.4"/>
	<path class="st0" d="M148.06,20.37c-0.04-0.42-0.26-0.74-0.78-0.75c-0.5,0-0.8,0.26-0.81,0.77c-0.01,0.51,0.26,0.8,0.77,0.81
		C147.75,21.22,148.02,20.94,148.06,20.37"/>
	<path class="st0" d="M132.1,21.21c0.51,0.01,0.77-0.27,0.81-0.79c-0.02-0.49-0.27-0.79-0.78-0.79c-0.5-0.01-0.8,0.27-0.81,0.77
		C131.31,20.9,131.58,21.2,132.1,21.21"/>
	<path class="st0" d="M207.08,20.48c0.03,0.5,0.35,0.77,0.86,0.73c0.5-0.03,0.73-0.36,0.74-0.85c-0.07-0.5-0.37-0.76-0.87-0.73
		C207.3,19.65,207.05,19.98,207.08,20.48"/>
	<path class="st0" d="M76.54,19.62c-0.51,0.02-0.78,0.32-0.77,0.82c0.01,0.51,0.31,0.78,0.81,0.77c0.51-0.01,0.76-0.31,0.79-0.86
		C77.29,19.92,77.05,19.6,76.54,19.62"/>
	<path class="st0" d="M122.05,21.22c0.5-0.05,0.79-0.33,0.77-0.83c-0.02-0.49-0.33-0.78-0.83-0.76c-0.51,0.01-0.78,0.33-0.76,0.82
		C121.24,20.94,121.55,21.2,122.05,21.22"/>
	<path class="st0" d="M86.64,19.62c-0.5,0.01-0.79,0.3-0.79,0.8c0.01,0.51,0.31,0.76,0.86,0.8c0.45-0.05,0.74-0.31,0.73-0.82
		C87.43,19.9,87.15,19.61,86.64,19.62"/>
	<path class="st0" d="M46.25,21.22c0.42-0.02,0.76-0.24,0.8-0.75c0.03-0.5-0.22-0.81-0.73-0.85c-0.5-0.04-0.81,0.22-0.85,0.73
		C45.44,20.85,45.69,21.15,46.25,21.22"/>
	<path class="st0" d="M117.75,20.4c-0.01-0.5-0.3-0.79-0.81-0.78c-0.5,0.01-0.78,0.3-0.78,0.81c0.01,0.5,0.31,0.76,0.86,0.79
		C117.46,21.16,117.76,20.91,117.75,20.4"/>
	<path class="st0" d="M61.39,21.21c0.5,0.01,0.8-0.26,0.82-0.77c0.01-0.5-0.27-0.78-0.85-0.83c-0.41,0.05-0.74,0.26-0.74,0.78
		C60.61,20.9,60.88,21.2,61.39,21.21"/>
	<path class="st0" d="M56.33,19.61c-0.48,0.04-0.79,0.31-0.78,0.81c0,0.5,0.31,0.78,0.81,0.78c0.52,0,0.79-0.31,0.79-0.8
		C57.14,19.91,56.85,19.63,56.33,19.61"/>
	<path class="st0" d="M91.73,21.21c0.51-0.02,0.76-0.32,0.79-0.81c-0.06-0.5-0.33-0.78-0.83-0.77c-0.51,0-0.78,0.31-0.77,0.81
		C90.94,20.94,91.22,21.22,91.73,21.21"/>
	<path class="st0" d="M106.81,21.21c0.5,0.03,0.82-0.24,0.85-0.75c0.03-0.5-0.25-0.78-0.8-0.86c-0.44,0.02-0.76,0.25-0.78,0.76
		C106.05,20.86,106.3,21.18,106.81,21.21"/>
	<path class="st0" d="M70.7,20.36c-0.03,0.5,0.24,0.81,0.75,0.85c0.51,0.03,0.78-0.25,0.86-0.75c-0.02-0.48-0.24-0.81-0.75-0.83
		C71.05,19.6,70.73,19.86,70.7,20.36"/>
	<path class="st0" d="M96.59,6.08c0,1.63,0.02,3.25-0.01,4.88c-0.01,0.59,0.16,0.87,0.8,0.85c1.11-0.03,2.23,0.01,3.34-0.02
		c1.52-0.05,2.65-0.8,3.24-2.16c1.02-2.33,1.07-4.75,0.05-7.1c-0.61-1.4-1.76-2.18-3.34-2.2c-1.07-0.01-2.14,0.03-3.21-0.01
		c-0.68-0.03-0.88,0.23-0.87,0.89C96.61,2.83,96.59,4.46,96.59,6.08 M99.35,2.44c2.04-0.11,3.04,0.71,3.24,2.76
		c0.09,0.86,0.11,1.72-0.1,2.55c-0.4,1.58-2.05,2.43-3.54,1.86c-0.39-0.14-0.32-0.46-0.32-0.75c-0.01-0.98,0-1.97,0-2.95
		c0-0.9,0.01-1.79,0-2.7C98.6,2.69,98.78,2.47,99.35,2.44"/>
	<path class="st0" d="M4.78,11.81c0.47-0.03,0.72-0.17,0.7-0.67c-0.01-0.69-0.01-1.37,0-2.06c0.04-1.91-0.38-1.8,1.92-1.76
		c0.98,0.02,1.38,0.4,1.56,1.36c0.1,0.55,0.11,1.11,0.16,1.66c0.17,1.56,0.17,1.56,1.7,1.45c0.12-0.01,0.24-0.06,0.45-0.12
		c-0.51-1.76,0.28-3.8-1.33-5.27c1.08-1.33,1.35-2.21,1.12-3.66c-0.23-1.47-1.22-2.37-2.7-2.4c-1.28-0.02-2.57-0.01-3.85,0
		C3.45,0.34,3.44,0.35,3.43,1.39c-0.01,3.08-0.01,6.15,0,9.23C3.43,11.8,3.58,11.89,4.78,11.81 M5.48,3.41
		C5.5,2.32,5.5,2.32,6.64,2.3c0.25,0,0.51-0.01,0.76,0c1.43,0.06,2.11,1.15,1.52,2.45C8.74,5.17,8.4,5.41,7.95,5.47
		C7.7,5.5,7.44,5.49,7.19,5.49c-1.86-0.02-1.69,0.24-1.71-1.7V3.41"/>
	<path class="st0" d="M202.5,9.75c0.8,1.47,2.02,2.3,3.72,2.29c1.64,0,2.89-0.8,3.61-2.24c1.26-2.53,1.28-5.13-0.08-7.61
		c-1.64-2.96-5.5-2.9-7.18,0.04c-0.67,1.18-0.93,2.46-0.88,3.86C201.63,7.36,201.87,8.6,202.5,9.75 M204.26,3.46
		c0.35-0.8,1-1.27,1.91-1.27c0.91-0.01,1.54,0.45,1.94,1.23c0.41,0.81,0.56,1.69,0.56,2.5c0.01,0.96-0.11,1.8-0.49,2.59
		c-0.4,0.83-1,1.37-1.97,1.38c-0.97,0.01-1.64-0.49-1.99-1.33C203.5,6.87,203.52,5.15,204.26,3.46"/>
	<path class="st0" d="M54.06,12.05c1.64-0.02,2.88-0.81,3.6-2.26c1.24-2.49,1.22-5.03-0.04-7.5c-0.73-1.44-1.94-2.23-3.61-2.23
		c-1.67,0-2.82,0.81-3.63,2.2c-0.66,1.14-0.86,2.4-0.9,3.82c0.02,1.2,0.18,2.51,0.85,3.7C51.14,11.24,52.37,12.06,54.06,12.05
		 M51.95,3.72c0.37-0.89,0.98-1.51,2.01-1.53c1.02-0.02,1.69,0.54,2.06,1.44c0.65,1.61,0.67,3.25-0.01,4.86
		c-0.38,0.9-1.05,1.44-2.08,1.41c-0.98-0.02-1.56-0.59-1.95-1.42c-0.35-0.75-0.4-1.57-0.45-2.37C51.57,5.29,51.62,4.48,51.95,3.72"
		/>
	<path class="st0" d="M115.5,93.57c-0.07-1.02-0.26-1.96-1.25-2.49c0.1-0.15,0.14-0.22,0.19-0.27c0.1-0.09,0.21-0.15,0.3-0.25
		c1.1-1.16,1.16-2.54,0.71-3.95c-0.45-1.4-1.63-1.76-2.98-1.73c-0.98,0.02-1.97,0-2.95,0c-1.04,0.01-1.06,0.03-1.06,1.07
		c-0.01,3.25,0,6.51,0,9.76c0,0.21,0.01,0.43,0.02,0.64c0.02,0.26,0.17,0.37,0.42,0.37c0.24,0,0.44-0.07,0.47-0.33
		c0.04-0.3,0.04-0.6,0.04-0.9c0.01-1.07,0.02-2.14,0-3.21c-0.01-0.52,0.16-0.8,0.73-0.78c0.9,0.03,1.8,0.01,2.7,0.01
		c0.8,0,1.26,0.43,1.53,1.14c0.26,0.7,0.27,1.43,0.29,2.15c0.01,0.56,0.03,1.11,0.22,1.64c0.11,0.31,0.38,0.29,0.64,0.26
		c0.29-0.04,0.27-0.24,0.25-0.47C115.65,95.36,115.56,94.47,115.5,93.57 M112.47,90.52c-0.77,0.02-1.54-0.02-2.31,0.01
		c-0.55,0.01-0.78-0.22-0.76-0.76c0.02-0.51,0.01-1.03,0.01-1.68c0.06-0.57-0.31-1.48,0.16-1.97c0.52-0.54,1.46-0.14,2.21-0.21
		c0.21-0.01,0.43,0.01,0.64,0c1.62-0.1,2.27,0.81,2.3,2.25C114.76,89.62,113.94,90.47,112.47,90.52"/>
	<path class="st0" d="M153.17,94.04c0.01-1.2-0.22-2.3-1.3-3.05c1.32-0.94,1.62-2.22,1.41-3.66c-0.23-1.53-1.12-2.34-2.68-2.41
		c-1.2-0.05-2.39-0.03-3.59-0.02c-0.92,0.01-0.94,0.03-0.95,0.93c-0.02,1.58,0,3.16,0,4.75c0,1.83,0,3.67,0,5.51
		c0,0.39,0.09,0.69,0.56,0.65c0.45-0.02,0.4-0.37,0.4-0.66c0.01-1.23,0.03-2.48,0-3.71c-0.01-0.6,0.19-0.86,0.81-0.84
		c0.81,0.03,1.63-0.01,2.44,0.01c1.15,0.04,1.64,0.43,1.85,1.55c0.14,0.75,0.16,1.53,0.25,2.29c0.03,0.34,0.04,0.68,0.11,1.01
		c0.06,0.3,0.31,0.37,0.59,0.36c0.36-0.03,0.4-0.27,0.33-0.54C153.2,95.49,153.16,94.76,153.17,94.04 M150.3,90.51
		c-0.85,0.05-1.71-0.01-2.55,0.02c-0.57,0.01-0.75-0.26-0.73-0.78c0.02-0.51,0-1.03,0-1.66c0.07-0.59-0.31-1.47,0.17-1.98
		c0.49-0.52,1.37-0.15,2.08-0.21c0.34-0.02,0.68-0.01,1.02,0c1.38,0.06,2.07,0.78,2.1,2.2C152.42,89.52,151.64,90.44,150.3,90.51"/>
	<path class="st0" d="M129.93,84.89c-0.42,0.01-0.59,0.21-0.71,0.59c-0.35,1.15-0.73,2.28-1.1,3.41c-0.82,2.55-1.64,5.11-2.47,7.68
		c0.89,0.14,0.91,0.16,1.1-0.4c0.27-0.77,0.51-1.54,0.73-2.32c0.14-0.52,0.39-0.8,0.98-0.77c0.94,0.04,1.88,0.05,2.82,0
		c0.6-0.03,0.83,0.26,0.98,0.77c0.22,0.78,0.49,1.55,0.71,2.32c0.18,0.6,0.53,0.72,1.15,0.39c-1.17-3.7-2.33-7.39-3.49-11.09
		C130.52,85.11,130.36,84.88,129.93,84.89 M128.05,92.03c0.59-1.89,1.16-3.7,1.73-5.51c0.06-0.22,0.03-0.42,0.11-0.42
		c0.55,1.82,1.21,4.05,1.78,5.93C130.4,92.14,129.31,92.15,128.05,92.03"/>
	<path class="st0" d="M208.44,86.48c-0.12-0.41-0.22-0.83-0.4-1.22c-0.24-0.51-0.94-0.52-1.22-0.04c-0.12,0.22-0.17,0.48-0.26,0.72
		c-0.78,2.44-1.57,4.88-2.35,7.33c-0.3,0.93-0.62,1.86-0.91,2.8c-0.06,0.22-0.24,0.52,0.14,0.64c0.31,0.09,0.61,0.05,0.74-0.31
		c0.13-0.36,0.24-0.73,0.36-1.1c0.23-0.69,0.28-1.55,0.74-2.01c0.54-0.53,1.47-0.2,2.23-0.2c2.43,0.02,1.82-0.37,2.59,1.87
		c0.17,0.49,0.3,0.98,0.48,1.46c0.11,0.29,0.37,0.32,0.64,0.29c0.2-0.02,0.3-0.13,0.3-0.42c-0.06-0.2-0.14-0.49-0.23-0.77
		C210.33,92.52,209.39,89.5,208.44,86.48 M205.53,92.06c0.59-1.88,1.29-4.08,1.84-5.82c0.24,0.39,0.21,0.54,0.25,0.66
		c0.51,1.66,1.01,3.33,1.54,5.09C207.94,92.2,206.82,92.1,205.53,92.06"/>
	<path class="st0" d="M191.03,87.45c-0.21-0.65-0.41-1.3-0.61-1.96c-0.1-0.36-0.27-0.62-0.72-0.59c-0.67-0.05-0.68,0.51-0.82,0.93
		c-1.05,3.25-2.1,6.51-3.14,9.77c-0.08,0.24-0.17,0.49-0.21,0.74c-0.05,0.37,0.2,0.41,0.48,0.39c0.38-0.02,0.46-0.32,0.55-0.61
		c0.24-0.77,0.52-1.54,0.72-2.33c0.13-0.49,0.36-0.71,0.89-0.7c0.98,0.02,1.97,0.02,2.95,0c0.53-0.01,0.76,0.22,0.89,0.71
		c0.19,0.74,0.47,1.46,0.69,2.2c0.13,0.44,0.26,0.9,0.83,0.71c0.62-0.19,0.19-0.65,0.1-0.95C192.78,92.99,191.9,90.22,191.03,87.45
		 M187.81,92.07c0.64-2.06,1.25-3.99,1.85-5.94c0.59,1.92,1.16,3.84,1.78,5.86C190.22,92.2,189.1,92.1,187.81,92.07"/>
	<path class="st0" d="M106.16,92.14c-0.68-2.17-1.36-4.32-2.04-6.49c-0.11-0.37-0.19-0.73-0.71-0.76c-0.59-0.04-0.7,0.38-0.83,0.78
		c-0.04,0.12-0.06,0.25-0.1,0.37c-1.01,3.13-2.02,6.27-3.03,9.4c-0.08,0.24-0.17,0.49-0.23,0.74c-0.05,0.2-0.11,0.45,0.16,0.54
		c0.25,0.07,0.56,0.07,0.68-0.2c0.19-0.43,0.3-0.89,0.45-1.33c0.88-2.52,0.11-2.03,2.82-2.09c0.43,0,0.86,0.02,1.28-0.01
		c0.61-0.05,0.94,0.16,1.09,0.79c0.2,0.83,0.5,1.63,0.76,2.45c0.14,0.43,0.46,0.51,0.81,0.38c0.36-0.12,0.18-0.44,0.11-0.65
		C107,94.74,106.57,93.44,106.16,92.14 M101.48,92.08c0.65-2.09,1.25-4.02,1.86-5.95c0.59,1.94,1.17,3.87,1.77,5.89
		C103.86,92.19,102.74,92.1,101.48,92.08"/>
	<path class="st0" d="M49.13,78.51c0.07,0,0.13-0.06,0.13-0.13v-0.59c0-0.08-0.06-0.14-0.13-0.14c-0.07,0-0.13,0.06-0.13,0.14v0.59
		C49,78.45,49.06,78.51,49.13,78.51"/>
	<path class="st0" d="M33.02,76.02c0.3,0,0.51-1.69,0.51-1.69l-1.1-2.06C32.43,72.27,33.02,74.25,33.02,76.02"/>
	<path class="st0" d="M20.21,55.86c0.37,0.08,0.37-1.03,0.07-1.1C20,54.61,19.77,55.78,20.21,55.86"/>
	<path class="st0" d="M20.66,57.92c0.3,0.08,0.44-0.95,0.44-0.95s0.22,0.36,0.73,0.29c0.44-0.15-0.29-0.67-0.29-0.67
		s1.4-0.15,1.1-0.73c-0.22-0.66-2.06,0.22-2.06,0.22S20.29,57.85,20.66,57.92"/>
	<path class="st0" d="M22.28,59.98c0-0.15-0.15-0.15-0.22-0.22c-0.07-0.14-0.14-0.07-0.14-0.07v0.22h-0.15
		c-0.22,0.07-0.3,0.22-0.59,0.29c-0.3,0.15-0.37,0-0.52,0c-0.12,0-0.46-0.05-0.65-0.07c0-0.16,0-0.33-0.01-0.51
		c-0.01-0.17-0.02-0.34-0.02-0.52l-0.01-0.02c0.3-0.07,0.6-0.15,0.83-0.3c0.06-0.04,0.08-0.13,0.04-0.19
		c-0.04-0.06-0.12-0.07-0.19-0.04c-0.2,0.13-0.49,0.21-0.76,0.27c-0.34,0.07-0.34,0.07-0.52-0.23c-0.04-0.06-0.12-0.09-0.19-0.05
		c-0.06,0.04-0.08,0.12-0.04,0.19c0.18,0.29,0.3,0.39,0.51,0.39l0.06-0.01c0,0.17,0.01,0.35,0.02,0.52
		c0.01,0.17,0.01,0.34,0.01,0.49c-0.18,0-0.44-0.01-0.7-0.07c0,0,0.37,0.74,0.51,0.67c0.07-0.08,0.3,0,0.66,0
		c0.37,0.07,0.15,0.07,0.59,0.07c0.37,0,0.52-0.15,0.88-0.22c0.29-0.07,0.36-0.15,0.44-0.22c0.07,0.08,0.15,0.08,0.3,0.08
		C22.64,60.34,22.35,60.13,22.28,59.98"/>
	<path class="st0" d="M47.59,93.75c0,0-0.66-0.3-1.4-0.3c-0.44,0-0.96,0.3-1.32,0.22c-0.15-0.07-0.29,0-0.37,0.14
		c-0.07,0.22,0,0.37,0.22,0.45c0.44,0.14,1.03-0.22,1.54-0.22c0.73,0,1.4,0.29,1.47,0.29c0.15,0,0.29-0.22,0.29-0.36
		C47.95,93.82,47.8,93.68,47.59,93.75"/>
	<path class="st0" d="M20.36,93.09c-0.74-0.07-0.74-0.07-1.47-0.22c-0.66-0.15-0.73-0.22-1.4-0.15c-0.66,0.07-0.66,0.15-1.25,0.15
		c-0.22,0.07-0.37,0.15-0.37,0.37c0.07,0.15,0.22,0.21,0.37,0.21c0.74-0.07,0.74,0,1.47-0.07c0.73-0.08,0.59,0,1.25,0.15
		c0.66,0.07,0.66,0.07,1.33,0.22c0.14,0,0.3-0.15,0.3-0.3C20.66,93.31,20.51,93.16,20.36,93.09"/>
	<path class="st0" d="M17.05,91.76c0-0.15-0.07-0.44-0.22-0.44c-0.81-0.22-0.81-0.15-1.62-0.37c-0.74-0.14-0.74-0.14-1.54-0.29
		c-0.74-0.15-0.81,0-1.62,0.07c-0.81,0.15-0.81,0.15-1.62,0.22C9.7,91.1,9.7,91.03,8.96,91.18c-0.15,0-0.3,0.15-0.3,0.29
		c0,0.22,0.22,0.3,0.37,0.3c0.81-0.15,0.81-0.15,1.62-0.3c0.81-0.07,0.81-0.07,1.62-0.15c0.73-0.15,0.66-0.15,1.4,0
		c0.81,0.15,0.81,0.15,1.54,0.37c0.73,0.15,0.73,0.15,1.47,0.29C16.83,91.98,16.98,91.91,17.05,91.76"/>
	<path class="st0" d="M13.22,94.27c0-0.07-0.66-0.15-1.47-0.3c-0.44-0.07-1.17,0-1.62,0.08c-0.59,0.14-1.11,0.22-1.32,0.29
		c-0.15,0-0.3,0.22-0.3,0.37c0.08,0.15,0.22,0.22,0.44,0.22c0.15,0,0.74-0.07,1.47-0.22c0.44-0.07,0.88-0.22,1.32-0.15
		c0.74,0.15,1.32,0.29,1.4,0.29c0.14,0.07,0.37-0.07,0.37-0.22C13.52,94.42,13.44,94.27,13.22,94.27"/>
	<path class="st0" d="M26.69,90.73h1.62c0.88,0,0.81,0.22,1.62,0.36c0.81,0.15,0.81,0.08,1.69,0.22c0.73,0.15,0.73,0.22,1.47,0.36
		c0.15,0,0.29-0.14,0.37-0.29c0-0.15-0.08-0.3-0.3-0.3c-0.81-0.15-0.81-0.21-1.62-0.36c-0.88-0.15-0.88,0-1.69-0.15
		c-0.88-0.15-0.88-0.44-1.69-0.44c-0.81,0-0.81,0.07-1.69,0.07c-0.81,0-0.81,0.22-1.62,0.29c-0.81,0.08-0.88,0.15-1.69,0.15
		c-0.74,0.07-0.81-0.07-1.55,0c-0.15,0-0.37,0.29-0.37,0.44c0,0.22,0.29,0.37,0.44,0.37c0.88-0.08,0.81-0.22,1.69-0.3
		c0.81-0.08,0.88,0,1.69-0.08C25.88,91.03,25.8,90.73,26.69,90.73"/>
	<path class="st0" d="M39.86,93.6c-0.81-0.07-0.81-0.15-1.62-0.22c-0.88-0.08-0.88,0.15-1.76,0.15c-0.81-0.08-0.74-0.22-1.55-0.3
		c-0.88-0.07-0.88,0.07-1.69,0c-0.81-0.07-0.81-0.14-1.62-0.14H30c-0.88,0-0.88,0.07-1.76,0.22c-0.74,0.15-0.74,0.22-1.55,0.37
		c-0.81,0.07-0.73,0.22-1.55,0.29c-0.73,0.08-0.81-0.07-1.54,0.08c-0.15,0-0.07,0.29-0.07,0.44c0,0.22,0.07,0.29,0.22,0.29
		c0.81-0.15,0.81-0.22,1.62-0.37c0.81-0.15,0.81-0.07,1.69-0.22c0.81-0.07,0.81-0.07,1.62-0.22c0.81-0.07,0.66-0.29,1.54-0.29
		c0.81,0,0.81,0.22,1.62,0.22c0.81,0,0.81-0.15,1.62-0.08c0.81,0.08,0.81-0.07,1.69-0.07c0.73,0.07,0.73,0.15,1.54,0.22
		c0.81,0,0.81,0.22,1.62,0.3c0.73,0.07,0.73,0.07,1.47,0.15c0.15,0,0.22-0.3,0.3-0.45C40.08,93.82,40.01,93.6,39.86,93.6"/>
	<path class="st0" d="M34.71,89.78c0.73-0.15,0.73-0.22,1.47-0.3c0.81-0.15,0.74-0.29,1.54-0.29h1.55c0.73,0,0.66,0,1.47,0.15
		c0.73,0.08,0.73,0.22,1.47,0.29c0.66,0.15,0.66,0.15,1.4,0.22c0.15,0.07,0.37-0.08,0.37-0.29c0.07-0.15-0.07-0.44-0.29-0.44
		c-0.73-0.15-0.73-0.08-1.47-0.15c-0.81-0.14-0.81-0.14-1.62-0.22c-0.74-0.15-0.81-0.22-1.54-0.22H37.5c-0.73,0-0.73,0.36-1.54,0.44
		c-0.66,0.07-0.66-0.07-1.4,0.07c-0.15,0-0.21,0.22-0.15,0.44C34.41,89.63,34.49,89.78,34.71,89.78"/>
	<path class="st0" d="M48.18,91.62C48.32,91.69,48.18,91.47,48.18,91.62"/>
	<path class="st0" d="M46.63,91.4c-0.81-0.15-0.81-0.07-1.62-0.15c-0.73-0.15-0.73-0.15-1.54-0.15c-0.73,0-0.81-0.22-1.54-0.07
		c-0.73,0-0.73-0.08-1.54,0c-0.66,0.07-0.66,0.22-1.32,0.29c-0.22,0-0.44,0.07-0.37,0.29c0,0.15,0.22,0.22,0.37,0.22
		c0.81-0.08,0.81-0.15,1.54-0.22c0.81-0.07,0.81,0,1.62-0.15c0.73-0.07,0.73,0.22,1.47,0.22c0.81,0,0.73,0.07,1.47,0.15
		c0.74,0.07,0.74,0.15,1.54,0.22c0.66,0.15,0.66,0.08,1.4,0.15c0.15,0,0.07-0.37,0.07-0.59C47.36,91.54,47.36,91.47,46.63,91.4"/>
	<path class="st0" d="M17.46,71.72c0.15,0.07,0.15,0,0.22-0.15c0.15-0.07,0.22,0,0.07-0.15c-0.3-0.29-1.11-1.69-1.4-2.43
		c-0.15-0.15-0.96-0.22-0.88-0.07C15.63,69.15,16.95,71.28,17.46,71.72"/>
	<path class="st0" d="M19.08,71.21c0.15,0.07,0.37,0,0.22-0.07c-1.4-1.1-1.33-2.5-1.55-2.65v0.07c-0.08-0.07-0.81,0-0.74,0.14
		C17.24,69.15,18.05,70.84,19.08,71.21"/>
	<path class="st0" d="M65.85,84.31c-0.19,0.01-0.39,0.03-0.61,0.04c-0.07,0-0.12,0.07-0.12,0.14c0.01,0.06,0.06,0.12,0.14,0.12h0.01
		c0.22-0.01,0.41-0.03,0.61-0.04c0.77-0.05,1.38-0.08,2.27-0.25c0.93-0.12,2.14-0.05,2.71-0.01c0.14,0.01,0.24,0.01,0.28,0.01
		c0.07,0,0.14-0.06,0.14-0.14c0-0.07-0.06-0.13-0.14-0.13c-0.04,0-0.13,0-0.27-0.01c-0.59-0.04-1.8-0.11-2.78,0.01
		C67.21,84.23,66.61,84.27,65.85,84.31"/>
	<path class="st0" d="M52.37,91.62c0-0.22-0.15-0.3-0.36-0.3c-1.03-0.07-1.03-0.07-2.14-0.07c-0.22,0-0.29,0.15-0.29,0.36
		c0,0.15,0.07,0.3,0.29,0.3H52C52.22,91.91,52.37,91.76,52.37,91.62"/>
	<path class="st0" d="M52.59,89.26c0.81-0.07,0.73-0.36,1.54-0.36c0.81,0,0.73,0,1.54,0.07c0.81,0,0.81,0.22,1.62,0.3
		c0.73,0,0.73,0,1.54,0.08c0.66,0.07,0.73-0.15,1.4-0.08c0.15,0,0.37-0.07,0.37-0.22c0-0.15-0.15-0.37-0.29-0.37
		c-0.81-0.07-0.81,0-1.62,0c-0.81-0.07-0.81-0.07-1.62-0.15c-0.74,0-0.74-0.07-1.55-0.15h-1.62c-0.81,0-0.81,0.22-1.62,0.37
		c-0.73,0.07-0.73,0.07-1.54,0.15c-0.67,0-0.67-0.08-1.4,0c-0.15,0-0.29,0.22-0.29,0.44c0,0.14,0.22,0.3,0.36,0.3
		c0.81-0.07,0.81-0.15,1.54-0.22C51.78,89.26,51.78,89.34,52.59,89.26"/>
	<path class="st0" d="M70.47,88.68c-0.96-0.22-0.96-0.22-1.84-0.37c-0.88-0.15-0.96-0.29-1.84-0.29c-0.96,0-0.96,0.15-1.91,0.29
		c-0.81,0.15-0.81,0.22-1.62,0.3c-0.15,0.07-0.29,0.15-0.29,0.29c0.07,0.22,0.22,0.3,0.37,0.3c0.96-0.15,0.96-0.07,1.84-0.15
		c0.88-0.15,0.88-0.29,1.77-0.29c0.88,0,0.81,0.15,1.76,0.37c0.81,0.14,0.81,0,1.62,0.14c0.15,0,0.37,0,0.45-0.14
		C70.77,88.89,70.62,88.68,70.47,88.68"/>
	<path class="st0" d="M65.54,91.03c-0.96-0.07-0.88-0.07-1.84-0.15c-0.88-0.07-0.88-0.07-1.77-0.07c-0.96,0-0.96,0-1.84,0.07
		c-0.88,0.15-0.88,0.07-1.76,0.22c-0.81,0.07-0.81,0.07-1.55,0.22c-0.22,0-0.44,0.15-0.37,0.29c0,0.22,0.22,0.36,0.44,0.3
		c0.88-0.07,0.88-0.15,1.76-0.22c0.88-0.15,0.88-0.15,1.77-0.3c0.88-0.07,0.81-0.15,1.69-0.07c0.96,0.07,0.88,0.22,1.84,0.29
		c0.73,0.07,0.73,0.07,1.55,0.15c0.14,0,0.29-0.15,0.29-0.37C65.76,91.25,65.69,91.03,65.54,91.03"/>
	<path class="st0" d="M63.04,93.24c-0.95-0.07-0.95,0.08-1.84,0c-0.88-0.07-0.88-0.22-1.77-0.3c-0.88-0.07-0.88-0.22-1.76-0.22
		c-0.96,0-0.96,0.15-1.84,0.3c-0.88,0.07-0.88,0.07-1.77,0.15c-0.81,0.07-0.88,0-1.69,0.07c-0.15,0-0.37,0.22-0.37,0.44
		c0.07,0.15,0.3,0.15,0.44,0.15c0.88-0.07,0.88,0,1.84-0.07c0.88-0.07,0.88-0.15,1.76-0.22c0.88-0.15,0.81,0,1.69,0
		c0.96,0,0.88,0,1.77,0.07c0.88,0.08,0.88,0.15,1.77,0.22c0.81,0.07,0.81,0.15,1.69,0.22c0.14,0,0.3-0.22,0.3-0.37
		C63.26,93.46,63.18,93.24,63.04,93.24"/>
	<path class="st0" d="M25.14,86.47c0.44,0.15,1.03,0.15,1.54,0.15c0.73,0,1.4-0.07,1.47-0.07c0.15,0,0.3-0.15,0.3-0.37
		c-0.07-0.15-0.22-0.22-0.37-0.22c-0.07,0-0.73,0.07-1.47,0.07c-0.44,0-0.96-0.07-1.26-0.15c-0.22-0.07-0.37,0-0.44,0.15
		C24.85,86.24,24.99,86.39,25.14,86.47"/>
	<path class="st0" d="M24.63,88.16c-0.74-0.07-0.74-0.15-1.54-0.22c-0.73-0.08-0.73-0.22-1.54-0.22h-1.4
		c-0.73,0-0.81,0.15-1.47,0.22c-0.73,0.15-0.73,0.22-1.4,0.29c-0.15,0.07-0.3,0.22-0.22,0.44c0,0.14,0.15,0.22,0.29,0.14
		c0.74-0.07,0.81,0,1.54-0.07c0.74-0.15,0.66-0.37,1.47-0.37h1.4c0.73,0,0.66,0.15,1.4,0.22c0.74,0,0.74,0.07,1.4,0.15
		c0.22,0,0.44-0.15,0.44-0.29C24.99,88.31,24.78,88.16,24.63,88.16"/>
	<path class="st0" d="M14.77,77.27c-0.07,0-0.15,0.22-0.07,0.44l0.07,0.44c0,0.29,0.15,0.44,0.22,0.44c0.08,0,0.15-0.22,0.08-0.44
		l-0.08-0.44C14.99,77.42,14.84,77.27,14.77,77.27"/>
	<path class="st0" d="M14.77,80.51l0.07-0.07c0.15-0.07,0.22-0.22,0.22-0.44v-0.07c0-0.3-0.15-0.44-0.29-0.59
		c-0.32-0.19-0.67-0.11-0.77-0.08l-0.04,0.01h-0.07c-0.07,0.07-0.07,0.37-0.07,0.6v0.73c0,0.22,0,0.88,0.07,0.88
		c0.07,0,0.15-0.07,0.15-0.15l0.02-0.07c0.03-0.08,0.1-0.2,0.17-0.3c0.08-0.1,0.16-0.17,0.25-0.15l0.22,0.51
		c0.22,0.15,0.44,0.22,0.51,0.15c0-0.07,0-0.15-0.07-0.22C15.07,81.17,14.7,80.51,14.77,80.51 M14.62,80.14
		c-0.08,0.08-0.3,0.08-0.37,0h-0.07v-0.22c0-0.15,0.15-0.37,0.3-0.37l0.07,0.07c0.08,0.07,0.15,0.15,0.15,0.3
		C14.7,80,14.7,80.14,14.62,80.14"/>
	<path class="st0" d="M7.04,79.84c0,0-0.74-0.15-1.47-0.15c-0.51,0-1.03,0.29-1.4,0.29c-0.15,0.07-0.3,0.15-0.3,0.37
		c0,0.15,0.15,0.29,0.37,0.29c0.44,0,0.81-0.37,1.4-0.37c0.74,0,1.32,0.22,1.32,0.22c0.22,0,0.37-0.15,0.44-0.29
		C7.41,79.99,7.19,79.84,7.04,79.84"/>
	<path class="st0" d="M4.25,78.89c0.44-0.22,0.81-0.22,1.25-0.22c0.74-0.07,1.26,0.22,1.33,0.22c0.15,0,0.37-0.15,0.37-0.3
		c0-0.22-0.15-0.36-0.37-0.36c0,0-0.66-0.22-1.4-0.22c-0.44,0-1.1,0.15-1.47,0.37c-0.15,0.07-0.22,0.29-0.07,0.44
		C3.95,78.96,4.1,79.04,4.25,78.89"/>
	<path class="st0" d="M7.12,85c0.66,0.08,0.66,0.08,1.32,0.15c0.15,0,0.37-0.52,0.37-0.66c0-0.15-0.15,0.07-0.29,0
		c-0.74-0.07-0.74-0.07-1.47-0.15c-0.67-0.07-0.74-0.07-1.4-0.07s-0.66,0.29-1.32,0.36C4.17,84.7,4.03,84.85,4.1,85
		c0,0.15,0.15,0.22,0.37,0.22c0.73-0.14,0.66-0.29,1.4-0.29C6.53,84.85,6.46,84.85,7.12,85"/>
	<path class="st0" d="M11.09,89.41c0.74,0.07,0.95-0.15,1.69,0.07c0.66,0.15,0.66,0.29,1.32,0.44c0.15,0.07,0.37-0.15,0.37-0.3
		c0.08-0.15,0-0.36-0.22-0.44c-0.74-0.15-0.74-0.22-1.54-0.44c-0.81-0.15-1.11,0.14-1.92,0.07c-0.81,0-0.81-0.15-1.62-0.15
		c-0.81,0-0.59,0.29-1.32,0.29c-0.74-0.07-0.74-0.07-1.4-0.15c-0.22,0-0.36,0.15-0.36,0.29c0,0.22,0.15,0.37,0.29,0.37
		c0.88,0,0.88-0.07,1.69,0c0.8,0,0.59-0.07,1.4-0.07C10.28,89.48,10.28,89.41,11.09,89.41"/>
	<path class="st0" d="M10.43,76.68c0.07,0,0.15-0.15,0.15-0.44v-0.59c0-0.22,0.07-0.51,0.07-0.59h0.08c0.15,0,0.44,0.22,0.44,0.44
		c0,0.15-0.07,0.22-0.07,0.22c-0.22,0.07-0.36,0.15-0.36,0.29c0,0.07,0.22,0.07,0.44,0c0,0,0.17-0.07,0.28-0.23
		c-0.04,0.18-0.06,0.31-0.06,0.31c0,0.22,0.08,0.44,0.15,0.44c0.07,0,0.15-0.15,0.22-0.44c0,0,0.22-1.1,0.51-1.1
		c0.37,0,0.44,0.96,0.44,0.96c0.07,0.22,0.15,0.44,0.22,0.44c0.07,0,0.15-0.22,0.15-0.44c0,0,0-1.25-0.81-1.25
		c-0.39,0-0.62,0.41-0.75,0.78c-0.02-0.36-0.44-0.71-0.8-0.71c-0.22,0-0.22,0.08-0.22,0.08c-0.14,0.22-0.22,0.59-0.22,0.81v0.59
		C10.28,76.54,10.36,76.68,10.43,76.68"/>
	<path class="st0" d="M12.56,75.87c0-0.07-0.15-0.15-0.3-0.15c-0.15,0-0.29,0.07-0.29,0.15c0,0.07,0.15,0.15,0.29,0.15
		C12.41,76.02,12.56,75.94,12.56,75.87"/>
	<path class="st0" d="M13.37,76.46c0.07,0,0.22-0.07,0.36-0.22c0.22-0.15,0.45-0.22,0.52-0.08c0.15,0.08,0.29,0.15,0.36,0.08
		c0.08,0,0-0.22-0.15-0.3c-0.07-0.15-0.07-0.37,0.15-0.59c0.15-0.15,0.22-0.37,0.22-0.37c-0.07-0.07-0.3,0-0.44,0.15
		c-0.22,0.22-0.44,0.22-0.59,0.07c-0.15-0.15-0.29-0.22-0.37-0.15c-0.07,0.08,0,0.22,0.15,0.37c0.14,0.15,0.07,0.44-0.07,0.59
		C13.37,76.16,13.3,76.39,13.37,76.46"/>
	<path class="st0" d="M11.75,77.49c0-0.15-0.22-0.22-0.44-0.22h-0.59c-0.22,0-0.44,0.07-0.44,0.22c0,0.07,0.22,0.15,0.44,0.15h0.59
		C11.54,77.64,11.75,77.56,11.75,77.49"/>
	<path class="st0" d="M10.8,78.15v0.22c0,0.22,0.07,0.44,0.15,0.44s0.15-0.22,0.15-0.44v-0.22c0-0.22-0.08-0.44-0.15-0.44
		S10.8,77.93,10.8,78.15"/>
	<path class="st0" d="M12.12,77.34c-0.07,0-0.15,0.22-0.15,0.44v0.59c0,0.22,0.07,0.44,0.15,0.44c0.15,0,0.22-0.22,0.22-0.44v-0.59
		C12.34,77.56,12.27,77.34,12.12,77.34"/>
	<path class="st0" d="M12.71,77.2h-0.07v0.59v0.59v0.51h0.07c0,0.07,0.07,0.07,0.07,0.07c0.08,0,0.37,0,0.68-0.06l0.06-0.01
		l0.03-0.01c0.26-0.06,0.5-0.16,0.63-0.35c0.15-0.08,0.15-0.22,0.15-0.3v-0.08c0-0.21-0.07-0.36-0.22-0.44l-0.07-0.07
		c-0.15,0-0.15-0.08-0.15-0.15c0-0.08,0.07-0.15,0.07-0.15c0-0.08-0.07-0.15-0.07-0.22c-0.07-0.07-0.15-0.15-0.22-0.22h-0.15
		l-0.02,0.01c-0.07,0-0.14,0.01-0.22,0.03c-0.05,0.01-0.1,0.03-0.15,0.04L13.06,77C12.89,77.07,12.75,77.15,12.71,77.2 M13.37,77.2
		h0.15h0.07v0.07v0.08c0,0.15-0.22,0.21-0.3,0.21c-0.07,0.08-0.07,0.15-0.07,0.22c0,0.07,0.15,0.15,0.22,0.07
		c0.07,0,0.3,0,0.44,0.08c0.07,0.07,0.15,0.15,0.15,0.21v0.08c0,0,0,0.07-0.07,0.07c-0.03,0.05-0.08,0.09-0.13,0.12
		c-0.12,0.07-0.26,0.11-0.31,0.11l-0.1,0.06l-0.05,0.01c-0.22,0-0.44-0.15-0.44-0.45v-0.29C12.93,77.56,13.15,77.35,13.37,77.2"/>
	<path class="st0" d="M11.83,80.73c0.07,0.15,0.15,0.22,0.22,0.22c0.14-0.07,0.14-0.29,0.07-0.51l-0.07-0.15
		c-0.08-0.22-0.15-0.66-0.15-0.73h-0.07h-0.07c-0.08,0-0.15,0.29-0.22,0.37c-0.07,0.15-0.37,0.3-0.44,0.15
		c-0.07-0.08-0.21-0.52-0.29-0.52h-0.07c-0.07,0.07-0.15,0.59-0.22,0.88l-0.07,0.37c-0.07,0.29-0.07,0.52,0,0.52
		c0.07,0,0.22-0.07,0.3-0.29c0-0.15,0.22-0.59,0.29-0.51c0.07,0.07,0.15,0.15,0.15,0.15h0.07h0.07c0,0,0.07-0.07,0.15-0.15
		C11.53,80.43,11.83,80.58,11.83,80.73"/>
	<path class="st0" d="M13.22,79.33h-0.07h-0.08h-0.07c0,0.07-0.08,0.07-0.15,0.3l-0.37,0.66c-0.07,0.29-0.22,0.66-0.15,0.66
		c0.07,0.07,0.15,0,0.15,0c0.07-0.06,0.29-0.41,0.31-0.5c0.03,0.05,0.14,0.06,0.21,0.12c0.15,0,0.22,0.15,0.29,0.3
		c0,0.22,0.15,0.37,0.22,0.29c0.07,0,0.07-0.22,0.07-0.44l-0.22-1.03C13.37,79.4,13.22,79.4,13.22,79.33 M13.01,80.21
		c-0.08,0-0.08-0.07-0.08-0.15c0.08,0,0.08-0.07,0.08-0.07l0.07-0.07C13.16,79.99,13.08,80.21,13.01,80.21"/>
	<path class="st0" d="M10.87,83.45c0.22,0,0.44-0.07,0.44-0.22c-0.08-0.08-0.15-0.15-0.29-0.15c0,0-0.37-0.08-0.45-0.22
		c-0.07-0.07-0.15-0.15-0.07-0.3c0.07-0.51,0.44-0.36,0.44-0.36c0.22,0,0.29-0.22,0.29-0.3c0-0.15-0.21-0.15-0.44-0.15
		c0,0-0.59,0.15-0.66,0.74c0,0.29,0.07,0.44,0.22,0.59C10.65,83.52,10.87,83.45,10.87,83.45"/>
	<path class="st0" d="M12.56,81.76h-0.74c0,0-0.08,0.08-0.08,0.15c0,0.15-0.15,0.88-0.22,1.32c0,0,0,0.07,0.07,0.07v0.07
		c0.07,0,0.3,0,0.52,0.07h0.07c0.3,0,0.44-0.07,0.44-0.15c0.07-0.07-0.07-0.15-0.22-0.15c-0.15-0.07-0.51-0.3-0.44-0.51v-0.07
		c0.07,0,0.15,0.07,0.22,0.07c0.22,0.07,0.44,0,0.44-0.07c0-0.07-0.07-0.22-0.22-0.22h-0.36c0.07-0.15,0.22-0.37,0.29-0.37
		c0.15,0.08,0.67,0,0.67-0.07C13.01,81.83,12.78,81.76,12.56,81.76"/>
	<path class="st0" d="M16.76,76.39c0.22,0.07,0.36,0.07,0.36,0.07c0.3,0,0.45-0.07,0.45-0.15s-0.07-0.14-0.22-0.14
		c-0.15,0-0.37-0.08-0.37-0.08v-0.07v-0.45c0.12,0.05,0.34,0.09,0.45,0.09c0.15,0,0.22-0.07,0.29-0.15c0-0.07-0.15-0.15-0.29-0.15
		c-0.09,0-0.24,0-0.35,0.03c0.1-0.14,0.25-0.25,0.43-0.25c0.15,0,0.36,0,0.36-0.08c0-0.15-0.22-0.22-0.44-0.22
		c-0.22-0.07-0.51-0.07-0.59-0.07v0.07C16.53,76.24,16.69,76.31,16.76,76.39"/>
	<path class="st0" d="M18.38,75.87c0.15,0.22,0.22,0.44,0.3,0.51h0.07c0.08-0.07,0.22-0.3,0.3-0.51l0.22-0.22
		c0.07-0.22,0.15-0.45,0.07-0.52c-0.07,0-0.22,0.07-0.29,0.15c-0.07,0.15-0.36,0.37-0.44,0.15c0,0-0.07-0.07-0.07-0.22
		c-0.07-0.15-0.22-0.22-0.3-0.15c-0.07,0-0.07,0.22,0,0.44L18.38,75.87z"/>
	<path class="st0" d="M19.92,75.95c0.07-0.07,0.12-0.12,0.15-0.15c0,0.07,0.15,0.15,0.3,0.15c0.15,0,0.22,0.07,0.22,0
		c0,0,0.08,0.07,0.08,0.22c0.07,0.07,0.15,0.15,0.22,0.07c0.07,0,0.15-0.07,0.15-0.07c0-0.07,0.07-0.07,0.15-0.07
		c0.07,0,0.14,0,0.14-0.15c0-0.07,0.15-0.3,0.22-0.07c0,0.14,0.15,0.37,0.15,0.37h0.08h0.07c0.07-0.07,0.15-0.3,0.22-0.51l0.07-0.22
		c0.07-0.22,0.07-0.44,0-0.44c-0.15-0.07-0.22,0-0.22,0.08c0,0.07-0.22,0.29-0.3,0.07c-0.07-0.22-0.15-0.44-0.22-0.51h-0.08h-0.07
		c0,0.07-0.07,0.37-0.15,0.59l-0.07,0.36c0,0.22-0.15,0.22-0.22,0l-0.07-0.22c-0.15-0.22-0.22-0.44-0.3-0.52h-0.07
		c-0.08,0-0.22,0.22-0.37,0.44l-0.22,0.29c-0.15,0.22-0.22,0.37-0.15,0.44C19.7,76.17,19.85,76.09,19.92,75.95 M20.36,75.5
		c0.07,0,0.07,0.15,0,0.15c-0.08-0.07-0.08-0.15-0.08-0.22C20.36,75.43,20.36,75.43,20.36,75.5"/>
	<path class="st0" d="M17.49,77.64c0.07,0.07,0.07,0.15,0.15,0.15c0,0,0.21,0.15,0.21,0.29c0,0.07-0.15,0.37-0.36,0.44l-0.22-0.15
		c-0.15,0-0.22-0.15-0.22-0.37c-0.15-0.67,0.37-0.81,0.37-0.81c0.22,0,0.37-0.15,0.37-0.22c0-0.07-0.22-0.07-0.45,0
		c0,0-0.73,0.3-0.59,1.1c0,0.3,0.15,0.51,0.37,0.59c0.37,0.22,0.96,0.07,0.96,0.07l0.07-0.07v-0.59v-0.59h-0.07h-0.37
		C17.64,77.49,17.49,77.56,17.49,77.64"/>
	<path class="st0" d="M18.74,76.9c0,0-0.07,0.3-0.07,0.51v0.73c0,0.22,0.07,0.44,0.07,0.44v0.07h0.07h0.52
		c0.22-0.07,0.36-0.14,0.36-0.22c0-0.07-0.07-0.15-0.21-0.07c-0.07,0-0.44-0.07-0.44-0.15c0-0.08,0.15-0.3,0.29-0.3
		c0.15,0,0.3-0.07,0.3-0.15c0-0.07-0.15-0.15-0.3-0.15c-0.15,0-0.29-0.08-0.29-0.15c0-0.15,0.29-0.37,0.37-0.37
		c0.15,0,0.22-0.07,0.22-0.15c0-0.07-0.22-0.15-0.37-0.15C19.04,76.9,18.81,76.9,18.74,76.9"/>
	<path class="st0" d="M20.21,76.83c-0.07,0-0.15,0.22-0.15,0.51v0.52v0.51c0,0.07,0.3,0.15,0.52,0.15c0.22,0,0.37,0,0.37-0.07
		c0.07-0.15-0.08-0.22-0.15-0.22c-0.15,0-0.44-0.22-0.44-0.51v-0.37C20.36,77.05,20.29,76.83,20.21,76.83"/>
	<path class="st0" d="M21.61,78.52c0.07,0,0.15-0.22,0.15-0.51V77.2c0-0.22-0.15-0.3-0.22-0.3c-0.08,0-0.15,0-0.15,0.3v0.88
		C21.46,78.3,21.54,78.52,21.61,78.52"/>
	<path class="st0" d="M17.93,80.29c-0.22,0.07-0.37,0-0.37,0c-0.29-0.07-0.51-0.07-0.51,0c-0.07,0.15,0.15,0.3,0.37,0.37
		c0,0,0.29,0.07,0.59-0.07c0.15-0.07,0.22-0.15,0.29-0.3c0.08-0.36-0.36-0.51-0.59-0.59c-0.22-0.07-0.44-0.15-0.44-0.3
		c0.15-0.15,0.36-0.07,0.36-0.07c0.22,0,0.45-0.08,0.51-0.15c0-0.07-0.22-0.22-0.44-0.22c0,0-0.36-0.08-0.66,0.22
		c-0.07,0.07-0.07,0.15-0.07,0.29c0,0.3,0.37,0.37,0.59,0.51c0.37,0.08,0.44,0.15,0.37,0.22V80.29z"/>
	<path class="st0" d="M19.16,79.36c-0.03,0.15-0.05,0.33-0.05,0.48v0.07c0,0.29,0.07,0.51,0.14,0.51c0.07,0,0.15-0.22,0.15-0.51
		v-0.07c0-0.16-0.02-0.36-0.06-0.51c0.25-0.01,0.42-0.02,0.42-0.15c0-0.07-0.22-0.15-0.44-0.15h-0.15c-0.22,0-0.44,0.07-0.44,0.15
		c0,0.07,0.07,0.22,0.3,0.22L19.16,79.36z"/>
	<path class="st0" d="M20.51,79.04c-0.44,0.37-0.36,0.88-0.36,0.88c0,0.22,0.07,0.44,0.15,0.44c0.07,0,0.15-0.22,0.22-0.44
		c0,0-0.15-0.44,0.15-0.67c0.15-0.07,0.22-0.07,0.3-0.07c0.15,0,0.22,0.07,0.29,0.15l0.07,0.07c0,0-0.15,0.07-0.37,0.07
		c-0.22,0-0.37,0.07-0.37,0.15c0,0.07,0.15,0.15,0.37,0.15c0.22,0,0.37,0,0.37-0.08c0-0.15,0-0.07,0.07,0.08
		c0,0.15,0,0.44,0.07,0.44c0.15,0,0.3,0.22,0.37,0c0,0,0-0.66-0.29-1.1c-0.15-0.15-0.3-0.22-0.52-0.29
		C20.81,78.82,20.66,78.89,20.51,79.04"/>
	<path class="st0" d="M18.45,80.8c-0.07,0.08-0.22,0.22-0.3,0.36c-0.15,0.08-0.44,0.3-0.59,0.15c-0.07-0.07-0.22-0.22-0.29-0.29
		H17.2v0.07c-0.08,0.07-0.08,0.29-0.08,0.59v0.59c0,0.29,0.08,0.44,0.15,0.44c0.07,0,0.15-0.08,0.15-0.3c0-0.15,0.08-0.67,0.15-0.59
		c0,0.07,0.07,0.15,0.15,0.15h0.08c0.07,0,0.15-0.07,0.22-0.15c0-0.08,0.29-0.15,0.22,0.07v0.44c0,0.22,0.07,0.37,0.15,0.37
		c0.07,0,0.14-0.22,0.14-0.44l0.07-0.81v-0.59h-0.07L18.45,80.8z"/>
	<path class="st0" d="M19.48,81.76c0.07,0,0.22,0,0.3-0.07c0-0.07-0.08-0.22-0.22-0.22c-0.15-0.07-0.22-0.07-0.3,0v-0.15
		c0-0.07,0.22-0.29,0.37-0.29c0.22,0,0.37-0.07,0.37-0.15s-0.22-0.15-0.44-0.15c-0.22-0.07-0.44,0-0.44,0
		c-0.08,0-0.15,0.3-0.15,0.52l-0.15,0.81v0.59l0.07,0.07h0.36c0.22,0,0.37-0.07,0.37-0.15s-0.07-0.15-0.15-0.15
		c-0.08,0-0.36-0.15-0.3-0.22C19.18,82.05,19.33,81.68,19.48,81.76"/>
	<path class="st0" d="M20.95,81.24c-0.07,0-0.15,0.07-0.15,0.15c0,0.07-0.15,0.37-0.22,0.22c0-0.22-0.08-0.37-0.15-0.44h-0.07h-0.07
		c0,0.07-0.15,0.29-0.15,0.51l-0.15,0.44c-0.07,0.22-0.07,0.44,0,0.44c0.15,0.08,0.22,0,0.22-0.07c0.07-0.15,0.22-0.36,0.22-0.22
		c0.07,0.22,0.15,0.44,0.22,0.51h0.08h0.07c0-0.07,0.07-0.3,0.15-0.59l0.07-0.51C21.1,81.46,21.1,81.24,20.95,81.24"/>
	<path class="st0" d="M21.91,81.83c-0.07-0.07-0.22-0.15-0.22-0.22c-0.08-0.15,0-0.15,0-0.15c0.22-0.15,0.37-0.3,0.37-0.37
		c0-0.07-0.22-0.07-0.45,0c0,0-0.36,0.15-0.29,0.59c0.07,0.22,0.29,0.37,0.44,0.45c0.22,0.15,0.22,0.15,0.15,0.22
		c-0.07,0.22-0.22,0.15-0.22,0.15c-0.22-0.07-0.44-0.07-0.52,0c0,0.07,0.15,0.15,0.37,0.29c0,0,0.44,0.08,0.67-0.29
		C22.35,82.2,22.06,81.98,21.91,81.83"/>
	<path class="st0" d="M47.51,73.44c-0.07-0.15-0.3,0-0.44,0.07c-0.15,0-0.59-0.22-0.51,0l0.73,1.84c0.08,0.22,0.15,0.37,0.3,0.3
		c0.15-0.08,0.22-0.3,0.15-0.45L47.51,73.44z"/>
	<path class="st0" d="M4.32,72.12l2.35-2.36l0.07-0.22l0.22,0.15c0.15,0.07,0.22,0.22,0.59,0.22c0.29-0.07,0.59-0.15,0.73-0.22
		c0.37-0.15,0.44-0.15,0.59,0.07l0.66,0.74c0.51,0.88,1.03,1.84,1.47,2.28l0.9,0.96c-1.44,0.13-2.45,0.07-2.45,0.07
		c-0.07,0-0.22,0.07-0.22,0.15c-0.08,0-0.15,0.15-0.15,0.22c0,0,0.37,3.45,0.22,5.22c-0.15,1.69-0.29,3.39-0.29,5.08
		c0,0.66-0.22,2.28,0.59,2.06c0.95-0.3,1.91-0.52,2.94-0.52c0.66-0.07,1.4,0.07,2.13,0.29c0.44,0.15,0.59,0.59,1.03,0.59
		c0.44-0.07,1.1-0.59,1.54-0.66c0.44-0.07,1.11,0,1.62,0h0.66c0.88,0,1.92,0.15,2.65,0.15c0.22-0.08,0.59-0.08,0.88-0.08
		c0.15-0.07,0.22-0.07,0.3-0.07c0.44-0.15,0.88-0.29,0.96-0.73c0.15-0.73,0-1.62,0-2.43c0-1.11-0.03-2.19-0.05-3.28
		c0.4,0.19,1.08,0.57,1.63,1.18c0.93,1,1.73,1.55,3.26,1.55c0.71,0.04,1.29,0.04,1.72,0.04c0.39,0,0.69,0,0.81,0.03l0.06,0.01
		l0.09-0.04c0.05,0.25,0.06,0.43,0,0.5c-0.16,0.21-0.56,0.37-0.94,0.53c-0.57,0.24-1.16,0.49-1.3,0.98c-0.08,0.28,0,0.59,0.25,0.94
		c0.22,0.28,0.46,0.4,0.71,0.39c0.06,0,0.12-0.02,0.17-0.04c0.03,0.06,0.06,0.12,0.11,0.18c0.21,0.26,0.58,0.39,1.1,0.39
		c0.11,0,0.21-0.01,0.34-0.02c0.27-0.01,0.55-0.06,0.82-0.12c0.55,0,1.21-0.29,1.74-0.35c0.44-0.07,0.95-0.07,1.4-0.15
		c0.3-0.08,0.96-0.3,1.11-0.51c-0.15,0-0.37-0.15-0.51-0.15c0.15-0.07,0.29-0.14,0.44-0.22c-0.15-0.07-0.36-0.07-0.59-0.07
		c0.44,0,1.18-0.07,1.47-0.3c-0.29-0.15-0.66-0.29-1.03-0.22c0.3-0.22,0.66-0.15,0.96-0.29c-0.37-0.07-0.73-0.07-1.03-0.37
		c-0.17-0.1-0.28-0.25-0.39-0.38l0.05,0.01c0.42,0.15,0.93,0.34,1.7,0.34c0.08,0,0.17,0,0.26,0c0.62,0,1.09-0.07,1.47-0.12
		c0.37-0.05,0.66-0.09,0.97-0.05c-0.31,0.54-0.26,1.15-0.26,1.18c0.01,0.13,0.12,0.23,0.25,0.23h0.02
		c-0.09,0.14-0.15,0.28-0.14,0.43c0.04,0.49,0.65,0.67,0.85,0.73c0.43,0.13,0.8,0.18,1.13,0.18c0.46,0,0.84-0.1,1.19-0.21
		c1.27-0.02,2.54-0.06,3.86,0c0.88,0,1.69,0.07,2.57,0.22c0.67,0.15,1.54,0.59,2.28,0.59c-0.51-0.44-1.02-0.52-1.61-0.59
		c0.81,0,1.61,0.22,2.43,0.22c-0.3-0.51-1.1-0.66-1.69-0.59c0.44-0.07,0.81-0.15,1.25-0.15c-0.37-0.29-0.81-0.36-1.25-0.36
		c0.29,0,0.59-0.07,0.81-0.07c-0.56-0.2-1.14-0.36-1.73-0.49c0.61-0.11,1.19-0.22,1.8-0.22c0.6,0,1.23,0.13,1.91,0.27
		c0.81,0.16,1.7,0.34,2.7,0.34c0.19,0,0.37-0.01,0.57-0.02c0.05,0,0.07-0.04,0.11-0.06c-0.09,0.44,0.07,0.78,0.09,0.8
		c0.03,0.06,0.09,0.1,0.15,0.12l0.07,0.01l0.03-0.01c-0.11,0.07-0.15,0.22-0.09,0.34c0.13,0.26,0.43,0.86,1.41,0.86h0.11
		c0.83,0.44,2.54,0.08,3.26,0.02c0.3-0.08,1.25-0.3,1.47-0.15c-0.3-0.15-0.66-0.22-0.88-0.37h0.81c-0.14-0.15-0.36-0.29-0.51-0.36
		c0.45-0.08,0.96-0.08,1.25-0.37c-0.14-0.22-0.44-0.37-0.73-0.37c0.45-0.22,1.11-0.36,0.3-0.81c-0.29-0.16-0.57-0.21-0.82-0.2
		c0.26-0.15,0.52-0.35,0.69-0.73c0.31-0.66-0.1-1.25-0.47-1.77c-0.27-0.39-0.54-0.75-0.54-1.13c0-1-0.3-1.82-0.31-1.86
		c-0.02-0.07-0.08-0.12-0.15-0.14c0.13-0.29,0.22-0.59,0.07-0.96c-0.19-0.51-0.99-1.07-2.11-1.85c-0.86-0.6-1.83-1.27-2.59-2
		c-1.27-1.22-1.12-3.64-1.01-4.56c0.3,0.35,0.62,0.73,0.95,1.14c0.86,1.06,1.84,2.27,2.88,3.13c0.86,0.72,1.87,1.09,2.83,1.09
		c0.96,0,1.86-0.36,2.53-1.07c1.46-1.56,1.65-4.97-2.65-9.44c-1.31-1.35-1.54-2.71-1.51-3.61c0.05-1.26,0.59-2.12,0.84-2.35
		c0.29-0.26,0.62-0.26,0.73-0.16c0.11,0.1,0.03,0.31-0.08,0.48c-0.5,0.68-0.37,1.02-0.13,1.52c0.07,0.15,0.16,0.32,0.24,0.56
		c0.25,0.67,0.15,0.99,0.15,0.99c-0.04,0.12,0,0.26,0.12,0.32c0.12,0.06,0.26,0.03,0.33-0.07l0.44-0.64
		c0.05,0.16,0.09,0.27,0.09,0.27c0.07,0.37,0.15,0.44-0.08,0.88c-0.14,0.44,0,0.44,0.08,0.73c0.07,0.29,0.81,0.66,0.81,0.66
		s-0.07-0.59-0.15-1.03c0-0.42,0.66-0.57,0.72-0.59c0,0.02,0.03,0.05,0.09,0.15c0.22,0.3,0.44,0.44,0.81,0.59l0.07,0.04
		c0.03,0.06,0.08,0.1,0.14,0.12c0.14,0.05,0.28-0.02,0.32-0.16c0.09-0.24-0.1-0.41-0.23-0.53c-0.16-0.15-0.34-0.32-0.34-0.65
		c0-0.66-0.29-1.83-1.07-2.34c-0.12-0.08-0.11-0.32-0.07-0.7c0.07-0.81,0.16-2.03-2.02-2.36c-1.24-0.17-2.41,0.48-3.13,1.78
		c-0.98,1.76-1.06,4.61,0.98,7.03c3.16,3.75,3.7,6.22,2.83,6.99c-0.63,0.56-2.13,0.22-3.55-1.3c-0.77-0.8-1.58-1.78-2.37-2.72
		c-1.39-1.68-2.83-3.42-4.22-4.37c-1.84-1.23-4.34-1.46-6.64-1.49c0.88-0.27,1.07-0.93,1.08-0.96c0.02-0.1-0.03-0.19-0.11-0.25
		c0.12,0,0.24,0,0.37,0c2.74,0.08,3.1-0.55,3.13-0.81c0.02-0.14-0.08-0.29-0.22-0.31c-0.15-0.02-0.27,0.06-0.28,0.2
		c0,0-0.29,0.47-2.62,0.41c-2.72-0.07-4.95,0.22-4.97,0.22c-0.14,0.02-0.24,0.15-0.22,0.29c0.02,0.13,0.13,0.22,0.25,0.22l0.04,0
		c0.02-0.01,1.87-0.24,4.23-0.23c-0.04,0.03-0.08,0.07-0.1,0.13c-0.01,0.03-0.21,0.69-1.36,0.69c-1.34-0.07-2.8,0.21-2.86,0.22
		c-0.05,0.01-0.07,0.04-0.11,0.08c-0.01-0.24-0.08-0.46-0.14-0.67c-0.07-0.19-0.13-0.38-0.12-0.47c0.05-0.09,0.36-0.34,0.54-0.48
		c0.15-0.12,0.28-0.22,0.39-0.33c0.08-0.11,0.27-0.24,0.44-0.35c0.07-0.05,0.13-0.1,0.2-0.16c0.05,0.05,0.11,0.1,0.19,0.1l0.04,0
		c0.01,0,1.37-0.21,5.46-0.07c2.21,0.12,3.61-0.11,4.17-0.66c0.22-0.24,0.22-0.45,0.22-0.49c-0.01-0.14-0.14-0.26-0.27-0.25
		c-0.14,0.01-0.25,0.12-0.24,0.26c0,0.01-0.22,0.83-3.86,0.64c-3.18-0.11-4.71-0.01-5.28,0.04c0.07-0.25,0.04-0.44,0.01-0.57
		c-0.03-0.16-0.05-0.25,0.09-0.45l0.07-0.06c0.05,0.04,0.11,0.08,0.18,0.08l0.06-0.01c1.24-0.32,2.44-0.26,4.25-0.17
		c1.43,0.07,3.19,0.16,5.63,0.1c3.52-0.08,3.56-1.73,3.56-1.8l-0.03-0.07c2.28-0.42,2.38-1.69,2.38-1.76
		c0.01-0.14-0.1-0.25-0.24-0.26c-0.14-0.01-0.26,0.1-0.27,0.24c0,0.01-0.13,1.18-2.71,1.38c-2.66,0.25-5.23,0.13-7.29,0.03
		c-2.11-0.1-3.8-0.18-4.84,0.15l0.01-0.02c0.04-0.08,0.09-0.15,0.15-0.23c0.19-0.3,0.4-0.63,0.45-0.98
		c0.14-0.04,1.68-0.33,10.58,0.01c0.07,0,0.15,0,0.22,0c4.33,0,5.75-2.09,5.81-2.18c0.07-0.12,0.04-0.27-0.07-0.35
		c-0.05-0.04-0.11-0.04-0.16-0.04c1.84-0.37,3.2-0.83,3.63-1.3c0.13-0.15,0.19-0.31,0.17-0.47c-0.04-0.43-0.4-0.64-1.07-0.64
		c-0.61,0-1.48,0.15-2.59,0.34c-1.72,0.3-4.06,0.72-6.59,0.72c-1.2,0-2.34-0.09-3.42-0.27c-1.79-0.29-3.43-0.72-5.01-1.15
		c-2.55-0.67-4.96-1.31-7.74-1.31c-1.89,0-3.78,0.3-5.76,0.91c-1.05,0.31-1.71,1.06-1.65,1.85c0.07,0.86,0.92,1.48,2.29,1.67
		c0.34,0.04,0.66,0.01,0.97-0.04l0.02,0.01c0.02,0.01,0.36,0.18,0.67,0.61c0.15,0.42,0.36,0.65,0.44,1.15c0,0.52-0.08,0.88-0.3,1.33
		c-0.37,0.81-1.03,1.18-1.69,1.69c-0.15,0.08-0.4,0.21-0.67,0.36c-0.05,0.02-0.09,0.05-0.13,0.06l-0.03,0.04
		c-0.57,0.34-1.19,0.84-1.28,1.5c-0.1-0.04-0.21-0.09-0.31-0.13c-1.1-0.44-0.66-1.25-1.4-1.84c-0.4-0.32-0.88-0.66-1.33-1.02
		c0.02-0.24,0.04-0.49,0.04-0.75c0-4.4-3.74-7.97-8.35-7.97c-4.56,0-8.27,3.58-8.27,7.97c0,4.06,3.21,7.41,7.33,7.86
		c0.02,0.07,0.03,0.15,0.03,0.22c-0.66-0.49-1.53-0.2-2.25-0.28c-1.03-0.07-2.36-0.37-3.31-0.81c-0.96-0.52-1.92-1.47-2.65-2.28
		c-0.22-0.22-0.74-1.25-1.1-1.18c-0.05,0.01-0.09,0.03-0.13,0.05c0.01-0.23,0-0.47,0.02-0.7c0.1-1.84-0.39-3.21-1.35-3.76
		c-0.61-0.35-1.35-0.31-1.96,0.11c-0.71,0.47-1.38,1.57-1.17,3.24c1.02,7.29,6.98,14.4,7.89,15.45c-0.04,0.01-0.1,0.03-0.12,0.04
		c-0.3-0.29-0.96-0.59-2.58-0.29c-0.25,0-0.51,0.05-0.76,0.06c-0.07-0.08-0.17-0.19-0.35-0.36l-0.81-0.88
		c-0.44-0.44-0.96-1.4-1.4-2.21l-0.59-1.4c-0.45-0.66-1.11-0.22-1.47-0.07c-0.15,0.07-0.37,0.15-0.51,0.15
		c-0.22,0-0.3-0.07-0.44-0.15c-0.3-0.15-0.66-0.37-1.03,0.07l-2.2,2.87c-0.04,0.07-0.11,0.27,0,0.37
		C4.03,72.12,4.47,71.97,4.32,72.12 M67.11,61.86c0,0.06,0.02,0.12,0.02,0.18c0,0.19,0.04,0.34,0.1,0.47
		c-0.07-0.09-0.14-0.17-0.14-0.26C67.08,62.18,67.1,62.03,67.11,61.86 M15.21,85.66c-0.3,0.15-0.52-0.07-0.73-0.15
		c-0.3-0.07-0.59-0.07-0.81-0.15c-0.37-0.07-0.74-0.07-1.11-0.07c-0.36,0-0.74,0.07-1.1,0.07c-0.44,0.07-0.59,0.07-1.03,0.22
		c-0.22,0.07-0.44,0.15-0.66,0.15v-0.07c0-0.29,0.66-0.52,0.88-0.59c0.37-0.22,0.89-0.44,1.33-0.44c0.22,0,0.37,0.08,0.59,0.08
		c0.52,0,1.11,0.15,1.69,0.29C14.4,85.07,15.8,85.36,15.21,85.66 M23.08,85.44c-0.95-0.22-1.91-0.22-2.87-0.22h-0.66
		c-0.88-0.08-1.91-0.08-2.65,0.29c-0.22,0.15-0.51,0.22-0.81,0.15c-0.15,0-0.22-0.07-0.22-0.15c0.07-0.15,0.96-0.51,1.1-0.59
		c0.66-0.22,1.4-0.51,2.06-0.44h0.51c1.11,0.15,2.5,0.3,3.02,0.37c0,0.07,0,0.07,0.07,0.15l0.44,0.37l0.08,0.07H23.08z M23.67,77.19
		v7.87l-0.29-0.29l-0.22-0.15v-0.07v-7.51c-0.08-0.07-0.08-0.22-0.08-0.37V76.6v-0.29c0-0.22-0.15-0.96,0-1.1
		c0.08-0.07,0.15-0.07,0.22-0.07h0.07C23.96,75.43,23.67,76.75,23.67,77.19 M45.99,85.05c-0.18,0.02-0.37,0.04-0.57,0.06
		c-0.39,0.05-0.72,0.18-1.05,0.3c-0.67,0.25-1.31,0.48-2.37,0.15c-0.38-0.11-0.49-0.23-0.49-0.28c-0.01-0.15,0.42-0.5,0.88-0.72
		c0.13-0.06,0.19-0.21,0.13-0.34c-0.06-0.12-0.21-0.19-0.34-0.12c-0.16,0.07-0.54,0.27-0.82,0.54l0.01-0.03
		c-0.01-0.01-0.06-0.71,0.33-1.1c0.24-0.17,1.23-0.24,1.95-0.28c1.2-0.07,1.9-0.13,2.16-0.44c0.13-0.18,0.24-0.49,0.39-0.87
		c0.31-0.83,0.77-2.09,1.7-2.83c0.05-0.04,0.09-0.1,0.1-0.17c0.01-0.07-0.01-0.14-0.06-0.19c-0.84-1.05-2.14-5.61-2.16-5.65
		l-0.04-0.05c1.63-0.44,2.79-0.66,3.12-0.72l-0.37,0.2c-0.06,0.03-0.08,0.09-0.07,0.15c0.01,0.06,0.07,0.1,0.13,0.1
		c0.01,0,0.4,0.01,0.65,0.3c0.19,0.21,0.25,0.54,0.17,0.95C49.15,75.47,49,76.95,49,76.97c-0.01,0.06,0.04,0.13,0.11,0.14h0.02
		c0.06,0,0.12-0.04,0.13-0.1c0-0.01,0.36-1.42,0.95-1.75c0.51-0.23,0.75-0.32,0.83-0.35c0.07,0.09,0.15,0.18,0.23,0.26
		c-0.38,0.51-1.33,1.91-1.06,3.33c0.05,0.24,0.11,0.45,0.16,0.65c0.09,0.34,0.16,0.61,0.17,0.85c-0.39,0.11-1.41,0.43-1.82,0.84
		c-0.1,0.1-0.1,0.26,0,0.36c0.05,0.04,0.12,0.07,0.18,0.07c0.07,0,0.13-0.03,0.18-0.07c0.25-0.25,0.91-0.5,1.37-0.64
		c-0.12,0.31-0.39,0.63-0.91,1.08l-0.12,0.11c-1.41,1.27-1.94,1.74-2.02,2.65C47.4,84.86,46.99,84.95,45.99,85.05 M49.12,72.17
		l0.01-0.05l0.03,0.03L49.12,72.17z M58.26,84.79l-0.01,0.04c-0.04-0.1-0.13-0.18-0.24-0.16c-1.16,0.09-2.16-0.12-3.13-0.31
		c-0.7-0.14-1.36-0.27-2.01-0.27c-0.66,0-1.28,0.11-1.93,0.23c-0.76,0.14-1.55,0.28-2.56,0.28l-0.06,0.02c-0.05,0-0.1,0-0.15,0.01
		c-0.12,0.01-0.21,0.04-0.3,0.07c0.02-0.08,0.04-0.17,0.04-0.27c0.06-0.69,0.51-1.09,1.84-2.29l0.12-0.11c1.38-1.18,1.3-1.78,0.97-3
		c-0.04-0.19-0.1-0.4-0.16-0.62c-0.21-1.15,0.58-2.37,0.94-2.87c1.35,1.25,3.01,1.96,4.35,2.5c0.62,0.26,1.16,0.47,1.55,0.71
		c1.52,0.86,3.24,4.12,3.18,4.69C59.4,83.68,58.58,84.14,58.26,84.79 M47.24,56.91c0.92-0.35,2.63-0.27,4.78-0.17
		c2.08,0.1,4.67,0.22,7.36-0.04c0.11-0.01,0.21-0.02,0.31-0.03c0,0.05-0.14,1.22-3.06,1.29c-2.42,0.06-4.18-0.03-5.59-0.1
		c-1.64-0.09-2.8-0.14-3.96,0.08c0.1-0.13,0.17-0.31,0.17-0.54c0-0.21-0.02-0.36-0.05-0.49L47.24,56.91z M64,52.7
		c-0.01,0.02-1.35,1.94-5.37,1.94h-0.21c-8.17-0.31-10.22-0.09-10.65-0.01c-0.19-0.45-0.71-0.87-1.16-0.94
		c-0.14-0.03-0.27,0.07-0.29,0.21c-0.02,0.14,0.07,0.27,0.21,0.3c0.36,0.06,0.82,0.5,0.82,0.78c0,0.27-0.21,0.59-0.4,0.87
		c-0.05,0.08-0.11,0.17-0.17,0.28c-0.17,0.39-0.12,0.61-0.08,0.83c0.03,0.12,0.06,0.25,0.06,0.45c0,0.21-0.09,0.29-0.31,0.45
		c-0.12,0.1-0.25,0.2-0.39,0.36c-0.28,0.4-0.22,0.66-0.18,0.86c0.02,0.12,0.04,0.2,0.02,0.28c-0.05,0.1-0.27,0.25-0.45,0.37
		c-0.21,0.15-0.43,0.3-0.53,0.44c-0.07,0.07-0.19,0.17-0.32,0.27c-0.39,0.31-0.63,0.51-0.71,0.76c-0.05,0.26,0.04,0.51,0.13,0.77
		c0.06,0.17,0.1,0.34,0.1,0.5c-0.93-0.12-2.02-0.31-3.03-0.51c0.15-0.09,0.16-0.26-0.11-0.56c-0.07,0-1.4-0.81-1.18-0.88
		c0.37,0,2.43,0.37,2.43-0.15c0-0.3-0.44-0.37-0.66-0.44c-0.29-0.07-0.66,0.07-0.95-0.07c0,0-0.52-0.3-0.3-0.37
		c0.45,0,2.28,0.51,1.99-0.52c-0.66-0.15-1.84,0-2.36-0.51c0.15-0.22,1.18-0.07,1.47-0.07c0.07,0,1.92-0.08,1.69-0.3
		c-0.22-0.29-2.43-0.81-2.43-0.59c0-0.59,1.77-0.22,1.62-1.03c-0.15-0.59-1.33-0.15-1.69-0.52c0.36,0,2.57-0.29,2.06-1.17
		c-0.07-0.15-0.59-0.22-0.81-0.22c-0.59-0.15-1.18-0.15-1.84-0.22c0.36-0.22,3.01-0.3,2.94-0.67c-0.07-0.07-0.74-0.36-0.88-0.44
		c-0.59-0.44-1.03-0.88-1.77-1.03l-0.19-0.12c0.77-0.24,1.67-0.44,2.84-0.44c1.42,0,3,0.29,4.85,0.88c1.93,0.61,4.56,0.93,7.61,0.93
		c3.04,0,6.29-0.33,8.72-0.82C64.08,52.63,64.03,52.65,64,52.7 M36.51,52.44c-1.09-0.15-1.8-0.61-1.84-1.21
		c-0.04-0.55,0.47-1.07,1.3-1.32c1.93-0.6,3.77-0.89,5.61-0.89c2.72,0,5.09,0.63,7.61,1.3c1.6,0.42,3.25,0.86,5.06,1.15
		c1.1,0.19,2.28,0.29,3.51,0.29c2.57,0,4.95-0.42,6.68-0.72c1.08-0.19,1.93-0.34,2.5-0.34c0.36,0,0.55,0.06,0.57,0.19
		c-0.06,0.67-5.7,2.04-12.08,2.04c-3,0-5.58-0.31-7.46-0.91c-1.89-0.6-3.54-0.9-5.01-0.9c-1.82,0-3.06,0.46-4.06,0.83
		C38.04,52.26,37.29,52.53,36.51,52.44 M38.18,53.08c-0.11-0.11-0.2-0.19-0.29-0.26c0.25-0.06,0.49-0.14,0.74-0.23
		C38.44,52.74,38.28,52.91,38.18,53.08 M37.48,61.41l0,0.03l-0.05-0.05L37.48,61.41z M37.43,62.04c0.14-0.22,1.03,1.1,1.17,0.96
		c0.17-0.11-0.34-0.72-0.85-1.27c0.64,0.15,4.57,1.11,6.94,1.31c0.59,0.04,1.29,0.03,2.03,0.03c2.6-0.02,5.84-0.04,7.99,1.4
		c1.32,0.91,2.74,2.62,4.11,4.28c0.79,0.95,1.61,1.94,2.39,2.75c1.03,1.1,2.22,1.71,3.16,1.71c0.43,0,0.8-0.12,1.1-0.39
		c1.03-0.91,0.84-3.41-2.77-7.7c-1.88-2.23-1.82-4.85-0.93-6.45c0.61-1.1,1.59-1.67,2.61-1.52c1.71,0.26,1.64,1.01,1.58,1.81
		c-0.04,0.45-0.07,0.9,0.3,1.16c0.24,0.16,0.42,0.43,0.56,0.72c-0.15-0.04-0.35-0.05-0.56-0.12c-0.44-0.15-0.67-0.81-0.67-0.81
		l0.08,0.3c0.07,0.36,0.51,1.1,0.66,1.25c0.15,0.22-0.22,0.51-0.22,0.51s-0.07-0.15-0.37-0.59c-0.37-0.37-0.73-1.4-0.73-1.4
		s-0.15,0.22,0,0.66c0.04,0.12,0.09,0.27,0.13,0.42c-0.08,0-0.15,0.03-0.2,0.1l-0.07,0.1c-0.03-0.15-0.08-0.3-0.14-0.48
		c-0.09-0.26-0.19-0.46-0.26-0.62c-0.2-0.4-0.26-0.52,0.09-1c0.36-0.54,0.24-0.95,0-1.16c-0.35-0.3-0.97-0.23-1.41,0.16
		c-0.36,0.32-0.96,1.34-1.01,2.71c-0.03,1.01,0.22,2.52,1.65,3.99c4.05,4.21,3.96,7.34,2.65,8.73c-1.15,1.23-3.15,1.21-4.65-0.06
		c-1-0.84-1.96-2.02-2.81-3.06c-0.85-1.05-1.61-1.98-2.28-2.42c-0.37-0.32-0.96-0.47-1.32-0.65c-0.37-0.22-0.73-0.88-1.25-0.88
		c-0.52,0-0.96,0.81-0.96,1.25c0.51,0.15,1.03-0.15,1.62,0c0.74,0.15,1.03,0.22,1.47,0.73l0.14-0.05c0.25,0.16,0.52,0.41,0.8,0.71
		l-0.02,0.02c0,0.02-0.01,0.1-0.04,0.24c-0.53,0.59-1.94,2.15-2.94,3.2c-0.69,0.73-0.65,0.81-0.62,0.87
		c0.02,0.04,0.06,0.07,0.11,0.07c0.13,0,0.43-0.2,0.54-0.29l2.01-0.94c-0.48,0.61-1.45,1.93-1.33,2.43c0.03,0.1,0.12,0.16,0.23,0.16
		c0.36,0,1.15-0.6,1.59-0.96c-0.22,0.5-0.49,1.25-0.24,1.43l0.1,0.03c0.26,0,0.78-0.51,1.02-0.76c0.23,0.53,0.47,1.26,0.39,1.43
		c-0.01,0.03-0.04,0.09,0,0.15l0.09,0.04c0.15,0,0.67-0.49,1.09-0.91l0.02-0.04c0.57,0.45,1.18,0.87,1.74,1.27
		c0.92,0.64,1.78,1.24,1.92,1.61c0.1,0.25,0.02,0.42-0.16,0.76c-0.19,0.35-0.41,0.78-0.37,1.43c0,1.11,0.14,1.45,0.17,1.51
		c0.05,0.09,0.14,0.14,0.22,0.14l0.11-0.02c0.12-0.06,0.18-0.21,0.12-0.34c0,0-0.12-0.3-0.12-1.3c-0.02-0.36,0.05-0.62,0.16-0.86
		c0.08,0.29,0.21,0.84,0.21,1.47c0,0.54,0.33,1.01,0.62,1.42c0.39,0.54,0.6,0.9,0.43,1.26c-0.13,0.3-0.36,0.43-0.62,0.58
		c-0.23,0.13-0.49,0.28-0.68,0.56c-0.27,0.4-1.41,1.53-2.5,1.81c-1.21,0.3-1.46-0.19-1.6-0.49l-0.02-0.04
		c-0.05-0.09-0.14-0.12-0.25-0.1l1.25-0.66c0.12-0.07,0.17-0.22,0.1-0.35c-0.07-0.12-0.22-0.17-0.35-0.1l-0.96,0.51
		c-0.01-0.12,0-0.26,0.08-0.42c0.17-0.35,0.68-0.82,2.16-1.1c0.19-0.03,0.31-0.17,0.35-0.38c0.16-0.99-1.94-4.39-3.43-5.23
		c-0.42-0.25-0.98-0.48-1.62-0.74c-1.33-0.55-3.03-1.26-4.34-2.54l-0.04-0.08l-0.07-0.02c-0.42-0.44-0.81-0.94-1.12-1.53
		c-1.82-3.48-4.46-3.52-4.56-3.52c-0.14,0-0.26,0.11-0.26,0.26c0,0.14,0.11,0.25,0.25,0.26c0.07,0,1.42,0.05,2.78,1.41
		c-0.22,0.04-1.44,0.26-3.19,0.73l0.41-1.45l-0.89,0.22v1.35c-0.52,0.15-1.08,0.31-1.67,0.5l0.42-1.41l-0.67,0.29l-0.21,1.26
		c-0.46,0.15-0.94,0.31-1.42,0.49l0.52-1.38l-0.88,0.45l-0.15,1.1h0.06c-0.05,0.02-0.1,0.04-0.15,0.05
		c-0.42,0.16-0.84,0.28-1.24,0.37l0.51-1.16l-0.88,0.15l-0.39,1.17c-0.37,0.06-0.72,0.11-1.06,0.13l0.64-1.15l-0.81-0.07l-0.46,1.24
		c-0.67,0.01-1.23-0.05-1.63-0.1l0.32-0.04l0.96-1.25l-0.81-0.22l-0.77,1.46C35.16,74.49,35,74.45,35,74.45
		c-0.07-0.01-0.14-0.01-0.19,0.02c-0.06-0.21-0.14-0.44-0.23-0.66l0.57-0.95l-0.59-0.3l-0.28,0.55c-0.44-0.96-0.94-1.8-0.97-1.86
		c-0.08-0.12-0.23-0.16-0.35-0.09s-0.16,0.23-0.09,0.35c0.02,0.03,1.58,2.68,1.58,3.84c0,0.46-0.09,1.04-0.18,1.65
		c-0.15,1.01-0.3,2.05-0.11,2.83c0.06,0.25,0.15,0.53,0.25,0.83c0.31,0.98,0.69,2.19,0.13,2.67c-0.11,0.09-0.12,0.25-0.04,0.36
		c0.05,0.06,0.12,0.1,0.2,0.1c0.06,0,0.11-0.02,0.16-0.06c0.83-0.69,0.39-2.09,0.03-3.21c-0.09-0.28-0.18-0.55-0.24-0.8
		c-0.17-0.67-0.02-1.66,0.12-2.63c0.02-0.13,0.03-0.26,0.05-0.39l0.01,0.01l0.04,0.04c0.34,0.27,0.59,0.47,0.65,0.77
		c0.02,0.1,0,0.21-0.01,0.31c-0.03,0.2-0.07,0.47,0.32,0.6c0.37,0.15,0.59,0.22,0.59,0.22l0.05,0.01c0.05,0,0.1-0.04,0.12-0.09
		c0.02-0.07-0.01-0.14-0.09-0.17c0,0-0.22-0.07-0.59-0.22c-0.18-0.06-0.17-0.11-0.14-0.31v0l0.03,0.04
		c0.06,0.04,0.14,0.02,0.18-0.04c0.12-0.19,0.25-0.4,0.36-0.55l0.07,0.01c0.11,0.28,0.3,0.62,0.59,0.74
		c0.37,0.15,0.59,0.22,0.59,0.22l0.04,0.01c0.05,0,0.11-0.04,0.12-0.09c0.02-0.07-0.01-0.15-0.08-0.17c0,0-0.21-0.07-0.56-0.21
		c0.06,0,0.13-0.02,0.18-0.07c0.01-0.02,0.1-0.1,0.24-0.31l0.08,0.04c0.09,0.04,0.19,0.07,0.29,0.1c0.46,0.2,0.8,0.53,0.81,0.54
		c0.05,0.05,0.11,0.08,0.17,0.08c0.07,0,0.14-0.02,0.18-0.08c0.1-0.1,0.1-0.26,0-0.36c-0.01-0.01-0.27-0.26-0.66-0.49
		c0.08-0.11,0.04-0.33,0.04-0.73c0.16,0,0.29,0.04,0.42,0.09c0.4,0.29,0.95,0.66,0.98,0.68l0.07,0.02l0.09-0.03
		c0.04-0.04,0.06-0.1,0.03-0.16c-0.07-0.15-0.14-0.31-0.2-0.46h0.01c0.08,0,0.23,0.04,0.37,0.06c0.16,0.11,0.33,0.22,0.53,0.29
		c0.07,0.03,0.26,0.11,0.37-0.01c0.12-0.14,0.01-0.36-0.16-0.71c-0.05-0.09-0.1-0.2-0.15-0.31c0.03-0.05,0.1-0.13,0.18-0.21
		c0.04,0.05,0.07,0.1,0.1,0.14c0.21,0.3,0.39,0.56,0.61,0.41c0.19-0.2,0.04-0.6-0.11-0.9c0.42,0.14,0.9,0.29,0.98,0.33
		c0.07,0.03,0.17,0,0.2-0.08c0.03-0.06,0.06-0.15-0.39-0.67c0.04-0.1,0.05-0.17,0.14-0.25l0.08,0.05c0.35,0.07,0.79,0.22,0.79,0.22
		l0.04,0.01L43.57,75c0.03-0.04,0.04-0.11,0.01-0.15l-0.31-0.52l0.77,0.06l0.1-0.04l0.04-0.1v-0.42l0.65-0.26l0.07-0.07l0.07-0.22
		l0-0.02c0.1-0.03,0.2-0.06,0.3-0.08l-0.01,0.06c0.05,0.18,1.22,4.24,2.11,5.62c-0.91,0.83-1.37,2.06-1.67,2.89
		c-0.12,0.34-0.24,0.63-0.31,0.73c-0.16,0.15-1.14,0.21-1.79,0.25c-1.01,0.06-1.68,0.13-2.08,0.32c-0.52-0.15-0.95-0.1-1.47-0.03
		c-0.37,0.05-0.8,0.11-1.41,0.11c-0.83,0.04-1.33-0.14-1.77-0.3c-0.31-0.11-0.6-0.21-0.94-0.21c-0.14,0-0.26,0.11-0.26,0.26
		c0,0.1,0.07,0.17,0.15,0.21c-0.23,0.08-0.45,0.24-0.6,0.44l-0.09-0.02c-0.14,0.03-0.22,0.17-0.19,0.31
		c0.07,0.32-0.01,0.65-0.25,0.96c-0.48,0.64-1.49,1.11-2.47,1.16c-0.68,0.06-0.92-0.09-1-0.19c-0.1-0.12-0.06-0.29-0.06-0.29
		c0.04-0.12-0.02-0.26-0.15-0.31c-0.12-0.05-0.25-0.01-0.32,0.11c-0.02,0.04-0.11,0.16-0.19,0.16c-0.05,0-0.16-0.06-0.26-0.18
		c-0.14-0.2-0.2-0.37-0.16-0.49c0.07-0.26,0.57-0.47,1.01-0.65c0.44-0.19,0.9-0.37,1.14-0.68c0.63-0.79-1.16-4.17-1.97-5.58
		c-0.06-0.12-0.22-0.17-0.35-0.1c-0.12,0.07-0.16,0.23-0.1,0.35c0.88,1.56,1.57,3.07,1.88,4.02c-0.38-0.05-1.16,0.01-2.54-0.06
		c-1.37,0-2.03-0.45-2.9-1.39c-0.74-0.81-1.67-1.26-2.01-1.4c-0.01-0.31-0.02-0.61-0.02-0.92c0-0.74,0.15-1.62,0.07-2.36l-0.15-0.96
		c-0.07-0.44-0.37-0.59-0.81-0.73c-0.07-0.07-0.15-0.07-0.3-0.15c0,0-0.07,0-0.15-0.08c-0.06-0.03-0.38-0.16-0.77-0.29l0.04-0.06
		c0.13-0.26,0.17-0.34,0.54-0.34c1.19-0.08,1.56-0.57,1.59-0.63c0.03-0.04,0.04-0.09,0.04-0.14c0.6,0.73,1.16,1.49,1.28,2.42
		c0.07,0.96,0.59,2.65,1.03,2.73c0.44,0.15-0.22-1.84-0.22-1.84s0.66,1.54,0.96,1.69c0.29,0.07-0.44-1.77-0.3-1.62
		c0.22,0.15,0.52,0.15,0.52,0.73c0,0.51,0.59,1.91,0.96,2.06c0.22,0.09,0.17-0.57,0.11-1.12c-0.11-0.38-0.11-0.71-0.11-0.71
		s0.06,0.33,0.11,0.71c0.04,0.16,0.1,0.32,0.19,0.46c0.3,0.44,0.66,1.1,0.96,1.03c0.36,0,0-0.52-0.08-1.25
		c-0.07-0.74,0.44-0.59-0.07-2.28c-0.44-1.69-1.69-3.39-2.35-4.56c-0.59-1.18-0.22-3.24-0.22-3.24s0.44,0.88,0.81,1.25
		c0.37,0.37,0.29,0.66,0.44,0.81c0.15,0.22,1.32,0.74,1.03,0.51c-0.29-0.15-0.29-0.95-0.29-1.69c0-0.73-1.18-1.4-1.18-1.4
		s0.51,0.15,1.55,0.22c0.96,0.07,1.98,1.17,1.54,0.51c-0.37-0.66-0.88-2.43-0.88-2.43s0.3,0.51,0.81,1.03
		c0.59,0.51,1.1,0.95,2.06,0.88c0.88-0.07-0.59-0.52-0.96-0.81c-0.37-0.29-0.29-1.62-0.29-1.62l0.66,1.11c0,0,0.59,0.66,1.18,0.66
		c0.66,0.07,0.07-0.51-0.15-0.81c-0.29-0.22-0.29-1.47-0.29-1.47s1.18,0.51,2.2,0.29c0.96-0.29-0.07-0.51-0.96-0.66
		c-0.96-0.15-0.81-1.92-0.81-1.92s0.44,0.22,0.66,0.45c0.22,0.22,0.29,0.36,0.66,0.81c0.29,0.44,0.59,0.3,1.92,0.44
		c1.25,0.07,0.73,0.37,1.18,0.37c0.44,0.07-0.07-0.66-0.07-0.66s0.07-0.15,0.22-0.22c0.15,0,0-0.15-0.07-0.44
		C37.95,62.77,37.21,62.33,37.43,62.04 M44.07,73.51c0.21-0.06,0.42-0.12,0.62-0.18l0,0.01l-0.56,0.22l0.01-0.05L44.07,73.51z
		 M43.17,74.69c-0.09-0.03-0.19-0.05-0.29-0.07c0.07-0.01,0.15-0.03,0.2-0.07L43.17,74.69z M42.39,75.41
		c-0.08-0.02-0.17-0.06-0.26-0.09c0.05-0.01,0.08-0.05,0.12-0.08C42.29,75.3,42.34,75.36,42.39,75.41 M41.56,76.08
		c-0.06-0.07-0.16-0.21-0.23-0.31c-0.04-0.06-0.08-0.11-0.12-0.17c0.05-0.04,0.09-0.07,0.12-0.11
		C41.47,75.74,41.56,75.98,41.56,76.08 M40.75,76.43c0.06,0.12,0.13,0.27,0.17,0.37l-0.05-0.01c-0.09-0.04-0.17-0.08-0.25-0.12
		c0.08-0.07,0.11-0.16,0.11-0.26L40.75,76.43z M39.62,76.83l-0.1-0.07l0.06-0.01L39.62,76.83z M36.92,77.65
		c-0.08-0.09-0.14-0.2-0.19-0.31h0.26l-0.04,0.04C36.88,77.46,36.88,77.56,36.92,77.65 M36.03,77.31c-0.06,0.09-0.14,0.21-0.22,0.35
		c0-0.06,0-0.12-0.01-0.19c-0.01-0.06-0.04-0.12-0.06-0.17C35.84,77.33,35.93,77.32,36.03,77.31 M34.91,74.96
		c0.04,0.01,0.07,0.02,0.13,0.03l-0.1,0.1L34.91,74.96z M34.93,76.48l-0.06,0.03l0.01-0.11L34.93,76.48z M27.72,55.49
		c0.66,0.44,1.25,0.73,1.47,1.4c0.22,0.59-1.03-0.3-1.84-0.81c-0.74-0.44-1.84-1.99-1.84-1.99S27.13,54.98,27.72,55.49 M26.18,52.69
		c0,0,0.51-0.22,0.81,0.22c0.22,0.44,0.37,0.96,0.37,0.96L26.18,52.69z M26.32,66.08c-0.08-1.25,0-1.91,0-1.91l0.29-0.37
		c0,0,0.37,2.5,0.29,2.87c-0.07,0.37-0.88,1.62-0.88,1.62S26.39,67.34,26.32,66.08 M26.1,61.45c-1.03-0.74-1.47-2.21-1.47-2.43
		c0,0,1.61,1.69,2.06,1.91c0.38,0.13,0.71,0.26,1.03,0.95c0.05,0.11,0.1,0.23,0.15,0.37l0.05,0.11c0.37,0.92,0.91,1.07,0.91,1.07
		l0.22,0.66c0,0-0.88-0.15-1.25-1.03c-0.06-0.19-0.14-0.35-0.22-0.48c-0.1-0.15-0.21-0.27-0.35-0.39
		C26.95,61.98,26.6,61.79,26.1,61.45 M25.46,65.57c-0.34-0.56-1.2-1.47-1.2-1.47s0.51-0.22,0.51-0.37
		C24.77,63.73,25.22,64.95,25.46,65.57c0.07,0.11,0.12,0.22,0.13,0.3C25.63,66.03,25.57,65.87,25.46,65.57 M26.84,57.7
		c-1.03-0.37-1.69-1.03-1.69-1.03s1.84,0.37,2.43,1.03c0.51,0.67,0.81,1.77,0.81,1.77S27.79,58.14,26.84,57.7 M28.16,60.5
		c0,0-0.29-0.07-0.88-0.52c-0.51-0.36-0.66-0.66-0.96-0.88c-0.3-0.22-0.88-0.73-0.88-0.73c0.15,0.07,1.03,0.14,1.33,0.51
		c0.36,0.37,0.51,0.74,0.95,1.1C28.16,60.35,28.16,60.5,28.16,60.5 M29.26,64.98c0,0-0.15,0.81-0.03,1.34
		c0.15,0.27,0.23,0.43,0.11,0.28c-0.05-0.08-0.08-0.17-0.11-0.28c-0.29-0.51-0.85-1.42-0.85-1.42L29.26,64.98z M28.97,62.48
		c-0.16-0.23-0.24-0.48-0.28-0.71c-0.05-0.29-0.04-0.52-0.03-0.65c0.01-0.07,0.01-0.11,0.01-0.11l0.02,0.07
		c0.04,0.09,0.12,0.24,0.27,0.45c0.06,0.09,0.14,0.18,0.22,0.29c0.3,0.44,0.59,0.88,0.96,1.11C30.44,63.22,29.49,63.07,28.97,62.48
		 M29.12,58.73c-0.51-0.52-0.59-1.11-0.59-1.11c0,0.08,1.08,0.44,1.61,1.52l0.01,0.02c0.11,0.21,0.2,0.37,0.28,0.51
		c0.35,0.61,0.45,0.66,0.45,0.66s-0.24-0.16-0.61-0.41c-0.13-0.08-0.27-0.17-0.43-0.28l-0.07-0.04
		C29.19,59.24,29.56,59.24,29.12,58.73 M28.6,54.98c0,0,0.81,0.07,1.03,0.51C29.86,55.86,28.6,54.98,28.6,54.98 M24.26,51.23
		c0,0,0.81,0,1.03,0.44c0.29,0.44,0.44,0.59,0.44,0.59L24.26,51.23z M24.42,63.22c0.01,0.08,0.01,0.16-0.01,0.22
		c-0.12,0.41-0.5,0.03-0.66-0.14c-0.04-0.05-0.07-0.08-0.07-0.08c0-0.51-0.07-1.69-0.07-1.69S24.34,62.6,24.42,63.22 M23.89,64.83
		c0.22,0.15,0.51,1.62,0.22,2.43l-0.37,0.88c0,0,0.15-1.77-0.08-2.43c-0.29-0.66-0.44-1.54-0.44-1.54
		C23.23,64.32,23.75,64.69,23.89,64.83 M23.24,70.68l-0.01-0.02l-0.01-0.01h0.02L23.24,70.68z M23.79,72.52
		c-0.16,0.11-0.48,0.26-1.07,0.31c-0.66,0-0.82,0.33-0.97,0.62c-0.02,0.04-0.05,0.09-0.07,0.13c-0.13,0.24-0.34,0.49-0.92,0.66
		c-0.07,0.02-0.14,0.05-0.22,0.06c-0.2,0.04-0.38,0.06-0.54,0.06c-0.4,0-0.63-0.12-0.77-0.26c-0.2-0.2-0.22-0.46-0.22-0.5
		c0-0.07-0.03-0.13-0.07-0.18c-0.04-0.04-0.09-0.07-0.15-0.08h-0.03c-0.08,0-0.15,0.05-0.19,0.11l-0.05,0.09
		c0,0.02-0.11,0.44-0.42,0.44c-0.09,0-0.2-0.03-0.31-0.09c-0.2-0.1-0.29-0.21-0.32-0.33l-0.03-0.07c-0.01-0.29,0.38-0.79,1.46-1.35
		c1.33-0.73,3.43-1,4.01-1.06L23.79,72.52z M30.22,63.81c0,0,0.66-0.45,1.03,0.29c0.44,0.74-0.15,1.62-0.15,1.62v-0.73
		C31.1,64.32,30.22,63.81,30.22,63.81 M33.31,63.66c0,0-1.03,0.07-1.54-0.66c-0.52-0.66,0.22-1.03,0.22-1.03s0,1.03,0.66,1.33
		L33.31,63.66z M33.23,61.38c0,0,0.45-0.07,1.03,0.52c0.59,0.59,0.73,1.03,0.73,1.03L33.23,61.38z M36.48,62.33
		c0.37,0.44,1.03,0.88,1.03,0.88s-0.45,0.07-1.03-0.29c-0.44-0.38-0.87-1.06-1-1.27C35.62,61.79,36.16,61.95,36.48,62.33
		 M32.87,59.39c0.3,0.09,1.13,0.49,1.8,0.89l0.02,0.01c0.48,0.29,0.87,0.57,0.91,0.72c-0.37,0.15-1.47,0.15-1.85-0.07
		c-0.36-0.22-0.66-0.96-1.17-1.18L32.87,59.39z M31.55,57.62c0,0,0.66,0.96,0.96,1.32c0.22,0.3-1.26-0.96-1.26-0.96L31.55,57.62z
		 M32.21,61.6c-0.22,0.15-1.25,0-1.76-0.29c-0.29-0.18-0.51-0.45-0.66-0.68c-0.15-0.24-0.22-0.42-0.22-0.42
		c0.03,0.05,0.2,0.11,0.42,0.17c0.41,0.12,0.97,0.26,1.12,0.41C31.33,60.93,32.51,61.52,32.21,61.6 M15.32,55.93
		c0-4.11,3.48-7.47,7.76-7.47c4.32,0,7.84,3.35,7.84,7.47c0,0.12-0.01,0.22-0.02,0.34c-0.2-0.18-0.38-0.37-0.53-0.55
		c-0.59-0.66-0.3-0.74-0.81-1.03c-0.51-0.29-0.37-0.07-1.18-0.44c-0.73-0.3-0.3-0.51-0.44-1.03c-0.15-0.52-0.37-0.44-0.66-0.81
		c-0.3-0.36-0.22-0.22-0.59-0.44c-0.45-0.29-0.37-0.15-0.66-0.37c-0.3-0.15-0.22-0.22-0.51-0.51c-0.3-0.29-0.74-0.29-1.33-0.15
		c-0.59,0.15-0.15,0.07-0.81-0.22c-0.66-0.22-0.66,0-1.11,0c-0.37,0-0.51,0.07-1.1,0.07c-0.66,0-0.29,0-0.74,0.22
		c-0.44,0.15-0.59,0.3-0.88,0.51c-0.3,0.22-0.66,0.15-0.73,0.22c-0.15,0.07-0.44,0.44-0.44,0.44s-0.66-0.29-0.88,0
		c-0.15,0.3-0.07,0.96-0.07,1.55c-0.07,0.59,0,0.51,0,0.88c-0.07,0.44-0.07,0.37-0.37,0.88c-0.29,0.59,0.3,1.03,0.22,1.32
		c-0.07,0.37,0.07,0.67,0.07,0.88c-0.07,0.22,0,0.59,0.15,0.96c0.07,0.44,0,0.22,0,0.73c0.07,0.52,0.29,0.22,0.81,0.66
		c0.44,0.37,0,0.3,0.22,0.67c0.29,0.37,0.22,0.29,0.51,0.66c0.3,0.44,0.15,0.37,0.3,0.74c0.15,0.37,0.66,0.59,0.88,0.66
		c0,0,0.55,0.01,1.31,0.4C17.99,62.49,15.32,59.5,15.32,55.93 M18.82,53.43l-0.37,0.07c0,0-0.07-0.37-0.3-0.37
		c-0.22,0-0.37-0.07-0.37-0.07s-0.07-0.81,0.22-0.66C18.3,52.55,18.82,53.43,18.82,53.43 M21.68,61.67
		c-0.44,0.37-0.51,1.1-1.47,0.22c-0.96-0.81-0.59-1.03-0.81-1.25c-0.15-0.15-0.59-0.73-0.59-1.11c0-0.29-0.15-0.88-0.15-1.25
		c0-0.37-0.44-0.59-0.36-0.88c0.05-0.21,0.26-0.47,0.37-0.73l0.22,0.22c0.3,0.15,0.3,0.22,0.3,0.22s-0.22,0.51,0,0.59
		c0.15,0.15,0.22-0.08,0.36-0.3c0.22-0.22,0-0.36,0.22-0.51c0.15-0.22,0-0.59,0-0.88l-1.18-0.29v0.05
		c-0.04-0.07-0.07-0.13-0.07-0.13s0.44-0.07,0.14-0.59c-0.29-0.44-0.22-0.44-0.14-0.59c0-0.22-0.15-0.22,0.07-0.44
		c0.37-0.22,0.3-0.66,0.59-0.88c0.36-0.3,0.73-0.07,0.66,0.44c0.15-0.29,0.22-0.74,0.51-0.95c0.15,0.44,0,1.02,0.15,1.47
		c0.3-0.66,0.59-1.54,1.18-2.06c0,0.44-0.15,0.81-0.22,1.18c0.07-0.22,0.22-0.37,0.36-0.52c0,0.3,0,0.67,0.07,0.96
		c0.45-0.22,0.73-0.81,1.32-0.88c0.3,0.59-0.07,1.1-0.59,1.54c0.29-0.22,0.96,0.22,1.03,0.44c0.08,0.22-0.14,0.59-0.14,0.88
		c-0.07,0.59,0.07,1.62,0.29,2.13c0.15,0.29-1.03-0.59-1.1-0.29c0,0.29,0.36,0.81,0.44,1.1c0,0.3,0.3,0.66,0.15,0.81
		c-0.15,0.15-0.59-0.96-0.73-0.51c-0.08,0.51,0.51,1.03,0.51,1.03s-0.36,0-0.21,0.44c0.21,0.44,0.36,0.81,0.36,0.81
		s-0.66-0.88-0.81-0.66c-0.15,0.29,0,0.59-0.15,0.73C22.06,61.45,22.13,61.31,21.68,61.67 M8.77,58.33
		c-0.19-1.43,0.36-2.36,0.94-2.74c0.46-0.31,0.98-0.34,1.43-0.09c0.79,0.45,1.19,1.64,1.1,3.29c-0.51,8.04,4.21,13.52,4.26,13.58
		c0.09,0.11,0.25,0.12,0.36,0.03c0.1-0.09,0.12-0.25,0.02-0.36c-0.04-0.04-3.25-3.8-4.01-9.62c0.19,0.57,0.39,1.03,0.43,1.18
		c0.15,0.37,0.15,1.18,0.44,1.47c0.81,0.81,0.44-0.73,0.59-1.1c0.59-1.47,0.81,1.32,1.03,1.77c0.73-1.91,1.32,0,1.25,1.1
		c0-0.3,0.44-1.62,0.73-1.62c0.22-0.07,0.37,1.4,0.37,1.47c0.44-0.44,0.29-1.32,0.74-1.84c0.37,0.51,0.29,1.47,0.66,2.06
		c0.52-0.29,0.22-1.99,0.22-2.5c0.37,0.51,0.51,1.25,0.73,1.91c0.07,0.22,0.07,0.74,0.37,0.74c0.44,0.07,0.29-0.52,0.29-0.74
		c-0.07-0.52-0.37-2.28,0.51-1.18c0.4,0.46,0.5,1.2,0.67,1.83c-0.03,0.17-0.05,0.33-0.09,0.53c-0.15,1.32,0.37,1.25,0.52,2.21
		c0.12,0.51,0.35,0.74,0.56,0.85c-0.11,0.01-0.34,0.04-0.65,0.08c-0.7-0.8-1.2-1.85-1.27-1.99v0.15c0-0.22-0.15-0.29-0.3-0.29
		c-0.22,0-0.29,0.07-0.29,0.29c0,0.15,0.01,0.24,1.54,1.9c-0.38,0.06-0.83,0.14-1.31,0.26l-0.02-0.02c-0.66-0.51-1.4-2.35-1.4-2.35
		c-0.15-0.15-0.88-0.07-0.81,0.07c-0.5-0.5,0.85,1.43,1.91,2.39c-0.59,0.16-1.2,0.37-1.71,0.65c-1.13,0.59-1.73,1.22-1.73,1.81
		l0.02,0.11l-0.01,0.01h-0.07c0,0-0.07,0.02-0.17,0.06l0-0.01C16.58,73.56,9.85,66.03,8.77,58.33 M12.56,74.32
		c0.3,0,0.66-0.07,0.95-0.14c1.47-0.22,1.99,0.07,2.06,0.22c0,0.07,0,0.07,0.08,0.15c-0.08,1.76,0.22,7.21,0.22,7.21l0.22-7.21
		l-0.15,0.07c-0.27,0,0.29-0.29,1.33-0.45c0.07,0.06,0.15,0.11,0.24,0.17c0.48,0.24,0.91,0.13,1.15-0.11
		c0.2,0.34,0.6,0.64,1.32,0.64c0.2,0,0.41-0.02,0.65-0.07c0.41-0.1,0.71-0.22,0.92-0.37c0.33,0.1,0.66,0.21,1.01,0.34
		c0,0.29,0.07,7.43,0.07,9.64c-0.66-0.15-2.06-0.37-3.09-0.44h-0.22c-1.18-0.07-2.65,0.37-3.39,0.74v-1.55c0-0.07,0-0.96-0.07-0.96
		c-0.07,0-0.22,0.88-0.22,0.96v1.62c-0.29-0.22-1.84-0.51-3.09-0.51c-0.22-0.08-0.36-0.08-0.59-0.08c-1.25,0-1.33,0.37-2.06,0.81
		c-0.15,0.07-0.29,0.14-0.29,0c0-0.96,0.15-3.02,0.36-5.52V78.3c0-1.4-0.15-3.09-0.15-3.83C10.28,74.47,11.31,74.47,12.56,74.32"/>
	<path class="st0" d="M41.4,39.08c0.59,0.22,1.4,0.22,2.2,0.22c1.03,0,1.99-0.07,2.06-0.07c0.22,0,0.44-0.29,0.37-0.52
		c0-0.22-0.3-0.37-0.52-0.37c0,0-0.96,0.15-1.99,0.15c-0.66,0-1.4-0.07-1.84-0.22c-0.3-0.07-0.51,0-0.59,0.22
		C41.04,38.79,41.19,39.01,41.4,39.08"/>
	<path class="st0" d="M28.16,35.99c0.59,0.22,1.4,0.22,2.13,0.22c1.1-0.07,1.99-0.07,2.06-0.07c0.3-0.07,0.52-0.29,0.44-0.59
		c0-0.22-0.29-0.37-0.51-0.29c0,0-1.03,0.07-2.06,0.07c-0.66,0-1.33-0.07-1.84-0.22c-0.22-0.07-0.44,0.07-0.51,0.3
		C27.79,35.63,27.87,35.92,28.16,35.99"/>
	<path class="st0" d="M6.68,36.8c1.1,0,1.1,0.15,2.13,0.15c1.11,0,1.11-0.07,2.28-0.07c0.96,0,0.96-0.08,1.99-0.08
		c1.03,0,1.03,0.08,2.06,0.08h1.99c0.22,0,0.59-0.22,0.59-0.44c0-0.22-0.37-0.37-0.59-0.37c-1.11,0-1.11-0.07-2.13-0.07
		c-1.11,0-1.11-0.07-2.21-0.07h-2.06H8.66c-0.96-0.07-0.96,0-1.99,0c-0.22,0-0.37,0.3-0.37,0.52C6.3,36.66,6.46,36.8,6.68,36.8"/>
	<path class="st0" d="M14.18,39.16c-1.03-0.07-1.03-0.22-1.99-0.22c-0.22,0-0.37,0.3-0.37,0.59c0,0.22,0.14,0.45,0.37,0.45
		c1.1,0,1.1-0.07,2.2-0.07c1.11,0,1.11,0.15,2.21,0.15h2.2c1.03,0,1.03-0.15,2.14-0.15c1.11,0,1.11,0.15,2.13,0.15h1.99
		c0.29,0,0.51-0.3,0.51-0.52c0-0.29-0.22-0.59-0.51-0.59c-1.11,0-1.11,0.07-2.14,0.07c-1.18,0-1.18,0.08-2.28,0.08
		c-1.11,0-1.11,0.07-2.13,0.07h-2.21H14.18z"/>
	<path class="st0" d="M21.54,42.03c-0.22,0-0.51,0.15-0.51,0.44c0,0.22,0.3,0.37,0.51,0.37c1.1,0,1.1-0.07,2.21-0.07h2.2h2.21h2.13
		c1.1,0,1.1,0.15,2.21,0.15c0.95,0,0.95-0.15,1.98-0.15c0.22,0,0.37-0.07,0.37-0.29c0-0.3-0.15-0.44-0.37-0.44
		c-1.1,0-1.1-0.15-2.21-0.15c-1.11,0-1.11,0.07-2.21,0.07c-1.1,0-1.1,0.07-2.21,0.07h-2.14c-1.1,0-1.1-0.15-2.21-0.15
		C22.57,41.95,22.57,42.03,21.54,42.03"/>
	<path class="st0" d="M47.66,43.13c1.54,0,1.54-0.07,3.09-0.07c0.22,0,0.44-0.15,0.44-0.37c0-0.3-0.22-0.44-0.44-0.44
		c-1.54,0-1.54-0.07-3.09-0.07c-0.3,0-0.44,0.21-0.44,0.51C47.22,42.91,47.36,43.13,47.66,43.13"/>
	<path class="st0" d="M11.02,42.39c-0.3,0-0.44,0.22-0.44,0.44c0,0.22,0.15,0.51,0.44,0.51c1.54,0,1.54-0.07,3.01-0.07
		c0.3,0,0.51-0.22,0.51-0.44c0-0.22-0.22-0.44-0.51-0.44H11.02z"/>
	<path class="st0" d="M48.76,39.67c1.1,0,1.1-0.07,2.28-0.07c1.1,0,1.1,0.07,2.28,0.07c1.1,0,1.1-0.07,2.13-0.07
		c1.18,0,1.18-0.07,2.36-0.07c1.1,0,1.1,0.29,2.28,0.29h2.13c1.03,0,1.03-0.29,1.99-0.29c0.22,0,0.51-0.07,0.51-0.3
		c0-0.29-0.3-0.51-0.51-0.51c-1.11,0-1.11,0.14-2.21,0.14h-2.28c-1.11,0-1.11-0.07-2.21-0.07h-2.28c-1.18,0-1.18,0.07-2.28,0.07
		h-2.21c-1.03-0.07-0.96-0.22-1.99-0.22c-0.22,0-0.51,0.3-0.51,0.59C48.25,39.45,48.54,39.67,48.76,39.67"/>
	<path class="st0" d="M61.13,44.31c-1.25,0-1.25-0.07-2.5-0.07c-1.25,0-1.25,0.14-2.5,0.14c-1.25,0-1.25,0.07-2.5,0.07
		c-1.18,0-1.18-0.15-2.35-0.15c-0.3,0-0.59,0.3-0.59,0.51c0,0.3,0.3,0.37,0.59,0.37c1.25,0,1.25,0.15,2.5,0.15
		c1.33,0,1.33-0.15,2.58-0.15c1.25,0,1.25,0.22,2.5,0.22c1.25,0,1.25-0.15,2.58-0.15c1.25,0,1.25,0.07,2.5,0.07
		c1.18,0,1.18,0.07,2.36,0.07c0.22,0,0.36-0.29,0.36-0.59c0-0.22-0.15-0.59-0.36-0.59c-1.33,0-1.33,0.29-2.58,0.29
		C62.45,44.52,62.45,44.31,61.13,44.31"/>
	<path class="st0" d="M2.64,88.49c0,5.47,3.07,8.25,9.12,8.25c16.41,0,22.25,0.14,25.41,2.96l0.35,0.31l0.34-0.32
		c3.05-2.84,9.61-2.95,25.41-2.95c0,0,0.32,0.04,0.84,0.04c1.06,0,3.12-0.17,4.9-1.31c2.18-1.39,3.3-3.74,3.3-6.98V29.96L2.64,29.89
		V88.49z M71.28,30.96v57.53c0,1.4-0.22,2.59-0.67,3.6c-0.87-0.27-0.94-0.47-1.98-0.54c-0.88-0.07-0.96,0.07-1.91,0.29
		c-0.15,0-0.22,0.15-0.22,0.37c0.07,0.15,0.15,0.29,0.37,0.22c1.03-0.22,0.95-0.37,1.98-0.3c0.85,0.06,0.83,0.25,1.48,0.49
		c-0.46,0.82-1.08,1.49-1.88,2.01c-1.56,0.99-3.39,1.14-4.35,1.14c-0.43,0-0.7-0.03-0.77-0.03c-15.62,0-22.39,0.11-25.84,2.92
		c-3.5-2.78-9.59-2.92-25.75-2.92c-2.98,0-5.09-0.68-6.41-2.07c0.75-0.14,0.77-0.14,1.48-0.29c0.81-0.07,0.67-0.15,1.47-0.15h1.4
		c0.74,0,0.74,0.07,1.47,0.07c0.15,0,0.37-0.15,0.37-0.29c0-0.15-0.22-0.37-0.37-0.37c-0.81,0-0.81,0.07-1.54,0H8.08
		c-0.74,0-0.74,0-1.47,0.14c-0.66,0.15-0.66,0.22-1.4,0.3c-0.09,0.05-0.17,0.09-0.23,0.15c-0.88-1.16-1.32-2.73-1.32-4.75v-4.83
		c0.06,0.05,0.16,0.06,0.3,0.01c0.96-0.29,0.88-0.37,1.91-0.44c0.96,0,0.88,0.15,1.77,0.29c0.22,0.08,0.3,0,0.37-0.22
		c0-0.15-0.07-0.29-0.22-0.37c-1.03-0.15-1.1-0.29-2.13-0.29c-0.96,0.07-1.03,0.22-1.92,0.44c-0.03,0.01-0.05,0.04-0.07,0.06V30.88
		L71.28,30.96z"/>
</g>
</svg>