<?xml version="1.0" encoding="utf-8"?>
<!-- Generator: Adobe Illustrator 28.0.0, SVG Export Plug-In . SVG Version: 6.00 Build 0)  -->
<svg version="1.1" id="Livello_1" xmlns="http://www.w3.org/2000/svg" xmlns:xlink="http://www.w3.org/1999/xlink" x="0px" y="0px"
	 viewBox="0 0 432.7 100" style="enable-background:new 0 0 432.7 100;" xml:space="preserve">
<style type="text/css">
	.st0{fill:#54575C;}
</style>
<g>
	<g>
		<path class="st0" d="M89.9,73c0.8,3.3,2.9,5.3,6,6.2c2.9,0.9,5.8,0.8,8.8,0.1c3.6-0.9,5.8-3.1,6.6-6.7c0.5-2.4,0.7-4.7,0.7-7.1
			c0-5.1,0-10.3,0-15.4v-2c0-5.7,0-11.5,0-17.2c0-1.1,0-1.1-1.1-1.2c-1.3,0-2.6,0-3.9,0c-1.9,0-1.7-0.2-1.7,1.6c0,11.5,0,23,0,34.5
			c0,1.4-0.1,2.8-0.3,4.2c-0.4,2.4-1.3,3.3-3.7,3.5c-0.3,0-0.7,0-1,0c-2.6-0.1-3.8-1.1-4.2-3.7c-0.4-2.2-0.4-4.3-0.4-6.5
			c0-10.7,0-21.3,0-32c0-0.4,0-0.8,0-1.2c0-0.4-0.2-0.5-0.6-0.5c-1.8,0-3.6,0-5.4,0c-0.4,0-0.6,0.2-0.6,0.6c0,0.2,0,0.4,0,0.6
			c0,11.7,0,23.4,0,35.1C89.1,68.4,89.4,70.7,89.9,73"/>
	</g>
	<g>
		<path class="st0" d="M190.6,79.3c4.5,0,9,0,13.5,0c1.8,0,3.5,0,5.3,0c1.5,0,1.4,0.2,1.4-1.5c0-0.9,0-1.9,0-2.8
			c0-1.5,0.1-1.4-1.4-1.4c-3.1,0-6.2,0-9.4,0c-0.4,0-0.8,0.1-1.4-0.2c0.3-0.6,0.6-1.2,0.9-1.8c1.4-2.7,2.9-5.4,4.3-8.2
			c2.5-4.8,4.7-9.7,6.2-14.9c1-3.6,1.5-7.3,0.9-11c-0.8-4.7-3.5-7.5-8.2-8.3c-1.3-0.2-2.6-0.2-4-0.1c-4.4,0.3-7.2,2.5-8.4,6.8
			c-0.8,3-0.9,6-0.8,9c0,0.6,0.3,0.8,0.9,0.8c1.5,0,3,0,4.5,0c1.2,0,1.2,0,1.2-1.2c-0.1-1.6-0.1-3.2,0.1-4.9c0.2-1.1,0.4-2.3,1-3.3
			c0.7-1.1,1.7-1.6,3-1.6c2,0,3.4,1.3,3.9,3.5c0.4,2,0.3,4-0.1,6c-0.8,4-2.4,7.7-4.1,11.4c-3.3,7.3-6.9,14.5-10.3,21.8
			c-0.2,0.5-0.6,0.9-0.5,1.5C189.7,79.3,190.1,79.3,190.6,79.3"/>
	</g>
	<g>
		<path class="st0" d="M140.7,37.2c-0.5,1.8-0.5,3.6-0.5,5.5c0,3.2,1,6,3.1,8.5c1.5,1.7,3,3.4,4.6,5c1.4,1.4,2.6,2.8,3.8,4.3
			c1.8,2.3,2.4,5,2,7.8c-0.4,3.1-2.4,5-5.4,5.2c-1.5,0.1-2.9-0.4-4.2-1.1c-0.8-0.4-1.5-0.9-2.6-1.5c0,2.1,0,3.9,0,5.7
			c0,0.7,0.3,1.1,0.8,1.4c2.7,1.6,5.7,2.1,8.8,1.5c4.4-0.8,7.1-3.6,8.5-7.7c1.6-5.1,1.1-10.1-2-14.6c-1.3-1.9-2.8-3.6-4.4-5.2
			c-1.7-1.7-3.4-3.5-4.9-5.4c-1.4-1.8-1.8-3.8-1.6-5.9c0.3-3.6,3.1-6.1,6.4-5.7c1.4,0.1,2.6,0.7,3.8,1.4c0.3,0.2,0.6,0.6,1.2,0.5
			c0-1.8,0-3.6,0-5.4c0-0.7-0.3-1.1-0.9-1.3c-1.9-0.9-3.9-1.3-6-1.3C146,29,142.1,32,140.7,37.2"/>
	</g>
	<g>
		<path class="st0" d="M177.7,52.2c-1.6-1.6-3.2-3.2-4.6-5c-1.6-1.9-2.1-4.1-1.9-6.6c0.3-2.8,2.3-5.1,5-5.4c1.5-0.2,2.9,0.2,4.2,0.8
			c0.7,0.3,1.3,0.7,2,1.1c0.2-0.3,0.2-0.6,0.2-0.9c0-1.5,0-3,0-4.5c0-0.8-0.3-1.1-1-1.4c-1.8-0.8-3.7-1.2-5.6-1.2
			c-4-0.1-7.3,1.4-9.6,4.9c-1.2,1.9-1.7,4.1-1.9,6.3c-0.3,4.2,0.5,8.1,3.5,11.3c1.4,1.5,2.8,3,4.2,4.5c1.4,1.5,2.8,3,4.1,4.6
			c1.7,2.2,2.2,4.6,1.9,7.3c-0.4,4.3-3.8,6.4-7.9,5.2c-1.2-0.4-2.3-0.9-3.3-1.6c-0.3-0.2-0.5-0.5-1-0.3c0,1.8,0,3.6,0,5.3
			c0,0.8,0.3,1.2,0.9,1.6c6.2,3.8,14.1,1.4,16.8-5.3c2.1-5,1.7-10.1-1.2-14.8C181.2,55.9,179.5,54,177.7,52.2"/>
	</g>
	<g>
		<path class="st0" d="M136.1,73.6c-2.8,0-5.6,0-8.3,0c-1.7,0-1.6,0.2-1.6-1.6c0-13.5,0-27.1,0-40.6c0-0.3,0-0.7,0-1
			c0-0.5-0.1-0.7-0.6-0.7c-1.8,0-3.7,0-5.5,0c-0.5,0-0.6,0.2-0.6,0.6c0,0.3,0,0.7,0,1v23.1v23.4c0,1.6,0,1.4,1.4,1.4
			c3.4,0,6.8,0,10.3,0c1.7,0,3.3,0,5,0c1,0,1,0,1-1c0-1.2,0-2.5,0-3.7C137,73.6,137,73.6,136.1,73.6"/>
	</g>
	<g>
		<path class="st0" d="M165.8,11.8c0.5,0,0.9,0,0.9-0.7c0-1.8,0-3.6,0-5.4v-1c0.5,0.2,0.6,0.6,0.7,0.9c0.9,1.7,1.8,3.5,2.6,5.3
			c0.4,0.8,0.9,1,1.7,1c0.7,0,0.9-0.3,0.9-0.9c0-3.2,0-6.5,0-9.7c0-0.7-0.3-0.8-0.9-0.8c-0.9,0-1,0-1,0.9c0,1.6,0,3.2,0,4.9
			c0,0.4,0.1,0.8-0.2,1.3c-0.4-0.3-0.5-0.8-0.7-1.1c-0.8-1.6-1.6-3.2-2.4-4.8c-0.6-1.1-0.6-1.1-1.9-1.1c-0.4,0-0.7,0.1-0.7,0.6
			c0,3.4,0,6.8,0,10.1C164.9,11.9,165.4,11.8,165.8,11.8"/>
	</g>
	<g>
		<path class="st0" d="M63.7,10.7c0,0.2,0,0.4,0,0.6c0,0.2,0.1,0.4,0.3,0.4c0.5,0.1,1,0.2,1.4-0.1c0.4-0.2,0.2-0.6,0.2-0.9
			c0-1,0-2,0-2.9V4.5c0.6,0.6,0.8,1.2,1,1.7c0.8,1.6,1.6,3.3,2.5,4.9c0.3,0.6,0.9,0.8,1.9,0.6c0.7-0.1,0.5-0.7,0.5-1.1
			c0-3.1,0-6.2,0-9.4c0-1,0-1-0.9-1c-0.9,0-1,0-1,1c0,1.8,0,3.6,0,5.4c0,0.2,0.2,0.5-0.3,0.6c-0.5-1.1-1.1-2.2-1.6-3.3
			C67.1,3,66.5,1.9,66,0.8c-0.2-0.5-1.3-0.7-1.9-0.5c-0.5,0.2-0.3,0.6-0.3,1C63.7,4.5,63.7,7.6,63.7,10.7"/>
	</g>
	<g>
		<path class="st0" d="M35.1,11c0,0,0.2,0,0.3-0.1c0,0.2,0.1,0.4,0.2,0.6c0.2,0.4,0.6,0.3,0.9,0.3c0.3,0,0.4-0.2,0.4-0.5
			c0-1.7,0-3.4,0-5.1c0-0.3-0.2-0.6-0.5-0.6c-0.9,0-1.9,0-2.8,0c-0.2,0-0.4,0.1-0.5,0.3c-0.3,0.9,0.1,1.5,1,1.6
			c0.3,0,0.6-0.1,0.9,0.2c-0.1,1.3-0.5,1.9-1.4,2.2c-0.9,0.3-1.8,0-2.4-0.8c-1-1.4-1-4.6,0.1-6c0.9-1.2,2.6-1.1,3.2,0.3
			c0.3,0.8,0.8,0.9,1.5,0.8c0.8,0,0.8-0.1,0.7-0.8c-0.4-1.6-1.2-2.8-2.9-3.1c-1.7-0.4-3.1,0.2-4.2,1.6c-0.6,0.9-1,1.9-1.1,3
			c-0.3,1.9-0.1,3.7,0.9,5.3C30.7,12.3,33.1,12.7,35.1,11"/>
	</g>
	<g>
		<path class="st0" d="M16.5,9.6c0,2.2,0,2.2,2.2,2.2c1.3,0,2.6,0,4,0c0.6,0,0.9-0.2,0.8-0.8c0-0.2,0-0.3,0-0.5
			c0-0.6-0.2-0.8-0.8-0.8c-0.8,0-1.5,0-2.3,0c-2,0-1.8,0.4-1.9-1.9c0-0.7,0.3-0.9,0.9-0.8c0.9,0,1.8,0,2.7,0C23,6.8,23,6.8,23,6
			c0-0.9,0-1-0.8-1.1c-0.9,0-1.9,0-2.8,0c-0.6,0-0.9-0.2-0.8-0.8c0-0.3,0-0.6,0-0.9c0-0.5,0.2-0.7,0.7-0.7c1,0,2,0,3,0
			c1.2,0,1.2,0,1.2-1.2c0-0.9,0-0.9-0.9-0.9c-1.6,0-3.2,0-4.9,0c-1.1,0-1.1,0-1.1,1c0,1.5,0,3.1,0,4.6C16.5,6,16.5,9.6,16.5,9.6z"/>
	</g>
	<g>
		<path class="st0" d="M152.8,6c0,1.7,0,3.3,0,5c0,0.4,0,0.8,0.5,0.8c2,0,3.9,0,5.9,0c0.4,0,0.5-0.2,0.6-0.6c0-0.2,0-0.5,0-0.8
			c0.1-0.6-0.2-0.9-0.8-0.8c-0.8,0-1.5,0-2.3,0c-2,0-2,0-1.9-2.1c0-0.5,0.3-0.7,0.8-0.7c1,0,2,0,2.9,0c0.8,0,0.8-0.4,0.8-1
			c0-0.5,0-1-0.8-1c-0.9,0-1.8,0-2.7,0c-1,0-1,0-1-1c0-0.1,0-0.3,0-0.4c0-1,0-1,1-1c0.9,0,1.8,0,2.7,0c1.2,0,1.2,0,1.2-1.2
			c0-0.6-0.1-0.9-0.8-0.9c-1.7,0-3.4,0-5.1,0c-0.7,0-0.9,0.2-0.9,0.9C152.8,2.8,152.8,4.4,152.8,6"/>
	</g>
	<g>
		<path class="st0" d="M83.2,9.6c-0.8,0-1.5,0-2.3,0c-2,0-1.8,0.5-1.8-2c0-0.7,0.3-0.9,0.9-0.8c0.9,0,1.9,0,2.8,0
			c0.7,0,0.7-0.4,0.7-0.9c0-0.5,0.1-1.1-0.7-1c-0.9,0-1.8,0-2.7,0c-1,0-1,0-1-1.1c0-0.1,0-0.3,0-0.4c0-0.9,0-0.9,1-0.9c1,0,2,0,3,0
			c0.9,0,0.9-0.1,0.9-1.1c0-1,0-1-0.9-1c-1.7,0-3.4,0-5.1,0c-0.7,0-0.9,0.2-0.9,0.9c0,1.6,0,3.2,0,4.9s0,3.2,0,4.9
			c0,0.4-0.1,0.8,0.5,0.8c2,0,3.9,0,5.9,0c0.3,0,0.5-0.2,0.5-0.5c0-0.3,0-0.5,0-0.8C84.1,9.9,83.8,9.6,83.2,9.6"/>
	</g>
	<g>
		<path class="st0" d="M184.5,9.6c-0.8,0-1.5,0-2.3,0c-2,0-1.8,0.5-1.8-2c0-0.7,0.3-0.9,0.9-0.8c0.8,0,1.5,0,2.3,0
			c1.2,0,1.2,0,1.2-0.9c0-1,0-1-1.2-1c-0.6,0-1.3,0-1.9,0c-1.3,0-1.3,0-1.2-1.3c0-0.1,0-0.3,0-0.4c0-0.5,0.2-0.8,0.8-0.8
			c0.9,0,1.9,0,2.8,0c1.2,0,1.2,0,1.2-1.2c0-0.9,0-0.9-0.9-0.9c-1.7,0-3.3,0-5,0c-0.7,0-0.9,0.2-0.9,0.9c0,1.6,0,3.2,0,4.7
			c0,1.7,0,3.3,0,5c0,0.6,0.2,0.9,0.8,0.9c1.8,0,3.7,0,5.5,0c0.5,0,0.7-0.2,0.7-0.7c0-0.2,0-0.4,0-0.6
			C185.3,9.9,185.1,9.6,184.5,9.6"/>
	</g>
	<g>
		<path class="st0" d="M109.9,6v5c0,0.4,0,0.8,0.5,0.8c2,0,3.9,0,5.9,0c0.4,0,0.5-0.2,0.5-0.6c0-0.3,0-0.5,0-0.8
			c0-0.6-0.2-0.9-0.8-0.8c-0.8,0-1.5,0-2.3,0c-2-0.1-1.8,0.5-1.8-2c0-0.6,0.2-0.9,0.8-0.8c0.9,0,1.7,0,2.6,0c1.1,0,1,0,1.1-1.1
			c0-0.7-0.2-0.9-0.9-0.9c-0.7,0-1.5,0-2.2,0c-1.4,0-1.4,0-1.4-1.4c0,0,0-0.1,0-0.1c-0.1-0.7,0.2-0.9,0.9-0.9c0.9,0,1.8,0,2.7,0
			c1.2,0,1.2,0,1.2-1.2c0-0.6-0.1-0.9-0.8-0.9c-1.7,0-3.4,0-5.1,0c-0.7,0-0.9,0.2-0.9,0.9C109.9,2.8,109.9,4.4,109.9,6"/>
	</g>
	<g>
		<path class="st0" d="M142.7,11.2c0.1,0.2,0.1,0.5,0.3,0.5c0.6,0.2,1.3,0.2,1.9,0.1c0.5-0.1,0.4-0.6,0.5-0.9
			c0.9-3.2,1.7-6.3,2.5-9.5c0.1-0.3,0.2-0.6,0.1-0.8c-0.2-0.2-0.4-0.1-0.6-0.1c-1.3,0-1.3,0-1.6,1.2c-0.4,1.8-0.9,3.6-1.4,5.3
			c-0.1,0.3-0.2,0.6-0.4,1.2c-0.6-2.2-1.1-4.2-1.6-6.1C142,0.3,142,0.3,140,0.4c0,0.1,0,0.2,0,0.3C140.9,4.2,141.8,7.7,142.7,11.2"
			/>
	</g>
	<g>
		<path class="st0" d="M97.8,84.9c-0.5,0-0.9-0.1-1.1,0.6c-0.1,0.4-0.2,0.7-0.3,1.1c-0.9,2.7-1.7,5.5-2.6,8.3
			c-0.4-0.5-0.5-0.9-0.6-1.3c-0.8-2.6-1.6-5.3-2.4-8c-0.2-0.7-0.6-0.8-1.1-0.7c-0.6,0.1-0.4,0.6-0.4,0.9c0,2.5,0,5,0,7.4
			c0,0.9,0,1.9,0,2.8c0,0.3-0.1,0.6,0.4,0.7c0.5,0,0.5-0.3,0.5-0.7c0-0.3,0-0.5,0-0.8c0-2.2,0-4.4,0-6.7c0-0.3-0.1-0.7,0-1.6
			c0.2,0.5,0.5,1.3,0.6,1.7c0.7,2.2,1.4,4.5,2.1,6.7c0.1,0.3,0.2,0.6,0.3,1c0.1,0.2,0.3,0.3,0.5,0.3c0.3,0,0.5-0.1,0.6-0.4
			c0.1-0.3,0.2-0.6,0.3-1c0.7-2.3,1.4-4.6,2.2-6.8c0.1-0.4,0.2-1.1,0.6-1.8v1.6c0,2.3,0,4.7,0,7.1c0,0.3,0,0.7,0.1,1
			c0,0.2,0.2,0.2,0.4,0.2c0.2,0,0.3-0.1,0.4-0.3c0-0.2,0-0.3,0-0.5c0-3.4,0-6.8,0-10.3C98.2,85.4,98.3,85,97.8,84.9"/>
	</g>
	<g>
		<path class="st0" d="M201.8,84.9c-0.7,0-0.5,0.5-0.5,0.9c0,1,0,2,0,2.9c0,1.8,0,4.1,0,6.1c-0.4-0.8-0.7-1.4-0.9-1.7
			c-1.4-2.5-2.7-4.9-4.1-7.4c-0.2-0.4-0.4-1-1.1-0.8c-0.7,0.2-0.4,0.8-0.4,1.2c0,2.7,0,5.4,0,8.1c0,0.6,0,1.2,0,1.8
			c0,0.3-0.1,0.7,0.4,0.8c0.6,0,0.5-0.5,0.5-0.8c0-0.3,0-0.5,0-0.8c0-2.3,0-4.5,0-6.8c0-0.3-0.1-0.9,0-1.4c0.2,0.3,0.5,0.9,0.7,1.1
			c1.4,2.5,2.8,5,4.1,7.5c0.2,0.3,0.3,0.6,0.5,0.9c0.2,0.4,0.6,0.3,0.9,0.3c0.3-0.1,0.3-0.4,0.3-0.6c0-0.4,0-0.8,0-1.1
			c0-3,0-6.1,0-9.1C202.2,85.5,202.4,85,201.8,84.9"/>
	</g>
	<g>
		<path class="st0" d="M190.9,2.5c0.2,0,0.4,0,0.6,0c0.6,0,0.9,0.2,0.8,0.8c0,1.3,0,2.6,0,3.8s0,2.6,0,3.8c0,0.2-0.1,0.6,0.2,0.7
			c0.5,0.3,1.1,0.2,1.6,0c0.4-0.1,0.3-0.6,0.3-0.9c0-2.2,0-4.4,0-6.7c0-2-0.1-1.7,1.6-1.7c0.1,0,0.3,0,0.4,0c0.5,0,0.7-0.2,0.7-0.7
			c0-0.3,0-0.6,0-0.9c0-0.4-0.2-0.5-0.5-0.5c-2.1,0-4.3,0-6.4,0c-0.5,0-0.5,0.3-0.6,0.7C189.5,2.4,189.6,2.4,190.9,2.5"/>
	</g>
	<g>
		<path class="st0" d="M122,11.1c0,0.4,0.1,0.7,0.6,0.7c1.8,0,3.5,0,5.3,0c0.4,0,0.6-0.2,0.6-0.6c0-0.3,0-0.5,0-0.8
			c0-0.5-0.2-0.8-0.7-0.8c-0.9,0-1.7,0-2.6,0c-1.1,0-1.1,0-1.1-1.1c0-2.4,0-4.9,0-7.3c0-0.8,0-0.8-1-0.9c-1,0-1,0-1,0.8
			c0,1.6,0,3.2,0,4.9C122,7.7,122,9.4,122,11.1"/>
	</g>
	<g>
		<path class="st0" d="M181.2,90.8c-1,0-2,0-3.1,0c-0.2,0-0.4,0.1-0.4,0.4c0,0.3,0.1,0.5,0.4,0.5c0.4,0,0.8,0,1.3,0
			c1.6,0,1.8,0.2,1.3,1.8c-0.1,0.2-0.1,0.3-0.2,0.5c-0.5,1.1-1.3,1.9-2.6,2c-1.3,0.1-2.3-0.5-2.9-1.6c-1.2-2.4-1.2-4.8,0-7.1
			c0.6-1.1,1.5-1.6,2.7-1.6c1.3,0,2,0.7,2.6,1.8c0.2,0.3,0.2,0.6,0.4,0.9c0.1,0.2,0.4,0.2,0.6,0.1c0.3-0.1,0.3-0.3,0.2-0.5
			c-0.3-1.5-1-2.6-2.5-3.2c-1.5-0.5-2.9-0.3-4,0.8c-2.4,2.2-2.4,7.8-0.1,10.2c1.8,1.8,4.9,1.4,5.8-0.7c0.5,0.4,0.1,1.1,0.5,1.5
			c0.3,0.1,0.5,0,0.5-0.3c0-1.7,0-3.3,0-5C181.7,91,181.6,90.8,181.2,90.8"/>
	</g>
	<g>
		<path class="st0" d="M161.1,95.8c-0.3,0-0.6,0-0.9,0c-1.2,0-2.3,0-3.5,0c-0.9,0-0.9,0-0.9-1c0-0.9,0-1.9,0-2.8
			c0-0.6,0.2-0.9,0.8-0.8c1.2,0,2.3,0,3.5,0c0.4,0,1,0.2,1-0.5c0-0.7-0.6-0.5-0.9-0.5c-0.2,0-0.3,0-0.5,0c-1,0-2.1,0-3.1,0
			c-0.5,0-0.7-0.2-0.7-0.7c0-1,0-2,0-3c0-0.4,0.2-0.6,0.6-0.6c0.3,0,0.7,0,1,0c1.1,0,2.2,0,3.3,0c0.3,0,0.5,0,0.6-0.4
			c0-0.2,0.1-0.5-0.2-0.6c-0.2-0.1-0.4-0.1-0.6-0.1c-1.6,0-3.2,0-4.9,0c-0.7,0-0.9,0.2-0.9,0.9c0,1.7,0,3.3,0,5c0,1.6,0,3.2,0,4.9
			c0,1.1,0,1.1,1,1.1c1.5,0,3.1,0,4.6,0c0.2,0,0.3,0,0.5,0c0.3,0,0.5-0.1,0.5-0.5C161.6,96,161.5,95.8,161.1,95.8"/>
	</g>
	<g>
		<path class="st0" d="M124.9,92.3c-0.3,0-0.5,0-0.6,0.3c-0.1,0.4-0.2,0.9-0.4,1.3c-0.4,1.1-1.1,1.9-2.4,2c-1.4,0.1-2.3-0.5-2.9-1.7
			c-0.7-1.3-0.9-2.7-0.8-4.2c0.1-1.1,0.3-2.2,1-3.1c1.4-2,4.1-1.7,5.1,0.5c0.1,0.2,0.2,0.4,0.2,0.6c0.1,0.4,0.3,0.5,0.7,0.4
			c0.5-0.1,0.3-0.4,0.3-0.7c-0.4-1.6-1.3-2.7-2.9-3c-1.7-0.3-3,0.2-4,1.6c-1,1.3-1.2,2.9-1.2,4.5c0,1.5,0.2,2.9,1,4.2
			c1,1.6,2.8,2.4,4.5,1.8c1.5-0.5,2.8-2.4,2.8-4.1C125.2,92.5,125.2,92.3,124.9,92.3"/>
	</g>
	<g>
		<path class="st0" d="M43.3,11.8c0.9,0,1,0,1-1c0-1.6,0-3.2,0-4.8c0-1.5,0-3.1,0-4.6c0-1.1,0-1.1-1-1.1c-1,0-1,0-1,1
			c0,3.2,0,6.3,0,9.5C42.2,11.8,42.3,11.8,43.3,11.8"/>
	</g>
	<g>
		<path class="st0" d="M169.5,84.9c-0.2,0-0.5-0.1-0.7,0.2c-0.1,0.3-0.2,0.6-0.3,0.8c-0.9,3-1.7,6-2.7,9.3c-0.2-0.5-0.3-0.7-0.4-1
			c-0.8-2.7-1.6-5.4-2.4-8.1c-0.1-0.4-0.2-0.7-0.4-1.1c-0.1-0.3-0.4-0.3-0.7-0.2c-0.3,0.1-0.2,0.3-0.1,0.5c0.2,0.8,0.5,1.5,0.7,2.3
			c0.8,2.7,1.6,5.5,2.4,8.2c0.1,0.4,0.2,0.7,0.7,0.7c0.5,0,0.7-0.2,0.8-0.7c0.1-0.4,0.2-0.8,0.4-1.2c0.9-3.1,1.8-6.2,2.8-9.3
			C169.7,85.3,169.9,85,169.5,84.9"/>
	</g>
	<g>
		<path class="st0" d="M144.6,84.9h-6.3c-0.3,0-0.6,0-0.6,0.5c0,0.4,0.2,0.5,0.6,0.5c0.6,0,1.3,0,1.9,0c0.6,0,0.8,0.2,0.8,0.8
			c0,1.5,0,3.1,0,4.6v3.2c0,0.6,0,1.1,0,1.7c0,0.3,0.1,0.5,0.4,0.5c0.3,0,0.4-0.2,0.4-0.5c0-0.3,0-0.7,0-1c0-2.8,0-5.6,0-8.3
			c0-0.9,0-0.9,0.9-0.9c0.6,0,1.2,0,1.8,0c0.3,0,0.6-0.1,0.6-0.5C145.2,84.9,144.9,84.9,144.6,84.9"/>
	</g>
	<g>
		<path class="st0" d="M171.7,85.6c0-0.3,0.1-0.6-0.4-0.7c-0.5,0-0.6,0.3-0.6,0.7c0,0.2,0,0.3,0,0.5v9.5c0,0.2,0,0.5,0,0.8
			c0,0.3,0.2,0.4,0.5,0.4c0.3,0,0.4-0.2,0.4-0.4c0-0.3,0-0.6,0-0.9c0-1.5,0-3.1,0-4.6h0C171.7,89.1,171.7,87.3,171.7,85.6"/>
	</g>
	<g>
		<path class="st0" d="M184.5,85.3c0-0.3-0.2-0.4-0.5-0.4c-0.2,0-0.4,0.1-0.4,0.4c0,0.3,0,0.5,0,0.8v9.6c0,0.2,0,0.3,0,0.5
			c0,0.3,0.1,0.6,0.5,0.6c0.4,0,0.5-0.2,0.5-0.5c0-0.3,0-0.5,0-0.8c0-1.5,0-3,0-4.5c0-1.6,0-3.2,0-4.7
			C184.5,85.9,184.5,85.6,184.5,85.3"/>
	</g>
	<g>
		<path class="st0" d="M65.6,20.4c0,0.5,0.2,0.8,0.8,0.8c0.5,0,0.9-0.4,0.9-0.8c0-0.5-0.3-0.7-0.8-0.8C66,19.6,65.6,19.9,65.6,20.4"
			/>
	</g>
	<g>
		<path class="st0" d="M50.5,20.4c0,0.5,0.3,0.8,0.7,0.8c0.5,0,0.9-0.3,0.9-0.7c0-0.5-0.4-0.9-0.9-0.9
			C50.8,19.6,50.5,19.9,50.5,20.4"/>
	</g>
	<g>
		<path class="st0" d="M183.4,20.5c0-0.4-0.3-0.8-0.7-0.9c-0.5,0-0.8,0.2-0.9,0.7c-0.1,0.5,0.3,0.9,0.8,0.9
			C183.1,21.2,183.3,20.9,183.4,20.5"/>
	</g>
	<g>
		<path class="st0" d="M196.9,20.4c0,0.5,0.3,0.8,0.8,0.8c0.5,0,0.9-0.4,0.8-0.9c-0.1-0.5-0.4-0.7-0.9-0.7
			C197.2,19.6,196.9,19.9,196.9,20.4"/>
	</g>
	<g>
		<path class="st0" d="M143,20.5c0-0.5-0.3-0.8-0.8-0.8c-0.5,0-0.8,0.3-0.9,0.7c-0.1,0.5,0.3,0.9,0.8,0.9
			C142.7,21.2,143,20.9,143,20.5"/>
	</g>
	<g>
		<path class="st0" d="M126.2,20.4c0,0.5,0.3,0.8,0.8,0.8c0.5,0,0.8-0.3,0.8-0.7c0-0.4-0.3-0.8-0.8-0.9
			C126.6,19.6,126.2,20,126.2,20.4"/>
	</g>
	<g>
		<path class="st0" d="M212.9,19.6c-0.5,0-0.8,0.3-0.8,0.8c-0.1,0.5,0.4,0.9,0.9,0.9c0.5,0,0.7-0.3,0.8-0.8
			C213.7,19.9,213.4,19.6,212.9,19.6"/>
	</g>
	<g>
		<path class="st0" d="M5,20.4c0,0.5,0.2,0.8,0.8,0.8c0.5,0,0.8-0.3,0.9-0.8c-0.1-0.4-0.3-0.7-0.8-0.8C5.4,19.6,5.1,19.9,5,20.4"/>
	</g>
	<g>
		<path class="st0" d="M171.7,20.5c0,0.5,0.3,0.8,0.8,0.8c0.5,0,0.7-0.3,0.8-0.8c-0.1-0.5-0.3-0.8-0.8-0.8
			C171.9,19.7,171.7,20,171.7,20.5"/>
	</g>
	<g>
		<path class="st0" d="M36.2,19.6c-0.5,0-0.8,0.3-0.8,0.8c0,0.5,0.3,0.8,0.8,0.8c0.5,0,0.8-0.3,0.8-0.8
			C36.9,19.9,36.7,19.6,36.2,19.6"/>
	</g>
	<g>
		<path class="st0" d="M41.2,21.2c0.5,0,0.8-0.3,0.8-0.8c0-0.5-0.3-0.8-0.8-0.8c-0.5,0-0.8,0.3-0.8,0.8
			C40.4,20.9,40.7,21.2,41.2,21.2"/>
	</g>
	<g>
		<path class="st0" d="M10.1,20.5c0,0.5,0.3,0.8,0.9,0.8c0.4,0,0.8-0.4,0.8-0.8c-0.1-0.5-0.3-0.8-0.9-0.8C10.4,19.6,10,20,10.1,20.5
			"/>
	</g>
	<g>
		<path class="st0" d="M166.6,20.4c0,0.4,0.3,0.8,0.8,0.8c0.5,0,0.8-0.3,0.9-0.8c-0.1-0.5-0.3-0.8-0.8-0.8
			C167,19.6,166.7,19.9,166.6,20.4"/>
	</g>
	<g>
		<path class="st0" d="M111.1,20.4c0,0.5,0.4,0.9,0.9,0.8c0.5-0.1,0.7-0.4,0.7-0.8c-0.1-0.5-0.4-0.8-0.9-0.8
			C111.4,19.6,111.1,19.9,111.1,20.4"/>
	</g>
	<g>
		<path class="st0" d="M152.3,21.2c0.5,0,0.8-0.3,0.8-0.8c0-0.5-0.3-0.8-0.8-0.8c-0.5,0-0.8,0.3-0.8,0.8
			C151.5,20.9,151.8,21.2,152.3,21.2"/>
	</g>
	<g>
		<path class="st0" d="M156.5,20.4c0,0.5,0.3,0.8,0.8,0.8c0.5,0,0.8-0.3,0.8-0.7c0-0.5-0.3-0.9-0.8-0.8
			C156.9,19.6,156.5,19.9,156.5,20.4"/>
	</g>
	<g>
		<path class="st0" d="M26,21.2c0.5,0,0.9-0.4,0.8-0.8c0-0.5-0.3-0.8-0.8-0.8c-0.5,0-0.8,0.3-0.8,0.8C25.3,20.9,25.6,21.2,26,21.2"
			/>
	</g>
	<g>
		<path class="st0" d="M81.5,19.6c-0.5,0-0.7,0.3-0.8,0.8c0,0.5,0.4,0.9,0.9,0.8c0.5-0.1,0.8-0.4,0.7-0.9
			C82.4,19.9,82.1,19.6,81.5,19.6"/>
	</g>
	<g>
		<path class="st0" d="M20.2,20.4c0,0.5,0.2,0.8,0.8,0.8c0.5,0,0.8-0.3,0.9-0.8c0-0.5-0.2-0.8-0.8-0.8
			C20.5,19.6,20.2,19.9,20.2,20.4"/>
	</g>
	<g>
		<path class="st0" d="M96.7,21.2c0.5,0,0.8-0.3,0.9-0.8c0-0.5-0.2-0.8-0.8-0.8c-0.5,0-0.8,0.2-0.9,0.7
			C95.8,20.8,96.2,21.2,96.7,21.2"/>
	</g>
	<g>
		<path class="st0" d="M138,20.5c0-0.5-0.3-0.8-0.8-0.8c-0.5,0-0.8,0.3-0.8,0.8c0,0.5,0.2,0.8,0.8,0.8C137.6,21.2,137.9,21,138,20.5
			"/>
	</g>
	<g>
		<path class="st0" d="M30.3,20.4c0,0.5,0.2,0.8,0.7,0.9c0.5,0,0.8-0.2,0.9-0.7c0-0.5-0.2-0.8-0.7-0.9
			C30.7,19.6,30.3,19.8,30.3,20.4"/>
	</g>
	<g>
		<path class="st0" d="M16,21.2c0.5-0.1,0.8-0.4,0.7-0.9c0-0.5-0.3-0.8-0.8-0.7c-0.5,0-0.8,0.3-0.7,0.8C15.2,21,15.5,21.2,16,21.2"
			/>
	</g>
	<g>
		<path class="st0" d="M0.8,19.6c-0.5,0-0.8,0.3-0.8,0.8c0,0.5,0.3,0.8,0.8,0.8c0.5,0,0.8-0.3,0.8-0.8C1.6,19.9,1.3,19.6,0.8,19.6"
			/>
	</g>
	<g>
		<path class="st0" d="M187.6,21.2c0.5,0,0.8-0.2,0.9-0.7c0-0.5-0.2-0.8-0.7-0.9c-0.5,0-0.8,0.2-0.9,0.7
			C186.8,20.8,187.1,21.1,187.6,21.2"/>
	</g>
	<g>
		<path class="st0" d="M192.7,19.6c-0.5,0-0.8,0.3-0.8,0.8c0,0.5,0.3,0.8,0.8,0.8c0.5,0,0.8-0.3,0.8-0.8
			C193.5,19.9,193.2,19.6,192.7,19.6"/>
	</g>
	<g>
		<path class="st0" d="M202,20.5c0,0.5,0.3,0.8,0.8,0.8c0.5,0,0.7-0.3,0.8-0.8c-0.1-0.4-0.3-0.8-0.8-0.7
			C202.2,19.7,202,19.9,202,20.5"/>
	</g>
	<g>
		<path class="st0" d="M101,20.4c0,0.5,0.3,0.8,0.8,0.8c0.5,0,0.8-0.3,0.8-0.8c0-0.5-0.3-0.8-0.8-0.8C101.3,19.6,101,19.9,101,20.4"
			/>
	</g>
	<g>
		<path class="st0" d="M177.6,21.2c0.5,0,0.8-0.3,0.8-0.8c0-0.5-0.3-0.8-0.8-0.8c-0.5,0-0.8,0.3-0.8,0.8
			C176.8,21,177.1,21.2,177.6,21.2"/>
	</g>
	<g>
		<path class="st0" d="M163.2,20.4c0-0.5-0.3-0.8-0.8-0.8c-0.5,0-0.8,0.3-0.8,0.8c0,0.5,0.3,0.8,0.8,0.8
			C162.9,21.2,163.2,20.9,163.2,20.4"/>
	</g>
	<g>
		<path class="st0" d="M148,20.4c0-0.4-0.3-0.7-0.8-0.7c-0.5,0-0.8,0.3-0.8,0.8c0,0.5,0.3,0.8,0.8,0.8C147.7,21.2,148,20.9,148,20.4
			"/>
	</g>
	<g>
		<path class="st0" d="M132.1,21.2c0.5,0,0.8-0.3,0.8-0.8c0-0.5-0.3-0.8-0.8-0.8c-0.5,0-0.8,0.3-0.8,0.8
			C131.3,20.9,131.6,21.2,132.1,21.2"/>
	</g>
	<g>
		<path class="st0" d="M207.1,20.5c0,0.5,0.3,0.8,0.9,0.7c0.5,0,0.7-0.4,0.7-0.8c-0.1-0.5-0.4-0.8-0.9-0.7
			C207.3,19.7,207,20,207.1,20.5"/>
	</g>
	<g>
		<path class="st0" d="M76.5,19.6c-0.5,0-0.8,0.3-0.8,0.8c0,0.5,0.3,0.8,0.8,0.8c0.5,0,0.8-0.3,0.8-0.9C77.3,19.9,77,19.6,76.5,19.6
			"/>
	</g>
	<g>
		<path class="st0" d="M122,21.2c0.5,0,0.8-0.3,0.8-0.8c0-0.5-0.3-0.8-0.8-0.8c-0.5,0-0.8,0.3-0.8,0.8
			C121.2,20.9,121.5,21.2,122,21.2"/>
	</g>
	<g>
		<path class="st0" d="M86.6,19.6c-0.5,0-0.8,0.3-0.8,0.8c0,0.5,0.3,0.8,0.9,0.8c0.4,0,0.7-0.3,0.7-0.8
			C87.4,19.9,87.1,19.6,86.6,19.6"/>
	</g>
	<g>
		<path class="st0" d="M46.2,21.2c0.4,0,0.8-0.2,0.8-0.7c0-0.5-0.2-0.8-0.7-0.8c-0.5,0-0.8,0.2-0.8,0.7
			C45.4,20.9,45.7,21.1,46.2,21.2"/>
	</g>
	<g>
		<path class="st0" d="M117.7,20.4c0-0.5-0.3-0.8-0.8-0.8c-0.5,0-0.8,0.3-0.8,0.8c0,0.5,0.3,0.8,0.9,0.8
			C117.4,21.2,117.7,20.9,117.7,20.4"/>
	</g>
	<g>
		<path class="st0" d="M61.4,21.2c0.5,0,0.8-0.3,0.8-0.8c0-0.5-0.3-0.8-0.8-0.8c-0.4,0-0.7,0.3-0.7,0.8
			C60.6,20.9,60.9,21.2,61.4,21.2"/>
	</g>
	<g>
		<path class="st0" d="M56.3,19.6c-0.5,0-0.8,0.3-0.8,0.8c0,0.5,0.3,0.8,0.8,0.8c0.5,0,0.8-0.3,0.8-0.8
			C57.1,19.9,56.8,19.6,56.3,19.6"/>
	</g>
	<g>
		<path class="st0" d="M91.7,21.2c0.5,0,0.8-0.3,0.8-0.8c-0.1-0.5-0.3-0.8-0.8-0.8c-0.5,0-0.8,0.3-0.8,0.8
			C90.9,20.9,91.2,21.2,91.7,21.2"/>
	</g>
	<g>
		<path class="st0" d="M106.8,21.2c0.5,0,0.8-0.2,0.8-0.7c0-0.5-0.2-0.8-0.8-0.9c-0.4,0-0.8,0.2-0.8,0.8
			C106,20.9,106.3,21.2,106.8,21.2"/>
	</g>
	<g>
		<path class="st0" d="M70.7,20.4c0,0.5,0.2,0.8,0.7,0.8c0.5,0,0.8-0.2,0.9-0.7c0-0.5-0.2-0.8-0.7-0.8C71,19.6,70.7,19.9,70.7,20.4"
			/>
	</g>
	<g>
		<path class="st0" d="M96.6,6.1c0,1.6,0,3.2,0,4.9c0,0.6,0.2,0.9,0.8,0.8c1.1,0,2.2,0,3.3,0c1.5,0,2.6-0.8,3.2-2.2
			c1-2.3,1.1-4.7,0-7.1c-0.6-1.4-1.8-2.2-3.3-2.2c-1.1,0-2.1,0-3.2,0c-0.7,0-0.9,0.2-0.9,0.9C96.6,2.8,96.6,4.5,96.6,6.1 M99.3,2.4
			c2-0.1,3,0.7,3.2,2.8c0.1,0.9,0.1,1.7-0.1,2.5c-0.4,1.6-2,2.4-3.5,1.9c-0.4-0.1-0.3-0.5-0.3-0.7c0-1,0-2,0-2.9c0-0.9,0-1.8,0-2.7
			C98.6,2.7,98.8,2.5,99.3,2.4"/>
	</g>
	<g>
		<path class="st0" d="M4.8,11.8c0.5,0,0.7-0.2,0.7-0.7c0-0.7,0-1.4,0-2.1c0-1.9-0.4-1.8,1.9-1.8c1,0,1.4,0.4,1.6,1.4
			c0.1,0.5,0.1,1.1,0.2,1.7c0.2,1.6,0.2,1.6,1.7,1.4c0.1,0,0.2-0.1,0.4-0.1c-0.5-1.8,0.3-3.8-1.3-5.3c1.1-1.3,1.3-2.2,1.1-3.7
			c-0.2-1.5-1.2-2.4-2.7-2.4c-1.3,0-2.6,0-3.8,0c-1.1,0-1.1,0-1.1,1c0,3.1,0,6.1,0,9.2C3.4,11.8,3.6,11.9,4.8,11.8 M5.5,3.4
			c0-1.1,0-1.1,1.2-1.1c0.2,0,0.5,0,0.8,0c1.4,0.1,2.1,1.1,1.5,2.4c-0.2,0.4-0.5,0.7-1,0.7c-0.2,0-0.5,0-0.8,0
			c-1.9,0-1.7,0.2-1.7-1.7V3.4"/>
	</g>
	<g>
		<path class="st0" d="M202.5,9.8c0.8,1.5,2,2.3,3.7,2.3c1.6,0,2.9-0.8,3.6-2.2c1.3-2.5,1.3-5.1-0.1-7.6c-1.6-3-5.5-2.9-7.2,0
			c-0.7,1.2-0.9,2.5-0.9,3.9C201.6,7.4,201.8,8.6,202.5,9.8 M204.2,3.5c0.3-0.8,1-1.3,1.9-1.3c0.9,0,1.5,0.4,1.9,1.2
			c0.4,0.8,0.6,1.7,0.6,2.5c0,1-0.1,1.8-0.5,2.6c-0.4,0.8-1,1.4-2,1.4c-1,0-1.6-0.5-2-1.3C203.5,6.9,203.5,5.2,204.2,3.5"/>
	</g>
	<g>
		<path class="st0" d="M54.1,12.1c1.6,0,2.9-0.8,3.6-2.3c1.2-2.5,1.2-5,0-7.5c-0.7-1.4-1.9-2.2-3.6-2.2s-2.8,0.8-3.6,2.2
			c-0.7,1.1-0.9,2.4-0.9,3.8c0,1.2,0.2,2.5,0.8,3.7C51.1,11.2,52.4,12.1,54.1,12.1 M51.9,3.7c0.4-0.9,1-1.5,2-1.5
			c1,0,1.7,0.5,2.1,1.4c0.6,1.6,0.7,3.2,0,4.9c-0.4,0.9-1,1.4-2.1,1.4c-1,0-1.6-0.6-1.9-1.4c-0.3-0.7-0.4-1.6-0.4-2.4
			C51.6,5.3,51.6,4.5,51.9,3.7"/>
	</g>
	<g>
		<path class="st0" d="M115.5,93.6c-0.1-1-0.3-2-1.2-2.5c0.1-0.1,0.1-0.2,0.2-0.3c0.1-0.1,0.2-0.1,0.3-0.2c1.1-1.2,1.2-2.5,0.7-3.9
			c-0.4-1.4-1.6-1.8-3-1.7c-1,0-2,0-2.9,0c-1,0-1.1,0-1.1,1.1c0,3.2,0,6.5,0,9.8c0,0.2,0,0.4,0,0.6c0,0.3,0.2,0.4,0.4,0.4
			c0.2,0,0.4-0.1,0.5-0.3c0-0.3,0-0.6,0-0.9c0-1.1,0-2.1,0-3.2c0-0.5,0.2-0.8,0.7-0.8c0.9,0,1.8,0,2.7,0c0.8,0,1.3,0.4,1.5,1.1
			c0.3,0.7,0.3,1.4,0.3,2.1c0,0.6,0,1.1,0.2,1.6c0.1,0.3,0.4,0.3,0.6,0.3c0.3,0,0.3-0.2,0.2-0.5C115.6,95.4,115.5,94.5,115.5,93.6
			 M112.5,90.5c-0.8,0-1.5,0-2.3,0c-0.5,0-0.8-0.2-0.8-0.8c0-0.5,0-1,0-1.7c0.1-0.6-0.3-1.5,0.2-2c0.5-0.5,1.5-0.1,2.2-0.2
			c0.2,0,0.4,0,0.6,0c1.6-0.1,2.3,0.8,2.3,2.2C114.7,89.6,113.9,90.5,112.5,90.5"/>
	</g>
	<g>
		<path class="st0" d="M153.2,94c0-1.2-0.2-2.3-1.3-3c1.3-0.9,1.6-2.2,1.4-3.7c-0.2-1.5-1.1-2.3-2.7-2.4c-1.2,0-2.4,0-3.6,0
			c-0.9,0-0.9,0-0.9,0.9c0,1.6,0,3.2,0,4.7c0,1.8,0,3.7,0,5.5c0,0.4,0.1,0.7,0.6,0.6c0.4,0,0.4-0.4,0.4-0.7c0-1.2,0-2.5,0-3.7
			c0-0.6,0.2-0.9,0.8-0.8c0.8,0,1.6,0,2.4,0c1.1,0,1.6,0.4,1.8,1.5c0.1,0.7,0.2,1.5,0.2,2.3c0,0.3,0,0.7,0.1,1
			c0.1,0.3,0.3,0.4,0.6,0.4c0.4,0,0.4-0.3,0.3-0.5C153.2,95.5,153.1,94.8,153.2,94 M150.3,90.5c-0.8,0-1.7,0-2.5,0
			c-0.6,0-0.7-0.3-0.7-0.8c0-0.5,0-1,0-1.7c0.1-0.6-0.3-1.5,0.2-2c0.5-0.5,1.4-0.1,2.1-0.2c0.3,0,0.7,0,1,0c1.4,0.1,2.1,0.8,2.1,2.2
			S151.6,90.4,150.3,90.5"/>
	</g>
	<g>
		<path class="st0" d="M129.9,84.9c-0.4,0-0.6,0.2-0.7,0.6c-0.3,1.1-0.7,2.3-1.1,3.4c-0.8,2.5-1.6,5.1-2.5,7.7
			c0.9,0.1,0.9,0.2,1.1-0.4c0.3-0.8,0.5-1.5,0.7-2.3c0.1-0.5,0.4-0.8,1-0.8c0.9,0,1.9,0,2.8,0c0.6,0,0.8,0.3,1,0.8
			c0.2,0.8,0.5,1.5,0.7,2.3c0.2,0.6,0.5,0.7,1.1,0.4c-1.2-3.7-2.3-7.4-3.5-11.1C130.5,85.1,130.3,84.9,129.9,84.9 M128,92
			c0.6-1.9,1.2-3.7,1.7-5.5c0.1-0.2,0-0.4,0.1-0.4c0.5,1.8,1.2,4,1.8,5.9C130.4,92.1,129.3,92.1,128,92"/>
	</g>
	<g>
		<path class="st0" d="M208.4,86.5c-0.1-0.4-0.2-0.8-0.4-1.2c-0.2-0.5-0.9-0.5-1.2,0c-0.1,0.2-0.2,0.5-0.3,0.7
			c-0.8,2.4-1.6,4.9-2.3,7.3c-0.3,0.9-0.6,1.9-0.9,2.8c-0.1,0.2-0.2,0.5,0.1,0.6c0.3,0.1,0.6,0,0.7-0.3s0.2-0.7,0.4-1.1
			c0.2-0.7,0.3-1.5,0.7-2c0.5-0.5,1.5-0.2,2.2-0.2c2.4,0,1.8-0.4,2.6,1.9c0.2,0.5,0.3,1,0.5,1.5c0.1,0.3,0.4,0.3,0.6,0.3
			c0.2,0,0.3-0.1,0.3-0.4c-0.1-0.2-0.1-0.5-0.2-0.8C210.3,92.5,209.4,89.5,208.4,86.5 M205.5,92.1c0.6-1.9,1.3-4.1,1.8-5.8
			c0.2,0.4,0.2,0.5,0.2,0.7c0.5,1.7,1,3.3,1.5,5.1C207.9,92.2,206.8,92.1,205.5,92.1"/>
	</g>
	<g>
		<path class="st0" d="M191,87.4c-0.2-0.6-0.4-1.3-0.6-2c-0.1-0.4-0.3-0.6-0.7-0.6c-0.7-0.1-0.7,0.5-0.8,0.9c-1,3.2-2.1,6.5-3.1,9.8
			c-0.1,0.2-0.2,0.5-0.2,0.7c-0.1,0.4,0.2,0.4,0.5,0.4c0.4,0,0.5-0.3,0.5-0.6c0.2-0.8,0.5-1.5,0.7-2.3c0.1-0.5,0.4-0.7,0.9-0.7
			c1,0,2,0,2.9,0c0.5,0,0.8,0.2,0.9,0.7c0.2,0.7,0.5,1.5,0.7,2.2c0.1,0.4,0.3,0.9,0.8,0.7c0.6-0.2,0.2-0.6,0.1-0.9
			C192.8,93,191.9,90.2,191,87.4 M187.8,92.1c0.6-2.1,1.2-4,1.8-5.9c0.6,1.9,1.2,3.8,1.8,5.9C190.2,92.2,189.1,92.1,187.8,92.1"/>
	</g>
	<g>
		<path class="st0" d="M106.1,92.1c-0.7-2.2-1.4-4.3-2-6.5c-0.1-0.4-0.2-0.7-0.7-0.8c-0.6,0-0.7,0.4-0.8,0.8c0,0.1-0.1,0.2-0.1,0.4
			c-1,3.1-2,6.3-3,9.4c-0.1,0.2-0.2,0.5-0.2,0.7c-0.1,0.2-0.1,0.4,0.2,0.5c0.2,0.1,0.6,0.1,0.7-0.2c0.2-0.4,0.3-0.9,0.4-1.3
			c0.9-2.5,0.1-2,2.8-2.1c0.4,0,0.9,0,1.3,0c0.6,0,0.9,0.2,1.1,0.8c0.2,0.8,0.5,1.6,0.8,2.4c0.1,0.4,0.5,0.5,0.8,0.4
			c0.4-0.1,0.2-0.4,0.1-0.6C107,94.7,106.6,93.4,106.1,92.1 M101.5,92.1c0.6-2.1,1.2-4,1.9-5.9c0.6,1.9,1.2,3.9,1.8,5.9
			C103.8,92.2,102.7,92.1,101.5,92.1"/>
	</g>
	<g>
		<path class="st0" d="M49.1,78.5c0.1,0,0.1-0.1,0.1-0.1v-0.6c0-0.1-0.1-0.1-0.1-0.1c-0.1,0-0.1,0.1-0.1,0.1v0.6
			C49,78.4,49.1,78.5,49.1,78.5"/>
	</g>
	<g>
		<path class="st0" d="M33,76c0.3,0,0.5-1.7,0.5-1.7l-1.1-2.1C32.4,72.3,33,74.2,33,76"/>
	</g>
	<g>
		<path class="st0" d="M20.2,55.9c0.4,0.1,0.4-1,0.1-1.1C20,54.6,19.8,55.8,20.2,55.9"/>
	</g>
	<g>
		<path class="st0" d="M20.7,57.9C21,58,21.1,57,21.1,57s0.2,0.4,0.7,0.3c0.4-0.1-0.3-0.7-0.3-0.7s1.4-0.1,1.1-0.7
			c-0.2-0.7-2.1,0.2-2.1,0.2S20.3,57.8,20.7,57.9"/>
	</g>
	<g>
		<path class="st0" d="M22.3,60c0-0.1-0.1-0.1-0.2-0.2c-0.1-0.1-0.1-0.1-0.1-0.1v0.2h-0.1c-0.2,0.1-0.3,0.2-0.6,0.3
			c-0.3,0.1-0.4,0-0.5,0c-0.1,0-0.5,0-0.6-0.1c0-0.2,0-0.3,0-0.5c0-0.2,0-0.3,0-0.5l0,0c0.3-0.1,0.6-0.1,0.8-0.3
			c0.1,0,0.1-0.1,0-0.2c0-0.1-0.1-0.1-0.2,0c-0.2,0.1-0.5,0.2-0.8,0.3c-0.3,0.1-0.3,0.1-0.5-0.2c0-0.1-0.1-0.1-0.2,0
			c-0.1,0-0.1,0.1,0,0.2c0.2,0.3,0.3,0.4,0.5,0.4l0.1,0c0,0.2,0,0.3,0,0.5s0,0.3,0,0.5c-0.2,0-0.4,0-0.7-0.1c0,0,0.4,0.7,0.5,0.7
			c0.1-0.1,0.3,0,0.7,0c0.4,0.1,0.1,0.1,0.6,0.1c0.4,0,0.5-0.1,0.9-0.2c0.3-0.1,0.4-0.1,0.4-0.2c0.1,0.1,0.1,0.1,0.3,0.1
			C22.6,60.3,22.3,60.1,22.3,60"/>
	</g>
	<g>
		<path class="st0" d="M47.6,93.7c0,0-0.7-0.3-1.4-0.3c-0.4,0-1,0.3-1.3,0.2c-0.1-0.1-0.3,0-0.4,0.1c-0.1,0.2,0,0.4,0.2,0.4
			c0.4,0.1,1-0.2,1.5-0.2c0.7,0,1.4,0.3,1.5,0.3c0.1,0,0.3-0.2,0.3-0.4C47.9,93.8,47.8,93.7,47.6,93.7"/>
	</g>
	<g>
		<path class="st0" d="M20.4,93.1c-0.7-0.1-0.7-0.1-1.5-0.2c-0.7-0.1-0.7-0.2-1.4-0.1c-0.7,0.1-0.7,0.1-1.2,0.1
			c-0.2,0.1-0.4,0.1-0.4,0.4c0.1,0.1,0.2,0.2,0.4,0.2c0.7-0.1,0.7,0,1.5-0.1c0.7-0.1,0.6,0,1.2,0.1c0.7,0.1,0.7,0.1,1.3,0.2
			c0.1,0,0.3-0.1,0.3-0.3C20.7,93.3,20.5,93.2,20.4,93.1"/>
	</g>
	<g>
		<path class="st0" d="M17,91.8c0-0.1-0.1-0.4-0.2-0.4c-0.8-0.2-0.8-0.1-1.6-0.4c-0.7-0.1-0.7-0.1-1.5-0.3c-0.7-0.1-0.8,0-1.6,0.1
			c-0.8,0.1-0.8,0.1-1.6,0.2C9.7,91.1,9.7,91,9,91.2c-0.1,0-0.3,0.1-0.3,0.3c0,0.2,0.2,0.3,0.4,0.3c0.8-0.1,0.8-0.1,1.6-0.3
			c0.8-0.1,0.8-0.1,1.6-0.1c0.7-0.1,0.7-0.1,1.4,0c0.8,0.1,0.8,0.1,1.5,0.4c0.7,0.1,0.7,0.1,1.5,0.3C16.8,92,17,91.9,17,91.8"/>
	</g>
	<g>
		<path class="st0" d="M13.2,94.3c0-0.1-0.7-0.1-1.5-0.3c-0.4-0.1-1.2,0-1.6,0.1c-0.6,0.1-1.1,0.2-1.3,0.3c-0.1,0-0.3,0.2-0.3,0.4
			c0.1,0.1,0.2,0.2,0.4,0.2c0.1,0,0.7-0.1,1.5-0.2c0.4-0.1,0.9-0.2,1.3-0.1c0.7,0.1,1.3,0.3,1.4,0.3c0.1,0.1,0.4-0.1,0.4-0.2
			C13.5,94.4,13.4,94.3,13.2,94.3"/>
	</g>
	<g>
		<path class="st0" d="M26.7,90.7h1.6c0.9,0,0.8,0.2,1.6,0.4c0.8,0.1,0.8,0.1,1.7,0.2c0.7,0.1,0.7,0.2,1.5,0.4
			c0.1,0,0.3-0.1,0.4-0.3c0-0.1-0.1-0.3-0.3-0.3c-0.8-0.1-0.8-0.2-1.6-0.4c-0.9-0.1-0.9,0-1.7-0.1c-0.9-0.1-0.9-0.4-1.7-0.4
			c-0.8,0-0.8,0.1-1.7,0.1c-0.8,0-0.8,0.2-1.6,0.3c-0.8,0.1-0.9,0.1-1.7,0.1c-0.7,0.1-0.8-0.1-1.5,0c-0.1,0-0.4,0.3-0.4,0.4
			c0,0.2,0.3,0.4,0.4,0.4c0.9-0.1,0.8-0.2,1.7-0.3c0.8-0.1,0.9,0,1.7-0.1C25.9,91,25.8,90.7,26.7,90.7"/>
	</g>
	<g>
		<path class="st0" d="M39.9,93.6c-0.8-0.1-0.8-0.1-1.6-0.2c-0.9-0.1-0.9,0.1-1.8,0.1c-0.8-0.1-0.7-0.2-1.5-0.3
			c-0.9-0.1-0.9,0.1-1.7,0c-0.8-0.1-0.8-0.1-1.6-0.1H30c-0.9,0-0.9,0.1-1.8,0.2c-0.7,0.1-0.7,0.2-1.5,0.4c-0.8,0.1-0.7,0.2-1.5,0.3
			c-0.7,0.1-0.8-0.1-1.5,0.1c-0.1,0-0.1,0.3-0.1,0.4c0,0.2,0.1,0.3,0.2,0.3c0.8-0.1,0.8-0.2,1.6-0.4c0.8-0.1,0.8-0.1,1.7-0.2
			c0.8-0.1,0.8-0.1,1.6-0.2c0.8-0.1,0.7-0.3,1.5-0.3c0.8,0,0.8,0.2,1.6,0.2c0.8,0,0.8-0.1,1.6-0.1c0.8,0.1,0.8-0.1,1.7-0.1
			c0.7,0.1,0.7,0.1,1.5,0.2c0.8,0,0.8,0.2,1.6,0.3c0.7,0.1,0.7,0.1,1.5,0.1c0.1,0,0.2-0.3,0.3-0.4C40.1,93.8,40,93.6,39.9,93.6"/>
	</g>
	<g>
		<path class="st0" d="M34.7,89.8c0.7-0.1,0.7-0.2,1.5-0.3c0.8-0.1,0.7-0.3,1.5-0.3h1.5c0.7,0,0.7,0,1.5,0.1
			c0.7,0.1,0.7,0.2,1.5,0.3c0.7,0.1,0.7,0.1,1.4,0.2c0.1,0.1,0.4-0.1,0.4-0.3c0.1-0.1-0.1-0.4-0.3-0.4C43,89,43,89,42.2,89
			c-0.8-0.1-0.8-0.1-1.6-0.2c-0.7-0.1-0.8-0.2-1.5-0.2h-1.6c-0.7,0-0.7,0.4-1.5,0.4c-0.7,0.1-0.7-0.1-1.4,0.1
			c-0.1,0-0.2,0.2-0.1,0.4C34.4,89.6,34.5,89.8,34.7,89.8"/>
	</g>
	<g>
		<path class="st0" d="M48.2,91.6C48.3,91.7,48.2,91.5,48.2,91.6"/>
	</g>
	<g>
		<path class="st0" d="M46.6,91.4c-0.8-0.1-0.8-0.1-1.6-0.1c-0.7-0.1-0.7-0.1-1.5-0.1c-0.7,0-0.8-0.2-1.5-0.1c-0.7,0-0.7-0.1-1.5,0
			c-0.7,0.1-0.7,0.2-1.3,0.3c-0.2,0-0.4,0.1-0.4,0.3c0,0.1,0.2,0.2,0.4,0.2c0.8-0.1,0.8-0.1,1.5-0.2c0.8-0.1,0.8,0,1.6-0.1
			c0.7-0.1,0.7,0.2,1.5,0.2c0.8,0,0.7,0.1,1.5,0.1c0.7,0.1,0.7,0.1,1.5,0.2c0.7,0.1,0.7,0.1,1.4,0.1c0.1,0,0.1-0.4,0.1-0.6
			C47.4,91.5,47.4,91.5,46.6,91.4"/>
	</g>
	<g>
		<path class="st0" d="M17.5,71.7c0.1,0.1,0.1,0,0.2-0.1c0.1-0.1,0.2,0,0.1-0.1c-0.3-0.3-1.1-1.7-1.4-2.4c-0.1-0.1-1-0.2-0.9-0.1
			C15.6,69.1,16.9,71.3,17.5,71.7"/>
	</g>
	<g>
		<path class="st0" d="M19.1,71.2c0.1,0.1,0.4,0,0.2-0.1c-1.4-1.1-1.3-2.5-1.5-2.6v0.1c-0.1-0.1-0.8,0-0.7,0.1
			C17.2,69.1,18,70.8,19.1,71.2"/>
	</g>
	<g>
		<path class="st0" d="M65.8,84.3c-0.2,0-0.4,0-0.6,0c-0.1,0-0.1,0.1-0.1,0.1c0,0.1,0.1,0.1,0.1,0.1h0c0.2,0,0.4,0,0.6,0
			c0.8,0,1.4-0.1,2.3-0.2c0.9-0.1,2.1,0,2.7,0c0.1,0,0.2,0,0.3,0c0.1,0,0.1-0.1,0.1-0.1c0-0.1-0.1-0.1-0.1-0.1c0,0-0.1,0-0.3,0
			c-0.6,0-1.8-0.1-2.8,0C67.2,84.2,66.6,84.3,65.8,84.3"/>
	</g>
	<g>
		<path class="st0" d="M52.4,91.6c0-0.2-0.1-0.3-0.4-0.3c-1-0.1-1-0.1-2.1-0.1c-0.2,0-0.3,0.1-0.3,0.4c0,0.1,0.1,0.3,0.3,0.3H52
			C52.2,91.9,52.4,91.8,52.4,91.6"/>
	</g>
	<g>
		<path class="st0" d="M52.6,89.3c0.8-0.1,0.7-0.4,1.5-0.4c0.8,0,0.7,0,1.5,0.1c0.8,0,0.8,0.2,1.6,0.3c0.7,0,0.7,0,1.5,0.1
			c0.7,0.1,0.7-0.1,1.4-0.1c0.1,0,0.4-0.1,0.4-0.2c0-0.1-0.1-0.4-0.3-0.4c-0.8-0.1-0.8,0-1.6,0c-0.8-0.1-0.8-0.1-1.6-0.1
			c-0.7,0-0.7-0.1-1.5-0.1h-1.6c-0.8,0-0.8,0.2-1.6,0.4c-0.7,0.1-0.7,0.1-1.5,0.1c-0.7,0-0.7-0.1-1.4,0c-0.1,0-0.3,0.2-0.3,0.4
			c0,0.1,0.2,0.3,0.4,0.3c0.8-0.1,0.8-0.1,1.5-0.2C51.8,89.3,51.8,89.3,52.6,89.3"/>
	</g>
	<g>
		<path class="st0" d="M70.5,88.7c-1-0.2-1-0.2-1.8-0.4c-0.9-0.1-1-0.3-1.8-0.3c-1,0-1,0.1-1.9,0.3c-0.8,0.1-0.8,0.2-1.6,0.3
			c-0.1,0.1-0.3,0.1-0.3,0.3c0.1,0.2,0.2,0.3,0.4,0.3c1-0.1,1-0.1,1.8-0.1c0.9-0.1,0.9-0.3,1.8-0.3c0.9,0,0.8,0.1,1.8,0.4
			c0.8,0.1,0.8,0,1.6,0.1c0.1,0,0.4,0,0.4-0.1C70.8,88.9,70.6,88.7,70.5,88.7"/>
	</g>
	<g>
		<path class="st0" d="M65.5,91c-1-0.1-0.9-0.1-1.8-0.1c-0.9-0.1-0.9-0.1-1.8-0.1c-1,0-1,0-1.8,0.1c-0.9,0.1-0.9,0.1-1.8,0.2
			c-0.8,0.1-0.8,0.1-1.5,0.2c-0.2,0-0.4,0.1-0.4,0.3c0,0.2,0.2,0.4,0.4,0.3c0.9-0.1,0.9-0.1,1.8-0.2c0.9-0.1,0.9-0.1,1.8-0.3
			c0.9-0.1,0.8-0.1,1.7-0.1c1,0.1,0.9,0.2,1.8,0.3c0.7,0.1,0.7,0.1,1.5,0.1c0.1,0,0.3-0.1,0.3-0.4C65.8,91.2,65.7,91,65.5,91"/>
	</g>
	<g>
		<path class="st0" d="M63,93.2c-0.9-0.1-0.9,0.1-1.8,0c-0.9-0.1-0.9-0.2-1.8-0.3c-0.9-0.1-0.9-0.2-1.8-0.2c-1,0-1,0.1-1.8,0.3
			c-0.9,0.1-0.9,0.1-1.8,0.1c-0.8,0.1-0.9,0-1.7,0.1c-0.1,0-0.4,0.2-0.4,0.4c0.1,0.1,0.3,0.1,0.4,0.1c0.9-0.1,0.9,0,1.8-0.1
			c0.9-0.1,0.9-0.1,1.8-0.2c0.9-0.1,0.8,0,1.7,0c1,0,0.9,0,1.8,0.1c0.9,0.1,0.9,0.1,1.8,0.2c0.8,0.1,0.8,0.1,1.7,0.2
			c0.1,0,0.3-0.2,0.3-0.4C63.3,93.5,63.2,93.2,63,93.2"/>
	</g>
	<g>
		<path class="st0" d="M25.1,86.5c0.4,0.1,1,0.1,1.5,0.1c0.7,0,1.4-0.1,1.5-0.1c0.1,0,0.3-0.1,0.3-0.4C28.4,86,28.2,86,28.1,86
			C28,86,27.3,86,26.6,86c-0.4,0-1-0.1-1.3-0.1c-0.2-0.1-0.4,0-0.4,0.1C24.8,86.2,25,86.4,25.1,86.5"/>
	</g>
	<g>
		<path class="st0" d="M24.6,88.2c-0.7-0.1-0.7-0.1-1.5-0.2c-0.7-0.1-0.7-0.2-1.5-0.2h-1.4c-0.7,0-0.8,0.1-1.5,0.2
			c-0.7,0.1-0.7,0.2-1.4,0.3c-0.1,0.1-0.3,0.2-0.2,0.4c0,0.1,0.1,0.2,0.3,0.1c0.7-0.1,0.8,0,1.5-0.1c0.7-0.1,0.7-0.4,1.5-0.4h1.4
			c0.7,0,0.7,0.1,1.4,0.2c0.7,0,0.7,0.1,1.4,0.1c0.2,0,0.4-0.1,0.4-0.3C25,88.3,24.8,88.2,24.6,88.2"/>
	</g>
	<g>
		<path class="st0" d="M14.8,77.3c-0.1,0-0.1,0.2-0.1,0.4l0.1,0.4c0,0.3,0.1,0.4,0.2,0.4c0.1,0,0.1-0.2,0.1-0.4L15,77.7
			C15,77.4,14.8,77.3,14.8,77.3"/>
	</g>
	<g>
		<path class="st0" d="M14.8,80.5L14.8,80.5c0.2-0.1,0.3-0.3,0.3-0.5v-0.1c0-0.3-0.1-0.4-0.3-0.6c-0.3-0.2-0.7-0.1-0.8-0.1l0,0h-0.1
			c-0.1,0.1-0.1,0.4-0.1,0.6v0.7c0,0.2,0,0.9,0.1,0.9s0.1-0.1,0.1-0.1l0-0.1c0-0.1,0.1-0.2,0.2-0.3c0.1-0.1,0.2-0.2,0.2-0.1l0.2,0.5
			c0.2,0.1,0.4,0.2,0.5,0.1c0-0.1,0-0.1-0.1-0.2C15.1,81.2,14.7,80.5,14.8,80.5 M14.6,80.1c-0.1,0.1-0.3,0.1-0.4,0h-0.1v-0.2
			c0-0.1,0.1-0.4,0.3-0.4l0.1,0.1c0.1,0.1,0.1,0.1,0.1,0.3C14.7,80,14.7,80.1,14.6,80.1"/>
	</g>
	<g>
		<path class="st0" d="M7,79.8c0,0-0.7-0.1-1.5-0.1c-0.5,0-1,0.3-1.4,0.3C4,80,3.9,80.1,3.9,80.3c0,0.1,0.1,0.3,0.4,0.3
			c0.4,0,0.8-0.4,1.4-0.4c0.7,0,1.3,0.2,1.3,0.2c0.2,0,0.4-0.1,0.4-0.3C7.4,80,7.2,79.8,7,79.8"/>
	</g>
	<g>
		<path class="st0" d="M4.2,78.9c0.4-0.2,0.8-0.2,1.2-0.2c0.7-0.1,1.3,0.2,1.3,0.2c0.1,0,0.4-0.1,0.4-0.3c0-0.2-0.1-0.4-0.4-0.4
			c0,0-0.7-0.2-1.4-0.2C5,78,4.3,78.2,4,78.4c-0.1,0.1-0.2,0.3-0.1,0.4C3.9,79,4.1,79,4.2,78.9"/>
	</g>
	<g>
		<path class="st0" d="M7.1,85c0.7,0.1,0.7,0.1,1.3,0.1c0.1,0,0.4-0.5,0.4-0.7c0-0.1-0.1,0.1-0.3,0c-0.7-0.1-0.7-0.1-1.5-0.1
			c-0.7-0.1-0.7-0.1-1.4-0.1S5,84.6,4.3,84.6C4.2,84.7,4,84.8,4.1,85c0,0.1,0.1,0.2,0.4,0.2c0.7-0.1,0.7-0.3,1.4-0.3
			C6.5,84.8,6.5,84.8,7.1,85"/>
	</g>
	<g>
		<path class="st0" d="M11.1,89.4c0.7,0.1,0.9-0.1,1.7,0.1c0.7,0.1,0.7,0.3,1.3,0.4c0.1,0.1,0.4-0.1,0.4-0.3c0.1-0.1,0-0.4-0.2-0.4
			c-0.7-0.1-0.7-0.2-1.5-0.4c-0.8-0.1-1.1,0.1-1.9,0.1c-0.8,0-0.8-0.1-1.6-0.1c-0.8,0-0.6,0.3-1.3,0.3c-0.7-0.1-0.7-0.1-1.4-0.1
			c-0.2,0-0.4,0.1-0.4,0.3c0,0.2,0.1,0.4,0.3,0.4c0.9,0,0.9-0.1,1.7,0c0.8,0,0.6-0.1,1.4-0.1C10.3,89.5,10.3,89.4,11.1,89.4"/>
	</g>
	<g>
		<path class="st0" d="M10.4,76.7c0.1,0,0.1-0.1,0.1-0.4v-0.6c0-0.2,0.1-0.5,0.1-0.6h0.1c0.1,0,0.4,0.2,0.4,0.4
			c0,0.1-0.1,0.2-0.1,0.2c-0.2,0.1-0.4,0.1-0.4,0.3c0,0.1,0.2,0.1,0.4,0c0,0,0.2-0.1,0.3-0.2c0,0.2-0.1,0.3-0.1,0.3
			c0,0.2,0.1,0.4,0.1,0.4c0.1,0,0.1-0.1,0.2-0.4c0,0,0.2-1.1,0.5-1.1c0.4,0,0.4,1,0.4,1c0.1,0.2,0.1,0.4,0.2,0.4
			c0.1,0,0.1-0.2,0.1-0.4c0,0,0-1.2-0.8-1.2c-0.4,0-0.6,0.4-0.7,0.8c0-0.4-0.4-0.7-0.8-0.7c-0.2,0-0.2,0.1-0.2,0.1
			c-0.1,0.2-0.2,0.6-0.2,0.8v0.6C10.3,76.5,10.4,76.7,10.4,76.7"/>
	</g>
	<g>
		<path class="st0" d="M12.6,75.9c0-0.1-0.1-0.1-0.3-0.1c-0.1,0-0.3,0.1-0.3,0.1c0,0.1,0.1,0.1,0.3,0.1C12.4,76,12.6,75.9,12.6,75.9
			"/>
	</g>
	<g>
		<path class="st0" d="M13.4,76.5c0.1,0,0.2-0.1,0.4-0.2c0.2-0.1,0.4-0.2,0.5-0.1c0.1,0.1,0.3,0.1,0.4,0.1c0.1,0,0-0.2-0.1-0.3
			c-0.1-0.1-0.1-0.4,0.1-0.6c0.1-0.1,0.2-0.4,0.2-0.4c-0.1-0.1-0.3,0-0.4,0.1c-0.2,0.2-0.4,0.2-0.6,0.1C13.6,75,13.5,75,13.4,75
			c-0.1,0.1,0,0.2,0.1,0.4c0.1,0.1,0.1,0.4-0.1,0.6C13.4,76.2,13.3,76.4,13.4,76.5"/>
	</g>
	<g>
		<path class="st0" d="M11.7,77.5c0-0.1-0.2-0.2-0.4-0.2h-0.6c-0.2,0-0.4,0.1-0.4,0.2c0,0.1,0.2,0.1,0.4,0.1h0.6
			C11.5,77.6,11.7,77.6,11.7,77.5"/>
	</g>
	<g>
		<path class="st0" d="M10.8,78.1v0.2c0,0.2,0.1,0.4,0.1,0.4c0.1,0,0.1-0.2,0.1-0.4v-0.2c0-0.2-0.1-0.4-0.1-0.4S10.8,77.9,10.8,78.1
			"/>
	</g>
	<g>
		<path class="st0" d="M12.1,77.3c-0.1,0-0.1,0.2-0.1,0.4v0.6c0,0.2,0.1,0.4,0.1,0.4c0.1,0,0.2-0.2,0.2-0.4v-0.6
			C12.3,77.6,12.3,77.3,12.1,77.3"/>
	</g>
	<g>
		<path class="st0" d="M12.7,77.2L12.7,77.2l-0.1,0.6v0.6v0.5h0.1c0,0.1,0.1,0.1,0.1,0.1c0.1,0,0.4,0,0.7-0.1l0.1,0l0,0
			c0.3-0.1,0.5-0.2,0.6-0.3c0.1-0.1,0.1-0.2,0.1-0.3v-0.1c0-0.2-0.1-0.4-0.2-0.4L14,77.6c-0.1,0-0.1-0.1-0.1-0.1
			c0-0.1,0.1-0.1,0.1-0.1c0-0.1-0.1-0.1-0.1-0.2c-0.1-0.1-0.1-0.1-0.2-0.2h-0.1l0,0c-0.1,0-0.1,0-0.2,0c0,0-0.1,0-0.1,0l-0.1,0
			C12.9,77.1,12.7,77.1,12.7,77.2 M13.4,77.2h0.1h0.1v0.1v0.1c0,0.1-0.2,0.2-0.3,0.2c-0.1,0.1-0.1,0.1-0.1,0.2
			c0,0.1,0.1,0.1,0.2,0.1c0.1,0,0.3,0,0.4,0.1c0.1,0.1,0.1,0.1,0.1,0.2v0.1c0,0,0,0.1-0.1,0.1c0,0-0.1,0.1-0.1,0.1
			c-0.1,0.1-0.3,0.1-0.3,0.1l-0.1,0.1l0,0c-0.2,0-0.4-0.1-0.4-0.4v-0.3C12.9,77.6,13.1,77.3,13.4,77.2"/>
	</g>
	<g>
		<path class="st0" d="M11.8,80.7c0.1,0.1,0.1,0.2,0.2,0.2c0.1-0.1,0.1-0.3,0.1-0.5L12,80.3c-0.1-0.2-0.1-0.7-0.1-0.7h-0.1h-0.1
			c-0.1,0-0.1,0.3-0.2,0.4c-0.1,0.1-0.4,0.3-0.4,0.1c-0.1-0.1-0.2-0.5-0.3-0.5h-0.1c-0.1,0.1-0.1,0.6-0.2,0.9l-0.1,0.4
			c-0.1,0.3-0.1,0.5,0,0.5s0.2-0.1,0.3-0.3c0-0.1,0.2-0.6,0.3-0.5c0.1,0.1,0.1,0.1,0.1,0.1h0.1h0.1c0,0,0.1-0.1,0.1-0.1
			C11.5,80.4,11.8,80.6,11.8,80.7"/>
	</g>
	<g>
		<path class="st0" d="M13.2,79.3L13.2,79.3h-0.1H13c0,0.1-0.1,0.1-0.1,0.3l-0.4,0.7c-0.1,0.3-0.2,0.7-0.1,0.7c0.1,0.1,0.1,0,0.1,0
			c0.1-0.1,0.3-0.4,0.3-0.5c0,0.1,0.1,0.1,0.2,0.1c0.1,0,0.2,0.1,0.3,0.3c0,0.2,0.1,0.4,0.2,0.3c0.1,0,0.1-0.2,0.1-0.4l-0.2-1
			C13.4,79.4,13.2,79.4,13.2,79.3 M13,80.2c-0.1,0-0.1-0.1-0.1-0.1C13,80.1,13,80,13,80l0.1-0.1C13.2,80,13.1,80.2,13,80.2"/>
	</g>
	<g>
		<path class="st0" d="M10.9,83.4c0.2,0,0.4-0.1,0.4-0.2c-0.1-0.1-0.1-0.1-0.3-0.1c0,0-0.4-0.1-0.4-0.2c-0.1-0.1-0.1-0.1-0.1-0.3
			c0.1-0.5,0.4-0.4,0.4-0.4c0.2,0,0.3-0.2,0.3-0.3c0-0.1-0.2-0.1-0.4-0.1c0,0-0.6,0.1-0.7,0.7c0,0.3,0.1,0.4,0.2,0.6
			C10.6,83.5,10.9,83.4,10.9,83.4"/>
	</g>
	<g>
		<path class="st0" d="M12.6,81.8h-0.7c0,0-0.1,0.1-0.1,0.1c0,0.1-0.1,0.9-0.2,1.3c0,0,0,0.1,0.1,0.1v0.1c0.1,0,0.3,0,0.5,0.1h0.1
			c0.3,0,0.4-0.1,0.4-0.1c0.1-0.1-0.1-0.1-0.2-0.1c-0.1-0.1-0.5-0.3-0.4-0.5v-0.1c0.1,0,0.1,0.1,0.2,0.1c0.2,0.1,0.4,0,0.4-0.1
			c0-0.1-0.1-0.2-0.2-0.2H12c0.1-0.1,0.2-0.4,0.3-0.4c0.1,0.1,0.7,0,0.7-0.1C13,81.8,12.8,81.8,12.6,81.8"/>
	</g>
	<g>
		<path class="st0" d="M16.8,76.4c0.2,0.1,0.4,0.1,0.4,0.1c0.3,0,0.4-0.1,0.4-0.1s-0.1-0.1-0.2-0.1S17,76.1,17,76.1V76v-0.4
			c0.1,0,0.3,0.1,0.4,0.1c0.1,0,0.2-0.1,0.3-0.1c0-0.1-0.1-0.1-0.3-0.1c-0.1,0-0.2,0-0.3,0c0.1-0.1,0.2-0.2,0.4-0.2
			c0.1,0,0.4,0,0.4-0.1c0-0.1-0.2-0.2-0.4-0.2c-0.2-0.1-0.5-0.1-0.6-0.1v0.1C16.5,76.2,16.7,76.3,16.8,76.4"/>
	</g>
	<g>
		<path class="st0" d="M18.4,75.9c0.1,0.2,0.2,0.4,0.3,0.5h0.1c0.1-0.1,0.2-0.3,0.3-0.5l0.2-0.2c0.1-0.2,0.1-0.4,0.1-0.5
			c-0.1,0-0.2,0.1-0.3,0.1c-0.1,0.1-0.4,0.4-0.4,0.1c0,0-0.1-0.1-0.1-0.2c-0.1-0.1-0.2-0.2-0.3-0.1c-0.1,0-0.1,0.2,0,0.4L18.4,75.9z
			"/>
	</g>
	<g>
		<path class="st0" d="M19.9,75.9c0.1-0.1,0.1-0.1,0.1-0.1c0,0.1,0.1,0.1,0.3,0.1s0.2,0.1,0.2,0c0,0,0.1,0.1,0.1,0.2
			c0.1,0.1,0.1,0.1,0.2,0.1c0.1,0,0.1-0.1,0.1-0.1c0-0.1,0.1-0.1,0.1-0.1c0.1,0,0.1,0,0.1-0.1c0-0.1,0.1-0.3,0.2-0.1
			c0,0.1,0.1,0.4,0.1,0.4h0.1h0.1c0.1-0.1,0.1-0.3,0.2-0.5l0.1-0.2c0.1-0.2,0.1-0.4,0-0.4c-0.1-0.1-0.2,0-0.2,0.1
			c0,0.1-0.2,0.3-0.3,0.1c-0.1-0.2-0.1-0.4-0.2-0.5h-0.1h-0.1c0,0.1-0.1,0.4-0.1,0.6L21,75.7c0,0.2-0.1,0.2-0.2,0l-0.1-0.2
			c-0.1-0.2-0.2-0.4-0.3-0.5h-0.1c-0.1,0-0.2,0.2-0.4,0.4l-0.2,0.3c-0.1,0.2-0.2,0.4-0.1,0.4C19.7,76.2,19.8,76.1,19.9,75.9
			 M20.4,75.5c0.1,0,0.1,0.1,0,0.1C20.3,75.6,20.3,75.5,20.4,75.5C20.4,75.4,20.4,75.4,20.4,75.5"/>
	</g>
	<g>
		<path class="st0" d="M17.5,77.6c0.1,0.1,0.1,0.1,0.1,0.1c0,0,0.2,0.1,0.2,0.3c0,0.1-0.1,0.4-0.4,0.4l-0.2-0.1
			c-0.1,0-0.2-0.1-0.2-0.4c-0.1-0.7,0.4-0.8,0.4-0.8c0.2,0,0.4-0.1,0.4-0.2s-0.2-0.1-0.4,0c0,0-0.7,0.3-0.6,1.1
			c0,0.3,0.1,0.5,0.4,0.6c0.4,0.2,1,0.1,1,0.1l0.1-0.1v-0.6v-0.6h-0.1h-0.4C17.6,77.5,17.5,77.6,17.5,77.6"/>
	</g>
	<g>
		<path class="st0" d="M18.7,76.9c0,0-0.1,0.3-0.1,0.5v0.7c0,0.2,0.1,0.4,0.1,0.4v0.1h0.1h0.5c0.2-0.1,0.4-0.1,0.4-0.2
			c0-0.1-0.1-0.1-0.2-0.1c-0.1,0-0.4-0.1-0.4-0.1c0-0.1,0.1-0.3,0.3-0.3c0.1,0,0.3-0.1,0.3-0.1c0-0.1-0.1-0.1-0.3-0.1
			S19,77.5,19,77.5c0-0.1,0.3-0.4,0.4-0.4c0.1,0,0.2-0.1,0.2-0.1c0-0.1-0.2-0.1-0.4-0.1C19,76.9,18.8,76.9,18.7,76.9"/>
	</g>
	<g>
		<path class="st0" d="M20.2,76.8c-0.1,0-0.1,0.2-0.1,0.5v0.5v0.5c0,0.1,0.3,0.1,0.5,0.1c0.2,0,0.4,0,0.4-0.1
			c0.1-0.1-0.1-0.2-0.1-0.2c-0.1,0-0.4-0.2-0.4-0.5v-0.4C20.4,77,20.3,76.8,20.2,76.8"/>
	</g>
	<g>
		<path class="st0" d="M21.6,78.5c0.1,0,0.1-0.2,0.1-0.5v-0.8c0-0.2-0.1-0.3-0.2-0.3c-0.1,0-0.1,0-0.1,0.3v0.9
			C21.5,78.3,21.5,78.5,21.6,78.5"/>
	</g>
	<g>
		<path class="st0" d="M17.9,80.3c-0.2,0.1-0.4,0-0.4,0c-0.3-0.1-0.5-0.1-0.5,0c-0.1,0.1,0.1,0.3,0.4,0.4c0,0,0.3,0.1,0.6-0.1
			c0.1-0.1,0.2-0.1,0.3-0.3c0.1-0.4-0.4-0.5-0.6-0.6c-0.2-0.1-0.4-0.1-0.4-0.3c0.1-0.1,0.4-0.1,0.4-0.1c0.2,0,0.4-0.1,0.5-0.1
			c0-0.1-0.2-0.2-0.4-0.2c0,0-0.4-0.1-0.7,0.2C17,79.2,17,79.3,17,79.5c0,0.3,0.4,0.4,0.6,0.5C17.9,80.1,18,80.1,17.9,80.3
			C17.9,80.2,17.9,80.3,17.9,80.3z"/>
	</g>
	<g>
		<path class="st0" d="M19.2,79.4c0,0.1,0,0.3,0,0.5v0.1c0,0.3,0.1,0.5,0.1,0.5s0.1-0.2,0.1-0.5v-0.1c0-0.2,0-0.4-0.1-0.5
			c0.2,0,0.4,0,0.4-0.1c0-0.1-0.2-0.1-0.4-0.1h-0.1c-0.2,0-0.4,0.1-0.4,0.1c0,0.1,0.1,0.2,0.3,0.2L19.2,79.4z"/>
	</g>
	<g>
		<path class="st0" d="M20.5,79c-0.4,0.4-0.4,0.9-0.4,0.9c0,0.2,0.1,0.4,0.1,0.4c0.1,0,0.1-0.2,0.2-0.4c0,0-0.1-0.4,0.1-0.7
			c0.1-0.1,0.2-0.1,0.3-0.1c0.1,0,0.2,0.1,0.3,0.1l0.1,0.1c0,0-0.1,0.1-0.4,0.1c-0.2,0-0.4,0.1-0.4,0.1c0,0.1,0.1,0.1,0.4,0.1
			s0.4,0,0.4-0.1c0-0.1,0-0.1,0.1,0.1c0,0.1,0,0.4,0.1,0.4c0.1,0,0.3,0.2,0.4,0c0,0,0-0.7-0.3-1.1c-0.1-0.1-0.3-0.2-0.5-0.3
			C20.8,78.8,20.7,78.9,20.5,79"/>
	</g>
	<g>
		<path class="st0" d="M18.4,80.8c-0.1,0.1-0.2,0.2-0.3,0.4c-0.1,0.1-0.4,0.3-0.6,0.1c-0.1-0.1-0.2-0.2-0.3-0.3h-0.1v0.1
			c-0.1,0.1-0.1,0.3-0.1,0.6v0.6c0,0.3,0.1,0.4,0.1,0.4c0.1,0,0.1-0.1,0.1-0.3c0-0.1,0.1-0.7,0.1-0.6c0,0.1,0.1,0.1,0.1,0.1h0.1
			c0.1,0,0.1-0.1,0.2-0.1c0-0.1,0.3-0.1,0.2,0.1v0.4c0,0.2,0.1,0.4,0.1,0.4c0.1,0,0.1-0.2,0.1-0.4l0.1-0.8v-0.6L18.4,80.8L18.4,80.8
			z"/>
	</g>
	<g>
		<path class="st0" d="M19.5,81.8c0.1,0,0.2,0,0.3-0.1c0-0.1-0.1-0.2-0.2-0.2c-0.1-0.1-0.2-0.1-0.3,0v-0.1c0-0.1,0.2-0.3,0.4-0.3
			c0.2,0,0.4-0.1,0.4-0.1c0-0.1-0.2-0.1-0.4-0.1c-0.2-0.1-0.4,0-0.4,0C19,80.7,19,81,19,81.2l-0.1,0.8v0.6l0.1,0.1h0.4
			c0.2,0,0.4-0.1,0.4-0.1c0-0.1-0.1-0.1-0.1-0.1c-0.1,0-0.4-0.1-0.3-0.2C19.2,82,19.3,81.7,19.5,81.8"/>
	</g>
	<g>
		<path class="st0" d="M20.9,81.2c-0.1,0-0.1,0.1-0.1,0.1c0,0.1-0.1,0.4-0.2,0.2c0-0.2-0.1-0.4-0.1-0.4h-0.1h-0.1
			c0,0.1-0.1,0.3-0.1,0.5L20,82.1c-0.1,0.2-0.1,0.4,0,0.4c0.1,0.1,0.2,0,0.2-0.1c0.1-0.1,0.2-0.4,0.2-0.2c0.1,0.2,0.1,0.4,0.2,0.5
			h0.1h0.1c0-0.1,0.1-0.3,0.1-0.6l0.1-0.5C21.1,81.5,21.1,81.2,20.9,81.2"/>
	</g>
	<g>
		<path class="st0" d="M21.9,81.8c-0.1-0.1-0.2-0.1-0.2-0.2c-0.1-0.1,0-0.1,0-0.1c0.2-0.1,0.4-0.3,0.4-0.4s-0.2-0.1-0.4,0
			c0,0-0.4,0.1-0.3,0.6c0.1,0.2,0.3,0.4,0.4,0.4c0.2,0.1,0.2,0.1,0.1,0.2c-0.1,0.2-0.2,0.1-0.2,0.1c-0.2-0.1-0.4-0.1-0.5,0
			c0,0.1,0.1,0.1,0.4,0.3c0,0,0.4,0.1,0.7-0.3C22.3,82.2,22.1,82,21.9,81.8"/>
	</g>
	<g>
		<path class="st0" d="M47.5,73.4c-0.1-0.1-0.3,0-0.4,0.1c-0.1,0-0.6-0.2-0.5,0l0.7,1.8c0.1,0.2,0.1,0.4,0.3,0.3
			c0.1-0.1,0.2-0.3,0.1-0.4L47.5,73.4z"/>
	</g>
	<g>
		<path class="st0" d="M4.3,72.1l2.3-2.4l0.1-0.2L7,69.7c0.1,0.1,0.2,0.2,0.6,0.2c0.3-0.1,0.6-0.1,0.7-0.2c0.4-0.1,0.4-0.1,0.6,0.1
			l0.7,0.7c0.5,0.9,1,1.8,1.5,2.3l0.9,1c-1.4,0.1-2.4,0.1-2.4,0.1c-0.1,0-0.2,0.1-0.2,0.1c-0.1,0-0.1,0.1-0.1,0.2
			c0,0,0.4,3.4,0.2,5.2C9.1,81.1,9,82.8,9,84.5c0,0.7-0.2,2.3,0.6,2.1c0.9-0.3,1.9-0.5,2.9-0.5c0.7-0.1,1.4,0.1,2.1,0.3
			c0.4,0.1,0.6,0.6,1,0.6c0.4-0.1,1.1-0.6,1.5-0.7c0.4-0.1,1.1,0,1.6,0h0.7c0.9,0,1.9,0.1,2.6,0.1c0.2-0.1,0.6-0.1,0.9-0.1
			c0.1-0.1,0.2-0.1,0.3-0.1c0.4-0.1,0.9-0.3,1-0.7c0.1-0.7,0-1.6,0-2.4c0-1.1,0-2.2,0-3.3c0.4,0.2,1.1,0.6,1.6,1.2
			c0.9,1,1.7,1.5,3.3,1.5c0.7,0,1.3,0,1.7,0c0.4,0,0.7,0,0.8,0l0.1,0l0.1,0c0,0.2,0.1,0.4,0,0.5c-0.2,0.2-0.6,0.4-0.9,0.5
			c-0.6,0.2-1.2,0.5-1.3,1c-0.1,0.3,0,0.6,0.2,0.9c0.2,0.3,0.5,0.4,0.7,0.4c0.1,0,0.1,0,0.2,0c0,0.1,0.1,0.1,0.1,0.2
			c0.2,0.3,0.6,0.4,1.1,0.4c0.1,0,0.2,0,0.3,0c0.3,0,0.5-0.1,0.8-0.1c0.5,0,1.2-0.3,1.7-0.3c0.4-0.1,0.9-0.1,1.4-0.1
			c0.3-0.1,1-0.3,1.1-0.5c-0.1,0-0.4-0.1-0.5-0.1c0.1-0.1,0.3-0.1,0.4-0.2c-0.1-0.1-0.4-0.1-0.6-0.1c0.4,0,1.2-0.1,1.5-0.3
			c-0.3-0.1-0.7-0.3-1-0.2c0.3-0.2,0.7-0.1,1-0.3c-0.4-0.1-0.7-0.1-1-0.4c-0.2-0.1-0.3-0.2-0.4-0.4l0,0c0.4,0.1,0.9,0.3,1.7,0.3
			c0.1,0,0.2,0,0.3,0c0.6,0,1.1-0.1,1.5-0.1c0.4,0,0.7-0.1,1,0c-0.3,0.5-0.3,1.1-0.3,1.2c0,0.1,0.1,0.2,0.2,0.2h0
			C41,85,41,85.2,41,85.3c0,0.5,0.6,0.7,0.8,0.7c0.4,0.1,0.8,0.2,1.1,0.2c0.5,0,0.8-0.1,1.2-0.2c1.3,0,2.5-0.1,3.9,0
			c0.9,0,1.7,0.1,2.6,0.2c0.7,0.1,1.5,0.6,2.3,0.6c-0.5-0.4-1-0.5-1.6-0.6c0.8,0,1.6,0.2,2.4,0.2c-0.3-0.5-1.1-0.7-1.7-0.6
			c0.4-0.1,0.8-0.1,1.2-0.1c-0.4-0.3-0.8-0.4-1.2-0.4c0.3,0,0.6-0.1,0.8-0.1c-0.6-0.2-1.1-0.4-1.7-0.5c0.6-0.1,1.2-0.2,1.8-0.2
			c0.6,0,1.2,0.1,1.9,0.3c0.8,0.2,1.7,0.3,2.7,0.3c0.2,0,0.4,0,0.6,0c0,0,0.1,0,0.1-0.1c-0.1,0.4,0.1,0.8,0.1,0.8
			c0,0.1,0.1,0.1,0.1,0.1l0.1,0l0,0c-0.1,0.1-0.1,0.2-0.1,0.3c0.1,0.3,0.4,0.9,1.4,0.9h0.1c0.8,0.4,2.5,0.1,3.3,0
			c0.3-0.1,1.2-0.3,1.5-0.1c-0.3-0.1-0.7-0.2-0.9-0.4h0.8c-0.1-0.1-0.4-0.3-0.5-0.4c0.4-0.1,1-0.1,1.2-0.4c-0.1-0.2-0.4-0.4-0.7-0.4
			c0.4-0.2,1.1-0.4,0.3-0.8c-0.3-0.2-0.6-0.2-0.8-0.2c0.3-0.1,0.5-0.3,0.7-0.7c0.3-0.7-0.1-1.2-0.5-1.8c-0.3-0.4-0.5-0.7-0.5-1.1
			c0-1-0.3-1.8-0.3-1.9c0-0.1-0.1-0.1-0.1-0.1c0.1-0.3,0.2-0.6,0.1-1c-0.2-0.5-1-1.1-2.1-1.8c-0.9-0.6-1.8-1.3-2.6-2
			c-1.3-1.2-1.1-3.6-1-4.6c0.3,0.3,0.6,0.7,0.9,1.1c0.9,1.1,1.8,2.3,2.9,3.1c0.9,0.7,1.9,1.1,2.8,1.1s1.9-0.4,2.5-1.1
			c1.5-1.6,1.6-5-2.6-9.4c-1.3-1.3-1.5-2.7-1.5-3.6c0-1.3,0.6-2.1,0.8-2.3c0.3-0.3,0.6-0.3,0.7-0.2s0,0.3-0.1,0.5
			c-0.5,0.7-0.4,1-0.1,1.5c0.1,0.1,0.2,0.3,0.2,0.6c0.2,0.7,0.1,1,0.1,1c0,0.1,0,0.3,0.1,0.3s0.3,0,0.3-0.1l0.4-0.6
			c0,0.2,0.1,0.3,0.1,0.3c0.1,0.4,0.1,0.4-0.1,0.9c-0.1,0.4,0,0.4,0.1,0.7c0.1,0.3,0.8,0.7,0.8,0.7s-0.1-0.6-0.1-1
			c0-0.4,0.7-0.6,0.7-0.6c0,0,0,0,0.1,0.1c0.2,0.3,0.4,0.4,0.8,0.6l0.1,0c0,0.1,0.1,0.1,0.1,0.1c0.1,0,0.3,0,0.3-0.2
			c0.1-0.2-0.1-0.4-0.2-0.5c-0.2-0.1-0.3-0.3-0.3-0.6c0-0.7-0.3-1.8-1.1-2.3c-0.1-0.1-0.1-0.3-0.1-0.7c0.1-0.8,0.2-2-2-2.4
			c-1.2-0.2-2.4,0.5-3.1,1.8c-1,1.8-1.1,4.6,1,7c3.2,3.7,3.7,6.2,2.8,7c-0.6,0.6-2.1,0.2-3.5-1.3c-0.8-0.8-1.6-1.8-2.4-2.7
			c-1.4-1.7-2.8-3.4-4.2-4.4c-1.8-1.2-4.3-1.5-6.6-1.5c0.9-0.3,1.1-0.9,1.1-1c0-0.1,0-0.2-0.1-0.2c0.1,0,0.2,0,0.4,0
			c2.7,0.1,3.1-0.5,3.1-0.8c0-0.1-0.1-0.3-0.2-0.3c-0.1,0-0.3,0.1-0.3,0.2c0,0-0.3,0.5-2.6,0.4c-2.7-0.1-4.9,0.2-5,0.2
			c-0.1,0-0.2,0.1-0.2,0.3c0,0.1,0.1,0.2,0.2,0.2h0c0,0,1.9-0.2,4.2-0.2c0,0-0.1,0.1-0.1,0.1c0,0-0.2,0.7-1.4,0.7
			c-1.3-0.1-2.8,0.2-2.9,0.2c0,0-0.1,0-0.1,0.1c0-0.2-0.1-0.5-0.1-0.7c-0.1-0.2-0.1-0.4-0.1-0.5c0-0.1,0.4-0.3,0.5-0.5
			c0.1-0.1,0.3-0.2,0.4-0.3c0.1-0.1,0.3-0.2,0.4-0.3c0.1,0,0.1-0.1,0.2-0.2c0,0,0.1,0.1,0.2,0.1h0c0,0,1.4-0.2,5.5-0.1
			c2.2,0.1,3.6-0.1,4.2-0.7c0.2-0.2,0.2-0.4,0.2-0.5c0-0.1-0.1-0.3-0.3-0.2c-0.1,0-0.2,0.1-0.2,0.3c0,0-0.2,0.8-3.9,0.6
			c-3.2-0.1-4.7,0-5.3,0c0.1-0.2,0-0.4,0-0.6c0-0.2,0-0.2,0.1-0.4l0.1-0.1c0,0,0.1,0.1,0.2,0.1l0.1,0c1.2-0.3,2.4-0.3,4.2-0.2
			c1.4,0.1,3.2,0.2,5.6,0.1c3.5-0.1,3.6-1.7,3.6-1.8l0-0.1c2.3-0.4,2.4-1.7,2.4-1.8c0-0.1-0.1-0.2-0.2-0.3c-0.1,0-0.3,0.1-0.3,0.2
			c0,0-0.1,1.2-2.7,1.4c-2.7,0.2-5.2,0.1-7.3,0c-2.1-0.1-3.8-0.2-4.8,0.1l0,0c0-0.1,0.1-0.1,0.1-0.2c0.2-0.3,0.4-0.6,0.4-1
			c0.1,0,1.7-0.3,10.6,0c0.1,0,0.1,0,0.2,0c4.3,0,5.7-2.1,5.8-2.2c0.1-0.1,0-0.3-0.1-0.3c0,0-0.1,0-0.2,0c1.8-0.4,3.2-0.8,3.6-1.3
			c0.1-0.1,0.2-0.3,0.2-0.5c0-0.4-0.4-0.6-1.1-0.6c-0.6,0-1.5,0.1-2.6,0.3c-1.7,0.3-4.1,0.7-6.6,0.7c-1.2,0-2.3-0.1-3.4-0.3
			c-1.8-0.3-3.4-0.7-5-1.1c-2.5-0.7-5-1.3-7.7-1.3c-1.9,0-3.8,0.3-5.8,0.9c-1,0.3-1.7,1.1-1.6,1.8c0.1,0.9,0.9,1.5,2.3,1.7
			c0.3,0,0.7,0,1,0l0,0c0,0,0.4,0.2,0.7,0.6c0.1,0.4,0.4,0.6,0.4,1.1c0,0.5-0.1,0.9-0.3,1.3c-0.4,0.8-1,1.2-1.7,1.7
			c-0.1,0.1-0.4,0.2-0.7,0.4c0,0-0.1,0-0.1,0.1l0,0c-0.6,0.3-1.2,0.8-1.3,1.5c-0.1,0-0.2-0.1-0.3-0.1c-1.1-0.4-0.7-1.2-1.4-1.8
			c-0.4-0.3-0.9-0.7-1.3-1c0-0.2,0-0.5,0-0.7c0-4.4-3.7-8-8.3-8c-4.6,0-8.3,3.6-8.3,8c0,4.1,3.2,7.4,7.3,7.9c0,0.1,0,0.1,0,0.2
			c-0.7-0.5-1.5-0.2-2.2-0.3c-1-0.1-2.4-0.4-3.3-0.8c-1-0.5-1.9-1.5-2.6-2.3c-0.2-0.2-0.7-1.2-1.1-1.2c0,0-0.1,0-0.1,0
			c0-0.2,0-0.5,0-0.7c0.1-1.8-0.4-3.2-1.3-3.8c-0.6-0.3-1.3-0.3-2,0.1c-0.7,0.5-1.4,1.6-1.2,3.2c1,7.3,7,14.4,7.9,15.4
			c0,0-0.1,0-0.1,0c-0.3-0.3-1-0.6-2.6-0.3c-0.2,0-0.5,0-0.8,0.1c-0.1-0.1-0.2-0.2-0.3-0.4l-0.8-0.9c-0.4-0.4-1-1.4-1.4-2.2
			l-0.6-1.4c-0.4-0.7-1.1-0.2-1.5-0.1c-0.1,0.1-0.4,0.1-0.5,0.1c-0.2,0-0.3-0.1-0.4-0.1c-0.3-0.1-0.7-0.4-1,0.1L4,71.6
			c0,0.1-0.1,0.3,0,0.4C4,72.1,4.5,72,4.3,72.1 M67.1,61.9c0,0.1,0,0.1,0,0.2c0,0.2,0,0.3,0.1,0.5c-0.1-0.1-0.1-0.2-0.1-0.3
			C67.1,62.2,67.1,62,67.1,61.9 M15.2,85.7c-0.3,0.1-0.5-0.1-0.7-0.1c-0.3-0.1-0.6-0.1-0.8-0.1c-0.4-0.1-0.7-0.1-1.1-0.1
			c-0.4,0-0.7,0.1-1.1,0.1c-0.4,0.1-0.6,0.1-1,0.2c-0.2,0.1-0.4,0.1-0.7,0.1v-0.1c0-0.3,0.7-0.5,0.9-0.6c0.4-0.2,0.9-0.4,1.3-0.4
			c0.2,0,0.4,0.1,0.6,0.1c0.5,0,1.1,0.1,1.7,0.3C14.4,85.1,15.8,85.4,15.2,85.7 M23.1,85.4c-0.9-0.2-1.9-0.2-2.9-0.2h-0.7
			c-0.9-0.1-1.9-0.1-2.6,0.3c-0.2,0.1-0.5,0.2-0.8,0.1c-0.1,0-0.2-0.1-0.2-0.1c0.1-0.1,1-0.5,1.1-0.6c0.7-0.2,1.4-0.5,2.1-0.4h0.5
			c1.1,0.1,2.5,0.3,3,0.4c0,0.1,0,0.1,0.1,0.1L23.1,85.4L23.1,85.4C23.1,85.4,23.1,85.4,23.1,85.4z M23.7,77.2v7.9l-0.3-0.3
			l-0.2-0.1v-0.1V77c-0.1-0.1-0.1-0.2-0.1-0.4v-0.1v-0.3c0-0.2-0.1-1,0-1.1c0.1-0.1,0.1-0.1,0.2-0.1h0.1
			C24,75.4,23.7,76.7,23.7,77.2 M46,85c-0.2,0-0.4,0-0.6,0.1c-0.4,0-0.7,0.2-1,0.3c-0.7,0.2-1.3,0.5-2.4,0.1
			c-0.4-0.1-0.5-0.2-0.5-0.3c0-0.1,0.4-0.5,0.9-0.7c0.1-0.1,0.2-0.2,0.1-0.3c-0.1-0.1-0.2-0.2-0.3-0.1c-0.2,0.1-0.5,0.3-0.8,0.5l0,0
			c0,0-0.1-0.7,0.3-1.1c0.2-0.2,1.2-0.2,1.9-0.3c1.2-0.1,1.9-0.1,2.2-0.4c0.1-0.2,0.2-0.5,0.4-0.9c0.3-0.8,0.8-2.1,1.7-2.8
			c0,0,0.1-0.1,0.1-0.2s0-0.1-0.1-0.2c-0.8-1-2.1-5.6-2.2-5.6l0-0.1c1.6-0.4,2.8-0.7,3.1-0.7l-0.4,0.2c-0.1,0-0.1,0.1-0.1,0.1
			c0,0.1,0.1,0.1,0.1,0.1c0,0,0.4,0,0.6,0.3c0.2,0.2,0.2,0.5,0.2,0.9c-0.2,1.5-0.4,2.9-0.4,3c0,0.1,0,0.1,0.1,0.1h0
			c0.1,0,0.1,0,0.1-0.1c0,0,0.4-1.4,0.9-1.7c0.5-0.2,0.7-0.3,0.8-0.3c0.1,0.1,0.1,0.2,0.2,0.3c-0.4,0.5-1.3,1.9-1.1,3.3
			c0,0.2,0.1,0.4,0.2,0.6c0.1,0.3,0.2,0.6,0.2,0.8c-0.4,0.1-1.4,0.4-1.8,0.8c-0.1,0.1-0.1,0.3,0,0.4c0,0,0.1,0.1,0.2,0.1
			c0.1,0,0.1,0,0.2-0.1c0.2-0.2,0.9-0.5,1.4-0.6c-0.1,0.3-0.4,0.6-0.9,1.1l-0.1,0.1c-1.4,1.3-1.9,1.7-2,2.6C47.4,84.9,47,84.9,46,85
			 M49.1,72.2L49.1,72.2L49.1,72.2L49.1,72.2z M58.3,84.8L58.3,84.8c0-0.1-0.1-0.1-0.2-0.1c-1.2,0.1-2.2-0.1-3.1-0.3
			c-0.7-0.1-1.4-0.3-2-0.3c-0.7,0-1.3,0.1-1.9,0.2c-0.8,0.1-1.5,0.3-2.6,0.3l-0.1,0c0,0-0.1,0-0.1,0c-0.1,0-0.2,0-0.3,0.1
			c0-0.1,0-0.2,0-0.3c0.1-0.7,0.5-1.1,1.8-2.3l0.1-0.1c1.4-1.2,1.3-1.8,1-3c0-0.2-0.1-0.4-0.2-0.6c-0.2-1.1,0.6-2.4,0.9-2.9
			c1.3,1.2,3,2,4.3,2.5c0.6,0.3,1.2,0.5,1.5,0.7c1.5,0.9,3.2,4.1,3.2,4.7C59.4,83.7,58.6,84.1,58.3,84.8 M47.2,56.9
			c0.9-0.3,2.6-0.3,4.8-0.2c2.1,0.1,4.7,0.2,7.4,0c0.1,0,0.2,0,0.3,0c0,0-0.1,1.2-3.1,1.3c-2.4,0.1-4.2,0-5.6-0.1
			c-1.6-0.1-2.8-0.1-4,0.1c0.1-0.1,0.2-0.3,0.2-0.5C47.2,57.2,47.2,57,47.2,56.9L47.2,56.9z M64,52.7c0,0-1.3,1.9-5.4,1.9h-0.2
			c-8.2-0.3-10.2-0.1-10.6,0c-0.2-0.4-0.7-0.9-1.2-0.9c-0.1,0-0.3,0.1-0.3,0.2c0,0.1,0.1,0.3,0.2,0.3c0.4,0.1,0.8,0.5,0.8,0.8
			c0,0.3-0.2,0.6-0.4,0.9c0,0.1-0.1,0.2-0.2,0.3c-0.2,0.4-0.1,0.6-0.1,0.8c0,0.1,0.1,0.2,0.1,0.4c0,0.2-0.1,0.3-0.3,0.4
			c-0.1,0.1-0.2,0.2-0.4,0.4c-0.3,0.4-0.2,0.7-0.2,0.9c0,0.1,0,0.2,0,0.3c0,0.1-0.3,0.2-0.4,0.4c-0.2,0.1-0.4,0.3-0.5,0.4
			c-0.1,0.1-0.2,0.2-0.3,0.3c-0.4,0.3-0.6,0.5-0.7,0.8c0,0.3,0,0.5,0.1,0.8c0.1,0.2,0.1,0.3,0.1,0.5c-0.9-0.1-2-0.3-3-0.5
			c0.1-0.1,0.2-0.3-0.1-0.6c-0.1,0-1.4-0.8-1.2-0.9c0.4,0,2.4,0.4,2.4-0.1c0-0.3-0.4-0.4-0.7-0.4c-0.3-0.1-0.7,0.1-0.9-0.1
			c0,0-0.5-0.3-0.3-0.4c0.4,0,2.3,0.5,2-0.5c-0.7-0.1-1.8,0-2.4-0.5c0.1-0.2,1.2-0.1,1.5-0.1c0.1,0,1.9-0.1,1.7-0.3
			c-0.2-0.3-2.4-0.8-2.4-0.6c0-0.6,1.8-0.2,1.6-1c-0.1-0.6-1.3-0.1-1.7-0.5c0.4,0,2.6-0.3,2.1-1.2c-0.1-0.1-0.6-0.2-0.8-0.2
			c-0.6-0.1-1.2-0.1-1.8-0.2c0.4-0.2,3-0.3,2.9-0.7c-0.1-0.1-0.7-0.4-0.9-0.4c-0.6-0.4-1-0.9-1.8-1l-0.2-0.1
			c0.8-0.2,1.7-0.4,2.8-0.4c1.4,0,3,0.3,4.8,0.9c1.9,0.6,4.6,0.9,7.6,0.9c3,0,6.3-0.3,8.7-0.8C64.1,52.6,64,52.6,64,52.7 M36.5,52.4
			c-1.1-0.1-1.8-0.6-1.8-1.2c0-0.5,0.5-1.1,1.3-1.3c1.9-0.6,3.8-0.9,5.6-0.9c2.7,0,5.1,0.6,7.6,1.3c1.6,0.4,3.2,0.9,5.1,1.1
			c1.1,0.2,2.3,0.3,3.5,0.3c2.6,0,4.9-0.4,6.7-0.7c1.1-0.2,1.9-0.3,2.5-0.3c0.4,0,0.5,0.1,0.6,0.2c-0.1,0.7-5.7,2-12.1,2
			c-3,0-5.6-0.3-7.5-0.9c-1.9-0.6-3.5-0.9-5-0.9c-1.8,0-3.1,0.5-4.1,0.8C38,52.3,37.3,52.5,36.5,52.4 M38.2,53.1
			c-0.1-0.1-0.2-0.2-0.3-0.3c0.2-0.1,0.5-0.1,0.7-0.2C38.4,52.7,38.3,52.9,38.2,53.1 M37.5,61.4L37.5,61.4L37.5,61.4L37.5,61.4z
			 M37.4,62c0.1-0.2,1,1.1,1.2,1c0.2-0.1-0.3-0.7-0.8-1.3c0.6,0.1,4.6,1.1,6.9,1.3c0.6,0,1.3,0,2,0c2.6,0,5.8,0,8,1.4
			c1.3,0.9,2.7,2.6,4.1,4.3c0.8,0.9,1.6,1.9,2.4,2.7c1,1.1,2.2,1.7,3.2,1.7c0.4,0,0.8-0.1,1.1-0.4c1-0.9,0.8-3.4-2.8-7.7
			c-1.9-2.2-1.8-4.8-0.9-6.4c0.6-1.1,1.6-1.7,2.6-1.5c1.7,0.3,1.6,1,1.6,1.8c0,0.4-0.1,0.9,0.3,1.2c0.2,0.2,0.4,0.4,0.6,0.7
			c-0.1,0-0.3,0-0.6-0.1c-0.4-0.1-0.7-0.8-0.7-0.8l0.1,0.3c0.1,0.4,0.5,1.1,0.7,1.2c0.1,0.2-0.2,0.5-0.2,0.5s-0.1-0.1-0.4-0.6
			C65.4,61,65,60,65,60s-0.1,0.2,0,0.7c0,0.1,0.1,0.3,0.1,0.4c-0.1,0-0.1,0-0.2,0.1l-0.1,0.1c0-0.1-0.1-0.3-0.1-0.5
			c-0.1-0.3-0.2-0.5-0.3-0.6c-0.2-0.4-0.3-0.5,0.1-1c0.4-0.5,0.2-0.9,0-1.2c-0.3-0.3-1-0.2-1.4,0.2c-0.4,0.3-1,1.3-1,2.7
			c0,1,0.2,2.5,1.6,4c4,4.2,4,7.3,2.6,8.7c-1.1,1.2-3.1,1.2-4.6-0.1c-1-0.8-2-2-2.8-3.1c-0.8-1-1.6-2-2.3-2.4
			c-0.4-0.3-1-0.5-1.3-0.6c-0.4-0.2-0.7-0.9-1.2-0.9c-0.5,0-1,0.8-1,1.2c0.5,0.1,1-0.1,1.6,0c0.7,0.1,1,0.2,1.5,0.7l0.1-0.1
			c0.2,0.2,0.5,0.4,0.8,0.7l0,0c0,0,0,0.1,0,0.2c-0.5,0.6-1.9,2.1-2.9,3.2c-0.7,0.7-0.6,0.8-0.6,0.9c0,0,0.1,0.1,0.1,0.1
			c0.1,0,0.4-0.2,0.5-0.3l2-0.9c-0.5,0.6-1.4,1.9-1.3,2.4c0,0.1,0.1,0.2,0.2,0.2c0.4,0,1.1-0.6,1.6-1c-0.2,0.5-0.5,1.2-0.2,1.4
			l0.1,0c0.3,0,0.8-0.5,1-0.8c0.2,0.5,0.5,1.3,0.4,1.4c0,0,0,0.1,0,0.1l0.1,0c0.1,0,0.7-0.5,1.1-0.9l0,0c0.6,0.4,1.2,0.9,1.7,1.3
			c0.9,0.6,1.8,1.2,1.9,1.6c0.1,0.2,0,0.4-0.2,0.8c-0.2,0.3-0.4,0.8-0.4,1.4c0,1.1,0.1,1.4,0.2,1.5c0,0.1,0.1,0.1,0.2,0.1l0.1,0
			c0.1-0.1,0.2-0.2,0.1-0.3c0,0-0.1-0.3-0.1-1.3c0-0.4,0-0.6,0.2-0.9c0.1,0.3,0.2,0.8,0.2,1.5c0,0.5,0.3,1,0.6,1.4
			c0.4,0.5,0.6,0.9,0.4,1.3c-0.1,0.3-0.4,0.4-0.6,0.6c-0.2,0.1-0.5,0.3-0.7,0.6c-0.3,0.4-1.4,1.5-2.5,1.8c-1.2,0.3-1.5-0.2-1.6-0.5
			l0,0c0-0.1-0.1-0.1-0.2-0.1l1.2-0.7c0.1-0.1,0.2-0.2,0.1-0.3c-0.1-0.1-0.2-0.2-0.3-0.1l-1,0.5c0-0.1,0-0.3,0.1-0.4
			c0.2-0.3,0.7-0.8,2.2-1.1c0.2,0,0.3-0.2,0.3-0.4c0.2-1-1.9-4.4-3.4-5.2c-0.4-0.2-1-0.5-1.6-0.7c-1.3-0.5-3-1.3-4.3-2.5l0-0.1
			l-0.1,0c-0.4-0.4-0.8-0.9-1.1-1.5c-1.8-3.5-4.5-3.5-4.6-3.5c-0.1,0-0.3,0.1-0.3,0.3c0,0.1,0.1,0.2,0.2,0.3c0.1,0,1.4,0,2.8,1.4
			c-0.2,0-1.4,0.3-3.2,0.7L46,71l-0.9,0.2v1.3c-0.5,0.1-1.1,0.3-1.7,0.5l0.4-1.4L43.2,72L43,73.3c-0.5,0.1-0.9,0.3-1.4,0.5l0.5-1.4
			l-0.9,0.4l-0.1,1.1h0.1c0,0-0.1,0-0.1,0c-0.4,0.2-0.8,0.3-1.2,0.4l0.5-1.2l-0.9,0.1L39,74.5c-0.4,0.1-0.7,0.1-1.1,0.1l0.6-1.1
			l-0.8-0.1l-0.5,1.2c-0.7,0-1.2-0.1-1.6-0.1l0.3,0l1-1.2L36.1,73l-0.8,1.5c-0.2,0-0.4-0.1-0.4-0.1c-0.1,0-0.1,0-0.2,0
			c-0.1-0.2-0.1-0.4-0.2-0.7l0.6-0.9l-0.6-0.3l-0.3,0.5c-0.4-1-0.9-1.8-1-1.9c-0.1-0.1-0.2-0.2-0.3-0.1c-0.1,0.1-0.2,0.2-0.1,0.3
			c0,0,1.6,2.7,1.6,3.8c0,0.5-0.1,1-0.2,1.6c-0.1,1-0.3,2-0.1,2.8c0.1,0.2,0.1,0.5,0.2,0.8c0.3,1,0.7,2.2,0.1,2.7
			c-0.1,0.1-0.1,0.2,0,0.4c0,0.1,0.1,0.1,0.2,0.1c0.1,0,0.1,0,0.2-0.1c0.8-0.7,0.4-2.1,0-3.2c-0.1-0.3-0.2-0.5-0.2-0.8
			c-0.2-0.7,0-1.7,0.1-2.6c0-0.1,0-0.3,0-0.4l0,0l0,0c0.3,0.3,0.6,0.5,0.6,0.8c0,0.1,0,0.2,0,0.3c0,0.2-0.1,0.5,0.3,0.6
			c0.4,0.1,0.6,0.2,0.6,0.2l0,0c0,0,0.1,0,0.1-0.1c0-0.1,0-0.1-0.1-0.2c0,0-0.2-0.1-0.6-0.2c-0.2-0.1-0.2-0.1-0.1-0.3l0,0l0,0
			c0.1,0,0.1,0,0.2,0c0.1-0.2,0.2-0.4,0.4-0.5l0.1,0c0.1,0.3,0.3,0.6,0.6,0.7c0.4,0.1,0.6,0.2,0.6,0.2l0,0c0,0,0.1,0,0.1-0.1
			c0-0.1,0-0.1-0.1-0.2c0,0-0.2-0.1-0.6-0.2c0.1,0,0.1,0,0.2-0.1c0,0,0.1-0.1,0.2-0.3l0.1,0c0.1,0,0.2,0.1,0.3,0.1
			c0.5,0.2,0.8,0.5,0.8,0.5c0,0,0.1,0.1,0.2,0.1c0.1,0,0.1,0,0.2-0.1c0.1-0.1,0.1-0.3,0-0.4c0,0-0.3-0.3-0.7-0.5
			c0.1-0.1,0-0.3,0-0.7c0.2,0,0.3,0,0.4,0.1c0.4,0.3,0.9,0.7,1,0.7l0.1,0l0.1,0c0,0,0.1-0.1,0-0.2c-0.1-0.1-0.1-0.3-0.2-0.5h0
			c0.1,0,0.2,0,0.4,0.1c0.2,0.1,0.3,0.2,0.5,0.3c0.1,0,0.3,0.1,0.4,0c0.1-0.1,0-0.4-0.2-0.7c0-0.1-0.1-0.2-0.1-0.3
			c0,0,0.1-0.1,0.2-0.2c0,0.1,0.1,0.1,0.1,0.1c0.2,0.3,0.4,0.6,0.6,0.4c0.2-0.2,0-0.6-0.1-0.9c0.4,0.1,0.9,0.3,1,0.3
			c0.1,0,0.2,0,0.2-0.1c0-0.1,0.1-0.1-0.4-0.7c0-0.1,0-0.2,0.1-0.2l0.1,0.1c0.3,0.1,0.8,0.2,0.8,0.2l0,0l0.1-0.1c0,0,0-0.1,0-0.1
			l-0.3-0.5l0.8,0.1l0.1,0l0-0.1v-0.4l0.6-0.3l0.1-0.1l0.1-0.2v0c0.1,0,0.2-0.1,0.3-0.1l0,0.1c0,0.2,1.2,4.2,2.1,5.6
			c-0.9,0.8-1.4,2.1-1.7,2.9c-0.1,0.3-0.2,0.6-0.3,0.7c-0.2,0.1-1.1,0.2-1.8,0.2c-1,0.1-1.7,0.1-2.1,0.3c-0.5-0.1-0.9-0.1-1.5,0
			c-0.4,0-0.8,0.1-1.4,0.1c-0.8,0-1.3-0.1-1.8-0.3c-0.3-0.1-0.6-0.2-0.9-0.2c-0.1,0-0.3,0.1-0.3,0.3c0,0.1,0.1,0.2,0.1,0.2
			c-0.2,0.1-0.4,0.2-0.6,0.4l-0.1,0c-0.1,0-0.2,0.2-0.2,0.3c0.1,0.3,0,0.6-0.2,1c-0.5,0.6-1.5,1.1-2.5,1.2c-0.7,0.1-0.9-0.1-1-0.2
			c-0.1-0.1-0.1-0.3-0.1-0.3c0-0.1,0-0.3-0.1-0.3c-0.1,0-0.2,0-0.3,0.1c0,0-0.1,0.2-0.2,0.2c0,0-0.2-0.1-0.3-0.2
			c-0.1-0.2-0.2-0.4-0.2-0.5c0.1-0.3,0.6-0.5,1-0.6c0.4-0.2,0.9-0.4,1.1-0.7c0.6-0.8-1.2-4.2-2-5.6c-0.1-0.1-0.2-0.2-0.3-0.1
			c-0.1,0.1-0.2,0.2-0.1,0.3c0.9,1.6,1.6,3.1,1.9,4c-0.4,0-1.2,0-2.5-0.1c-1.4,0-2-0.4-2.9-1.4c-0.7-0.8-1.7-1.3-2-1.4
			c0-0.3,0-0.6,0-0.9c0-0.7,0.1-1.6,0.1-2.4l-0.1-1c-0.1-0.4-0.4-0.6-0.8-0.7c-0.1-0.1-0.1-0.1-0.3-0.1c0,0-0.1,0-0.1-0.1
			c-0.1,0-0.4-0.2-0.8-0.3l0-0.1c0.1-0.3,0.2-0.3,0.5-0.3c1.2-0.1,1.6-0.6,1.6-0.6c0,0,0-0.1,0-0.1c0.6,0.7,1.2,1.5,1.3,2.4
			c0.1,1,0.6,2.6,1,2.7c0.4,0.1-0.2-1.8-0.2-1.8s0.7,1.5,1,1.7c0.3,0.1-0.4-1.8-0.3-1.6c0.2,0.1,0.5,0.1,0.5,0.7
			c0,0.5,0.6,1.9,1,2.1c0.2,0.1,0.2-0.6,0.1-1.1c-0.1-0.4-0.1-0.7-0.1-0.7s0.1,0.3,0.1,0.7c0,0.2,0.1,0.3,0.2,0.5
			c0.3,0.4,0.7,1.1,1,1c0.4,0,0-0.5-0.1-1.2c-0.1-0.7,0.4-0.6-0.1-2.3c-0.4-1.7-1.7-3.4-2.3-4.6c-0.6-1.2-0.2-3.2-0.2-3.2
			s0.4,0.9,0.8,1.2c0.4,0.4,0.3,0.7,0.4,0.8c0.1,0.2,1.3,0.7,1,0.5c-0.3-0.1-0.3-0.9-0.3-1.7c0-0.7-1.2-1.4-1.2-1.4s0.5,0.1,1.5,0.2
			c1,0.1,2,1.2,1.5,0.5c-0.4-0.7-0.9-2.4-0.9-2.4s0.3,0.5,0.8,1c0.6,0.5,1.1,0.9,2.1,0.9c0.9-0.1-0.6-0.5-1-0.8
			c-0.4-0.3-0.3-1.6-0.3-1.6l0.7,1.1c0,0,0.6,0.7,1.2,0.7c0.7,0.1,0.1-0.5-0.1-0.8c-0.3-0.2-0.3-1.5-0.3-1.5s1.2,0.5,2.2,0.3
			c1-0.3-0.1-0.5-1-0.7c-1-0.1-0.8-1.9-0.8-1.9s0.4,0.2,0.7,0.4c0.2,0.2,0.3,0.4,0.7,0.8c0.3,0.4,0.6,0.3,1.9,0.4
			c1.2,0.1,0.7,0.4,1.2,0.4c0.4,0.1-0.1-0.7-0.1-0.7s0.1-0.1,0.2-0.2c0.1,0,0-0.1-0.1-0.4C37.9,62.8,37.2,62.3,37.4,62 M44.1,73.5
			c0.2-0.1,0.4-0.1,0.6-0.2v0L44.1,73.5L44.1,73.5L44.1,73.5z M43.2,74.7c-0.1,0-0.2,0-0.3-0.1c0.1,0,0.1,0,0.2-0.1L43.2,74.7z
			 M42.4,75.4c-0.1,0-0.2-0.1-0.3-0.1c0,0,0.1,0,0.1-0.1C42.3,75.3,42.3,75.4,42.4,75.4 M41.6,76.1c-0.1-0.1-0.2-0.2-0.2-0.3
			c0-0.1-0.1-0.1-0.1-0.2c0,0,0.1-0.1,0.1-0.1C41.5,75.7,41.6,76,41.6,76.1 M40.7,76.4c0.1,0.1,0.1,0.3,0.2,0.4l0,0
			c-0.1,0-0.2-0.1-0.2-0.1C40.7,76.6,40.7,76.5,40.7,76.4L40.7,76.4z M39.6,76.8L39.6,76.8L39.6,76.8L39.6,76.8z M36.9,77.6
			c-0.1-0.1-0.1-0.2-0.2-0.3H37l0,0C36.9,77.5,36.9,77.6,36.9,77.6 M36,77.3c-0.1,0.1-0.1,0.2-0.2,0.3c0-0.1,0-0.1,0-0.2
			c0-0.1,0-0.1-0.1-0.2C35.8,77.3,35.9,77.3,36,77.3 M34.9,75c0,0,0.1,0,0.1,0l-0.1,0.1L34.9,75z M34.9,76.5L34.9,76.5L34.9,76.5
			L34.9,76.5z M27.7,55.5c0.7,0.4,1.2,0.7,1.5,1.4c0.2,0.6-1-0.3-1.8-0.8c-0.7-0.4-1.8-2-1.8-2S27.1,55,27.7,55.5 M26.2,52.7
			c0,0,0.5-0.2,0.8,0.2c0.2,0.4,0.4,1,0.4,1L26.2,52.7z M26.3,66.1c-0.1-1.2,0-1.9,0-1.9l0.3-0.4c0,0,0.4,2.5,0.3,2.9
			C26.8,67,26,68.3,26,68.3S26.4,67.3,26.3,66.1 M26.1,61.4c-1-0.7-1.5-2.2-1.5-2.4c0,0,1.6,1.7,2.1,1.9c0.4,0.1,0.7,0.3,1,0.9
			c0,0.1,0.1,0.2,0.1,0.4l0,0.1c0.4,0.9,0.9,1.1,0.9,1.1l0.2,0.7c0,0-0.9-0.1-1.2-1c-0.1-0.2-0.1-0.3-0.2-0.5
			c-0.1-0.1-0.2-0.3-0.3-0.4C26.9,62,26.6,61.8,26.1,61.4 M25.5,65.6c-0.3-0.6-1.2-1.5-1.2-1.5s0.5-0.2,0.5-0.4
			C24.8,63.7,25.2,64.9,25.5,65.6c0.1,0.1,0.1,0.2,0.1,0.3C25.6,66,25.6,65.9,25.5,65.6 M26.8,57.7c-1-0.4-1.7-1-1.7-1
			s1.8,0.4,2.4,1c0.5,0.7,0.8,1.8,0.8,1.8S27.8,58.1,26.8,57.7 M28.2,60.5c0,0-0.3-0.1-0.9-0.5c-0.5-0.4-0.7-0.7-1-0.9
			s-0.9-0.7-0.9-0.7c0.1,0.1,1,0.1,1.3,0.5c0.4,0.4,0.5,0.7,0.9,1.1C28.2,60.3,28.2,60.5,28.2,60.5 M29.3,65c0,0-0.1,0.8,0,1.3
			c0.1,0.3,0.2,0.4,0.1,0.3c0-0.1-0.1-0.2-0.1-0.3c-0.3-0.5-0.8-1.4-0.8-1.4L29.3,65z M29,62.5c-0.2-0.2-0.2-0.5-0.3-0.7
			c0-0.3,0-0.5,0-0.6c0-0.1,0-0.1,0-0.1l0,0.1c0,0.1,0.1,0.2,0.3,0.4c0.1,0.1,0.1,0.2,0.2,0.3c0.3,0.4,0.6,0.9,1,1.1
			C30.4,63.2,29.5,63.1,29,62.5 M29.1,58.7c-0.5-0.5-0.6-1.1-0.6-1.1c0,0.1,1.1,0.4,1.6,1.5l0,0c0.1,0.2,0.2,0.4,0.3,0.5
			c0.3,0.6,0.4,0.7,0.4,0.7s-0.2-0.2-0.6-0.4c-0.1-0.1-0.3-0.2-0.4-0.3l-0.1,0C29.2,59.2,29.6,59.2,29.1,58.7 M28.6,55
			c0,0,0.8,0.1,1,0.5C29.9,55.9,28.6,55,28.6,55 M24.3,51.2c0,0,0.8,0,1,0.4c0.3,0.4,0.4,0.6,0.4,0.6L24.3,51.2z M24.4,63.2
			c0,0.1,0,0.2,0,0.2c-0.1,0.4-0.5,0-0.7-0.1c0,0-0.1-0.1-0.1-0.1c0-0.5-0.1-1.7-0.1-1.7S24.3,62.6,24.4,63.2 M23.9,64.8
			c0.2,0.1,0.5,1.6,0.2,2.4l-0.4,0.9c0,0,0.1-1.8-0.1-2.4c-0.3-0.7-0.4-1.5-0.4-1.5C23.2,64.3,23.7,64.7,23.9,64.8 M23.2,70.7
			L23.2,70.7L23.2,70.7L23.2,70.7L23.2,70.7z M23.8,72.5c-0.2,0.1-0.5,0.3-1.1,0.3c-0.7,0-0.8,0.3-1,0.6c0,0,0,0.1-0.1,0.1
			c-0.1,0.2-0.3,0.5-0.9,0.7c-0.1,0-0.1,0.1-0.2,0.1c-0.2,0-0.4,0.1-0.5,0.1c-0.4,0-0.6-0.1-0.8-0.3C19,73.9,19,73.6,19,73.6
			c0-0.1,0-0.1-0.1-0.2c0,0-0.1-0.1-0.1-0.1h0c-0.1,0-0.1,0-0.2,0.1l0,0.1c0,0-0.1,0.4-0.4,0.4c-0.1,0-0.2,0-0.3-0.1
			c-0.2-0.1-0.3-0.2-0.3-0.3l0-0.1c0-0.3,0.4-0.8,1.5-1.3c1.3-0.7,3.4-1,4-1.1L23.8,72.5z M30.2,63.8c0,0,0.7-0.4,1,0.3
			c0.4,0.7-0.1,1.6-0.1,1.6V65C31.1,64.3,30.2,63.8,30.2,63.8 M33.3,63.7c0,0-1,0.1-1.5-0.7c-0.5-0.7,0.2-1,0.2-1s0,1,0.7,1.3
			L33.3,63.7z M33.2,61.4c0,0,0.4-0.1,1,0.5c0.6,0.6,0.7,1,0.7,1L33.2,61.4z M36.5,62.3c0.4,0.4,1,0.9,1,0.9s-0.4,0.1-1-0.3
			c-0.4-0.4-0.9-1.1-1-1.3C35.6,61.8,36.2,61.9,36.5,62.3 M32.9,59.4c0.3,0.1,1.1,0.5,1.8,0.9l0,0c0.5,0.3,0.9,0.6,0.9,0.7
			c-0.4,0.1-1.5,0.1-1.8-0.1c-0.4-0.2-0.7-1-1.2-1.2L32.9,59.4z M31.5,57.6c0,0,0.7,1,1,1.3c0.2,0.3-1.3-1-1.3-1L31.5,57.6z
			 M32.2,61.6c-0.2,0.1-1.2,0-1.8-0.3c-0.3-0.2-0.5-0.4-0.7-0.7c-0.1-0.2-0.2-0.4-0.2-0.4c0,0,0.2,0.1,0.4,0.2
			c0.4,0.1,1,0.3,1.1,0.4C31.3,60.9,32.5,61.5,32.2,61.6 M15.3,55.9c0-4.1,3.5-7.5,7.8-7.5c4.3,0,7.8,3.3,7.8,7.5c0,0.1,0,0.2,0,0.3
			c-0.2-0.2-0.4-0.4-0.5-0.5c-0.6-0.7-0.3-0.7-0.8-1c-0.5-0.3-0.4-0.1-1.2-0.4c-0.7-0.3-0.3-0.5-0.4-1c-0.1-0.5-0.4-0.4-0.7-0.8
			C27,52,27.1,52.2,26.7,52c-0.4-0.3-0.4-0.1-0.7-0.4c-0.3-0.1-0.2-0.2-0.5-0.5c-0.3-0.3-0.7-0.3-1.3-0.1c-0.6,0.1-0.1,0.1-0.8-0.2
			c-0.7-0.2-0.7,0-1.1,0c-0.4,0-0.5,0.1-1.1,0.1c-0.7,0-0.3,0-0.7,0.2c-0.4,0.1-0.6,0.3-0.9,0.5c-0.3,0.2-0.7,0.1-0.7,0.2
			c-0.1,0.1-0.4,0.4-0.4,0.4s-0.7-0.3-0.9,0c-0.1,0.3-0.1,1-0.1,1.5c-0.1,0.6,0,0.5,0,0.9c-0.1,0.4-0.1,0.4-0.4,0.9
			c-0.3,0.6,0.3,1,0.2,1.3c-0.1,0.4,0.1,0.7,0.1,0.9c-0.1,0.2,0,0.6,0.1,1c0.1,0.4,0,0.2,0,0.7c0.1,0.5,0.3,0.2,0.8,0.7
			c0.4,0.4,0,0.3,0.2,0.7c0.3,0.4,0.2,0.3,0.5,0.7c0.3,0.4,0.1,0.4,0.3,0.7c0.1,0.4,0.7,0.6,0.9,0.7c0,0,0.5,0,1.3,0.4
			C18,62.5,15.3,59.5,15.3,55.9 M18.8,53.4l-0.4,0.1c0,0-0.1-0.4-0.3-0.4c-0.2,0-0.4-0.1-0.4-0.1s-0.1-0.8,0.2-0.7
			C18.3,52.5,18.8,53.4,18.8,53.4 M21.7,61.7c-0.4,0.4-0.5,1.1-1.5,0.2c-1-0.8-0.6-1-0.8-1.2c-0.1-0.1-0.6-0.7-0.6-1.1
			c0-0.3-0.1-0.9-0.1-1.2s-0.4-0.6-0.4-0.9c0-0.2,0.3-0.5,0.4-0.7l0.2,0.2c0.3,0.1,0.3,0.2,0.3,0.2s-0.2,0.5,0,0.6
			c0.1,0.1,0.2-0.1,0.4-0.3c0.2-0.2,0-0.4,0.2-0.5c0.1-0.2,0-0.6,0-0.9l-1.2-0.3v0c0-0.1-0.1-0.1-0.1-0.1s0.4-0.1,0.1-0.6
			c-0.3-0.4-0.2-0.4-0.1-0.6c0-0.2-0.1-0.2,0.1-0.4c0.4-0.2,0.3-0.7,0.6-0.9c0.4-0.3,0.7-0.1,0.7,0.4c0.1-0.3,0.2-0.7,0.5-0.9
			c0.1,0.4,0,1,0.1,1.5c0.3-0.7,0.6-1.5,1.2-2.1c0,0.4-0.1,0.8-0.2,1.2c0.1-0.2,0.2-0.4,0.4-0.5c0,0.3,0,0.7,0.1,1
			c0.4-0.2,0.7-0.8,1.3-0.9c0.3,0.6-0.1,1.1-0.6,1.5c0.3-0.2,1,0.2,1,0.4c0.1,0.2-0.1,0.6-0.1,0.9c-0.1,0.6,0.1,1.6,0.3,2.1
			c0.1,0.3-1-0.6-1.1-0.3c0,0.3,0.4,0.8,0.4,1.1c0,0.3,0.3,0.7,0.1,0.8s-0.6-1-0.7-0.5c-0.1,0.5,0.5,1,0.5,1s-0.4,0-0.2,0.4
			c0.2,0.4,0.4,0.8,0.4,0.8s-0.7-0.9-0.8-0.7c-0.1,0.3,0,0.6-0.1,0.7C22.1,61.4,22.1,61.3,21.7,61.7 M8.8,58.3
			c-0.2-1.4,0.4-2.4,0.9-2.7c0.5-0.3,1-0.3,1.4-0.1c0.8,0.4,1.2,1.6,1.1,3.3c-0.5,8,4.2,13.5,4.3,13.6c0.1,0.1,0.2,0.1,0.4,0
			c0.1-0.1,0.1-0.2,0-0.4c0,0-3.2-3.8-4-9.6c0.2,0.6,0.4,1,0.4,1.2c0.1,0.4,0.1,1.2,0.4,1.5c0.8,0.8,0.4-0.7,0.6-1.1
			c0.6-1.5,0.8,1.3,1,1.8c0.7-1.9,1.3,0,1.2,1.1c0-0.3,0.4-1.6,0.7-1.6c0.2-0.1,0.4,1.4,0.4,1.5c0.4-0.4,0.3-1.3,0.7-1.8
			c0.4,0.5,0.3,1.5,0.7,2.1c0.5-0.3,0.2-2,0.2-2.5c0.4,0.5,0.5,1.2,0.7,1.9c0.1,0.2,0.1,0.7,0.4,0.7c0.4,0.1,0.3-0.5,0.3-0.7
			c-0.1-0.5-0.4-2.3,0.5-1.2c0.4,0.5,0.5,1.2,0.7,1.8c0,0.2,0,0.3-0.1,0.5c-0.1,1.3,0.4,1.2,0.5,2.2c0.1,0.5,0.3,0.7,0.6,0.8
			c-0.1,0-0.3,0-0.6,0.1c-0.7-0.8-1.2-1.8-1.3-2v0.1c0-0.2-0.1-0.3-0.3-0.3c-0.2,0-0.3,0.1-0.3,0.3c0,0.1,0,0.2,1.5,1.9
			c-0.4,0.1-0.8,0.1-1.3,0.3l0,0c-0.7-0.5-1.4-2.3-1.4-2.3c-0.1-0.1-0.9-0.1-0.8,0.1c-0.5-0.5,0.8,1.4,1.9,2.4
			c-0.6,0.2-1.2,0.4-1.7,0.6c-1.1,0.6-1.7,1.2-1.7,1.8l0,0.1l0,0h-0.1c0,0-0.1,0-0.2,0.1v0C16.6,73.6,9.8,66,8.8,58.3 M12.6,74.3
			c0.3,0,0.7-0.1,0.9-0.1c1.5-0.2,2,0.1,2.1,0.2c0,0.1,0,0.1,0.1,0.1c-0.1,1.8,0.2,7.2,0.2,7.2l0.2-7.2l-0.1,0.1
			c-0.3,0,0.3-0.3,1.3-0.4c0.1,0.1,0.1,0.1,0.2,0.2c0.5,0.2,0.9,0.1,1.1-0.1c0.2,0.3,0.6,0.6,1.3,0.6c0.2,0,0.4,0,0.6-0.1
			c0.4-0.1,0.7-0.2,0.9-0.4c0.3,0.1,0.7,0.2,1,0.3c0,0.3,0.1,7.4,0.1,9.6C22,84.3,20.6,84,19.5,84h-0.2c-1.2-0.1-2.6,0.4-3.4,0.7
			v-1.5c0-0.1,0-1-0.1-1c-0.1,0-0.2,0.9-0.2,1v1.6c-0.3-0.2-1.8-0.5-3.1-0.5c-0.2-0.1-0.4-0.1-0.6-0.1c-1.2,0-1.3,0.4-2.1,0.8
			c-0.1,0.1-0.3,0.1-0.3,0c0-1,0.1-3,0.4-5.5v-1.2c0-1.4-0.1-3.1-0.1-3.8C10.3,74.5,11.3,74.5,12.6,74.3"/>
	</g>
	<g>
		<path class="st0" d="M41.4,39.1c0.6,0.2,1.4,0.2,2.2,0.2c1,0,2-0.1,2.1-0.1c0.2,0,0.4-0.3,0.4-0.5c0-0.2-0.3-0.4-0.5-0.4
			c0,0-1,0.1-2,0.1c-0.7,0-1.4-0.1-1.8-0.2c-0.3-0.1-0.5,0-0.6,0.2C41,38.8,41.2,39,41.4,39.1"/>
	</g>
	<g>
		<path class="st0" d="M28.2,36c0.6,0.2,1.4,0.2,2.1,0.2c1.1-0.1,2-0.1,2.1-0.1c0.3-0.1,0.5-0.3,0.4-0.6c0-0.2-0.3-0.4-0.5-0.3
			c0,0-1,0.1-2.1,0.1c-0.7,0-1.3-0.1-1.8-0.2c-0.2-0.1-0.4,0.1-0.5,0.3C27.8,35.6,27.9,35.9,28.2,36"/>
	</g>
	<g>
		<path class="st0" d="M6.7,36.8c1.1,0,1.1,0.1,2.1,0.1c1.1,0,1.1-0.1,2.3-0.1c1,0,1-0.1,2-0.1s1,0.1,2.1,0.1h2
			c0.2,0,0.6-0.2,0.6-0.4s-0.4-0.4-0.6-0.4C16,36.1,16,36,15,36c-1.1,0-1.1-0.1-2.2-0.1h-2.1H8.7c-1-0.1-1,0-2,0
			c-0.2,0-0.4,0.3-0.4,0.5C6.3,36.7,6.5,36.8,6.7,36.8"/>
	</g>
	<g>
		<path class="st0" d="M14.2,39.2c-1-0.1-1-0.2-2-0.2c-0.2,0-0.4,0.3-0.4,0.6c0,0.2,0.1,0.4,0.4,0.4c1.1,0,1.1-0.1,2.2-0.1
			c1.1,0,1.1,0.1,2.2,0.1h2.2c1,0,1-0.1,2.1-0.1s1.1,0.1,2.1,0.1h2c0.3,0,0.5-0.3,0.5-0.5c0-0.3-0.2-0.6-0.5-0.6
			c-1.1,0-1.1,0.1-2.1,0.1c-1.2,0-1.2,0.1-2.3,0.1c-1.1,0-1.1,0.1-2.1,0.1h-2.2L14.2,39.2L14.2,39.2z"/>
	</g>
	<g>
		<path class="st0" d="M21.5,42c-0.2,0-0.5,0.1-0.5,0.4c0,0.2,0.3,0.4,0.5,0.4c1.1,0,1.1-0.1,2.2-0.1h2.2h2.2h2.1
			c1.1,0,1.1,0.1,2.2,0.1c0.9,0,0.9-0.1,2-0.1c0.2,0,0.4-0.1,0.4-0.3c0-0.3-0.1-0.4-0.4-0.4c-1.1,0-1.1-0.1-2.2-0.1
			c-1.1,0-1.1,0.1-2.2,0.1C29,42,29,42,27.8,42h-2.1c-1.1,0-1.1-0.1-2.2-0.1C22.6,41.9,22.6,42,21.5,42"/>
	</g>
	<g>
		<path class="st0" d="M47.7,43.1c1.5,0,1.5-0.1,3.1-0.1c0.2,0,0.4-0.1,0.4-0.4c0-0.3-0.2-0.4-0.4-0.4c-1.5,0-1.5-0.1-3.1-0.1
			c-0.3,0-0.4,0.2-0.4,0.5C47.2,42.9,47.4,43.1,47.7,43.1"/>
	</g>
	<g>
		<path class="st0" d="M11,42.4c-0.3,0-0.4,0.2-0.4,0.4c0,0.2,0.1,0.5,0.4,0.5c1.5,0,1.5-0.1,3-0.1c0.3,0,0.5-0.2,0.5-0.4
			s-0.2-0.4-0.5-0.4H11z"/>
	</g>
	<g>
		<path class="st0" d="M48.8,39.7c1.1,0,1.1-0.1,2.3-0.1c1.1,0,1.1,0.1,2.3,0.1c1.1,0,1.1-0.1,2.1-0.1c1.2,0,1.2-0.1,2.4-0.1
			c1.1,0,1.1,0.3,2.3,0.3h2.1c1,0,1-0.3,2-0.3c0.2,0,0.5-0.1,0.5-0.3c0-0.3-0.3-0.5-0.5-0.5c-1.1,0-1.1,0.1-2.2,0.1h-2.3
			c-1.1,0-1.1-0.1-2.2-0.1h-2.3c-1.2,0-1.2,0.1-2.3,0.1h-2.2c-1-0.1-1-0.2-2-0.2c-0.2,0-0.5,0.3-0.5,0.6
			C48.2,39.4,48.5,39.7,48.8,39.7"/>
	</g>
	<g>
		<path class="st0" d="M61.1,44.3c-1.2,0-1.2-0.1-2.5-0.1c-1.2,0-1.2,0.1-2.5,0.1c-1.2,0-1.2,0.1-2.5,0.1c-1.2,0-1.2-0.1-2.3-0.1
			c-0.3,0-0.6,0.3-0.6,0.5c0,0.3,0.3,0.4,0.6,0.4c1.2,0,1.2,0.1,2.5,0.1c1.3,0,1.3-0.1,2.6-0.1s1.2,0.2,2.5,0.2
			c1.2,0,1.2-0.1,2.6-0.1c1.2,0,1.2,0.1,2.5,0.1c1.2,0,1.2,0.1,2.4,0.1c0.2,0,0.4-0.3,0.4-0.6c0-0.2-0.1-0.6-0.4-0.6
			c-1.3,0-1.3,0.3-2.6,0.3C62.4,44.5,62.4,44.3,61.1,44.3"/>
	</g>
	<g>
		<path class="st0" d="M2.6,88.5c0,5.5,3.1,8.2,9.1,8.2c16.4,0,22.2,0.1,25.4,3l0.3,0.3l0.3-0.3c3-2.8,9.6-2.9,25.4-2.9
			c0,0,0.3,0,0.8,0c1.1,0,3.1-0.2,4.9-1.3c2.2-1.4,3.3-3.7,3.3-7V30L2.6,29.9V88.5z M71.3,31v57.5c0,1.4-0.2,2.6-0.7,3.6
			c-0.9-0.3-0.9-0.5-2-0.5c-0.9-0.1-1,0.1-1.9,0.3c-0.1,0-0.2,0.1-0.2,0.4c0.1,0.1,0.1,0.3,0.4,0.2c1-0.2,0.9-0.4,2-0.3
			c0.8,0.1,0.8,0.2,1.5,0.5c-0.5,0.8-1.1,1.5-1.9,2c-1.6,1-3.4,1.1-4.3,1.1c-0.4,0-0.7,0-0.8,0c-15.6,0-22.4,0.1-25.8,2.9
			c-3.5-2.8-9.6-2.9-25.7-2.9c-3,0-5.1-0.7-6.4-2.1c0.7-0.1,0.8-0.1,1.5-0.3c0.8-0.1,0.7-0.1,1.5-0.1h1.4c0.7,0,0.7,0.1,1.5,0.1
			c0.1,0,0.4-0.1,0.4-0.3c0-0.1-0.2-0.4-0.4-0.4c-0.8,0-0.8,0.1-1.5,0H8.1c-0.7,0-0.7,0-1.5,0.1c-0.7,0.1-0.7,0.2-1.4,0.3
			c-0.1,0-0.2,0.1-0.2,0.1c-0.9-1.2-1.3-2.7-1.3-4.7v-4.8c0.1,0,0.2,0.1,0.3,0c1-0.3,0.9-0.4,1.9-0.4c1,0,0.9,0.1,1.8,0.3
			c0.2,0.1,0.3,0,0.4-0.2c0-0.1-0.1-0.3-0.2-0.4c-1-0.1-1.1-0.3-2.1-0.3c-1,0.1-1,0.2-1.9,0.4c0,0,0,0-0.1,0.1V30.9L71.3,31z"/>
	</g>
</g>
<g>
	<g>
		<path class="st0" d="M265.4,13.4v9.1c0,1-0.2,1.9-0.7,2.7c-0.4,0.8-1.1,1.4-1.9,1.8c-0.8,0.4-1.8,0.6-3,0.6
			c-1.7,0-3.1-0.5-4.1-1.4c-1-0.9-1.4-2.2-1.4-3.8v-9h2.3v8.9c0,1.2,0.3,2,0.8,2.6c0.5,0.6,1.4,0.8,2.5,0.8c2.2,0,3.2-1.1,3.2-3.4
			v-8.9H265.4z"/>
	</g>
	<g>
		<path class="st0" d="M271.3,21.8v5.6H269v-14h4c1.8,0,3.2,0.3,4,1c0.9,0.7,1.3,1.7,1.3,3.1c0,1.7-0.9,3-2.7,3.7l4,6.2h-2.6
			l-3.4-5.6H271.3z M271.3,19.9h1.6c1.1,0,1.8-0.2,2.3-0.6c0.5-0.4,0.7-1,0.7-1.8c0-0.8-0.3-1.4-0.8-1.7c-0.5-0.3-1.3-0.5-2.3-0.5
			h-1.5V19.9z"/>
	</g>
	<g>
		<path class="st0" d="M290.9,17.6c0,1.5-0.5,2.6-1.4,3.4c-1,0.8-2.3,1.2-4.1,1.2h-1.5v5.3h-2.3v-14h4c1.8,0,3.1,0.4,3.9,1.1
			C290.4,15.2,290.9,16.2,290.9,17.6z M283.9,20.2h1.2c1.2,0,2-0.2,2.6-0.6c0.5-0.4,0.8-1,0.8-1.9c0-0.8-0.2-1.4-0.7-1.8
			c-0.5-0.4-1.3-0.6-2.3-0.6h-1.6V20.2z"/>
	</g>
	<g>
		<path class="st0" d="M265.4,42.9V52c0,1-0.2,1.9-0.7,2.7c-0.4,0.8-1.1,1.4-1.9,1.8c-0.8,0.4-1.8,0.6-3,0.6c-1.7,0-3.1-0.5-4.1-1.4
			c-1-0.9-1.4-2.2-1.4-3.8v-9h2.3v8.9c0,1.2,0.3,2,0.8,2.6c0.5,0.6,1.4,0.8,2.5,0.8c2.2,0,3.2-1.1,3.2-3.4v-8.9H265.4z"/>
	</g>
	<g>
		<path class="st0" d="M271.3,56.9H269v-14h7.9v1.9h-5.6v4.4h5.3v1.9h-5.3V56.9z"/>
	</g>
	<g>
		<path class="st0" d="M281.8,56.9h-2.3v-14h7.9v1.9h-5.6v4.4h5.3v1.9h-5.3V56.9z"/>
	</g>
	<g>
		<path class="st0" d="M289.9,56.9v-14h2.3v14H289.9z"/>
	</g>
	<g>
		<path class="st0" d="M301.9,44.7c-1.3,0-2.4,0.5-3.1,1.4c-0.8,0.9-1.1,2.2-1.1,3.9c0,1.7,0.4,3,1.1,3.9c0.7,0.9,1.8,1.3,3.2,1.3
			c0.6,0,1.2-0.1,1.7-0.2c0.6-0.1,1.1-0.3,1.7-0.5v2c-1.1,0.4-2.3,0.6-3.7,0.6c-2.1,0-3.6-0.6-4.7-1.9c-1.1-1.2-1.7-3-1.7-5.3
			c0-1.5,0.3-2.7,0.8-3.8c0.5-1.1,1.3-1.9,2.3-2.5c1-0.6,2.2-0.9,3.6-0.9c1.4,0,2.8,0.3,4,0.9l-0.8,1.9c-0.5-0.2-1-0.4-1.5-0.6
			C303.1,44.7,302.5,44.7,301.9,44.7z"/>
	</g>
	<g>
		<path class="st0" d="M308.4,56.9v-14h2.3v14H308.4z"/>
	</g>
	<g>
		<path class="st0" d="M326.9,49.9c0,2.3-0.6,4.1-1.7,5.3c-1.1,1.3-2.8,1.9-4.9,1.9c-2.1,0-3.7-0.6-4.9-1.9c-1.1-1.3-1.7-3-1.7-5.4
			c0-2.3,0.6-4.1,1.7-5.3c1.1-1.2,2.8-1.9,4.9-1.9c2.1,0,3.7,0.6,4.8,1.9C326.3,45.8,326.9,47.6,326.9,49.9z M316.2,49.9
			c0,1.7,0.3,3,1,3.9c0.7,0.9,1.7,1.3,3.1,1.3c1.4,0,2.4-0.4,3.1-1.3c0.7-0.9,1-2.2,1-3.9c0-1.7-0.3-3-1-3.9
			c-0.7-0.9-1.7-1.3-3.1-1.3c-1.4,0-2.4,0.4-3.1,1.3C316.5,46.9,316.2,48.2,316.2,49.9z"/>
	</g>
	<g>
		<path class="st0" d="M337.3,51.3v5.6H335v-14h4c1.8,0,3.2,0.3,4,1c0.9,0.7,1.3,1.7,1.3,3.1c0,1.7-0.9,3-2.7,3.7l4,6.2h-2.6
			l-3.4-5.6H337.3z M337.3,49.4h1.6c1.1,0,1.8-0.2,2.3-0.6c0.5-0.4,0.7-1,0.7-1.8c0-0.8-0.3-1.4-0.8-1.7c-0.5-0.3-1.3-0.5-2.3-0.5
			h-1.5V49.4z"/>
	</g>
	<g>
		<path class="st0" d="M355.5,56.9h-7.9v-14h7.9v1.9h-5.6v3.8h5.3v1.9h-5.3V55h5.6V56.9z"/>
	</g>
	<g>
		<path class="st0" d="M358.5,56.9v-14h2.3V55h5.9v2H358.5z"/>
	</g>
	<g>
		<path class="st0" d="M377.9,56.9l-1.4-3.9h-5.4l-1.4,3.9h-2.4l5.3-14.1h2.5l5.3,14.1H377.9z M375.9,51l-1.3-3.8
			c-0.1-0.3-0.2-0.7-0.4-1.2c-0.2-0.5-0.3-1-0.4-1.2c-0.2,0.8-0.4,1.6-0.8,2.6l-1.3,3.7H375.9z"/>
	</g>
	<g>
		<path class="st0" d="M391,56.9h-10v-1.6l7.1-10.5h-6.9v-2h9.7v1.6L383.7,55h7.3V56.9z"/>
	</g>
	<g>
		<path class="st0" d="M393.5,56.9v-14h2.3v14H393.5z"/>
	</g>
	<g>
		<path class="st0" d="M412,49.9c0,2.3-0.6,4.1-1.7,5.3c-1.1,1.3-2.8,1.9-4.9,1.9c-2.1,0-3.7-0.6-4.9-1.9c-1.1-1.3-1.7-3-1.7-5.4
			c0-2.3,0.6-4.1,1.7-5.3c1.1-1.2,2.8-1.9,4.9-1.9c2.1,0,3.7,0.6,4.8,1.9C411.4,45.8,412,47.6,412,49.9z M401.2,49.9
			c0,1.7,0.3,3,1,3.9c0.7,0.9,1.7,1.3,3.1,1.3c1.4,0,2.4-0.4,3.1-1.3c0.7-0.9,1-2.2,1-3.9c0-1.7-0.3-3-1-3.9
			c-0.7-0.9-1.7-1.3-3.1-1.3c-1.4,0-2.4,0.4-3.1,1.3C401.6,46.9,401.2,48.2,401.2,49.9z"/>
	</g>
	<g>
		<path class="st0" d="M426.7,56.9h-2.8l-6.9-11.2h-0.1l0,0.6c0.1,1.2,0.1,2.3,0.1,3.3v7.3H415v-14h2.8l6.9,11.1h0.1
			c0-0.1,0-0.7-0.1-1.6c0-0.9-0.1-1.6-0.1-2.2v-7.4h2.1V56.9z"/>
	</g>
	<g>
		<path class="st0" d="M430.4,56.9v-14h2.3v14H430.4z"/>
	</g>
	<g>
		<path class="st0" d="M260.4,74.1c-1.3,0-2.4,0.5-3.1,1.4c-0.8,0.9-1.1,2.2-1.1,3.9c0,1.7,0.4,3,1.1,3.9c0.7,0.9,1.8,1.3,3.2,1.3
			c0.6,0,1.2-0.1,1.7-0.2c0.6-0.1,1.1-0.3,1.7-0.5v2c-1.1,0.4-2.3,0.6-3.7,0.6c-2.1,0-3.6-0.6-4.7-1.9c-1.1-1.2-1.7-3-1.7-5.3
			c0-1.5,0.3-2.7,0.8-3.8c0.5-1.1,1.3-1.9,2.3-2.5c1-0.6,2.2-0.9,3.6-0.9c1.4,0,2.8,0.3,4,0.9l-0.8,1.9c-0.5-0.2-1-0.4-1.5-0.6
			C261.5,74.2,261,74.1,260.4,74.1z"/>
	</g>
	<g>
		<path class="st0" d="M279.3,79.4c0,2.3-0.6,4.1-1.7,5.3c-1.1,1.3-2.8,1.9-4.9,1.9c-2.1,0-3.7-0.6-4.9-1.9c-1.1-1.3-1.7-3-1.7-5.4
			c0-2.3,0.6-4.1,1.7-5.3c1.1-1.2,2.8-1.9,4.9-1.9c2.1,0,3.7,0.6,4.8,1.9C278.8,75.3,279.3,77.1,279.3,79.4z M268.6,79.4
			c0,1.7,0.3,3,1,3.9c0.7,0.9,1.7,1.3,3.1,1.3c1.4,0,2.4-0.4,3.1-1.3c0.7-0.9,1-2.2,1-3.9c0-1.7-0.3-3-1-3.9
			c-0.7-0.9-1.7-1.3-3.1-1.3c-1.4,0-2.4,0.4-3.1,1.3C269,76.3,268.6,77.7,268.6,79.4z"/>
	</g>
	<g>
		<path class="st0" d="M294.1,86.4h-2.8l-6.9-11.2h-0.1l0,0.6c0.1,1.2,0.1,2.3,0.1,3.3v7.3h-2.1v-14h2.8l6.9,11.1h0.1
			c0-0.1,0-0.7-0.1-1.6c0-0.9-0.1-1.6-0.1-2.2v-7.4h2.1V86.4z"/>
	</g>
	<g>
		<path class="st0" d="M302.9,86.4v-14h2.3v14H302.9z"/>
	</g>
	<g>
		<path class="st0" d="M308.9,86.4v-14h2.3v12.1h5.9v2H308.9z"/>
	</g>
	<g>
		<path class="st0" d="M333.9,76.6c0,1.5-0.5,2.6-1.4,3.4c-1,0.8-2.3,1.2-4.1,1.2h-1.5v5.3h-2.3v-14h4c1.8,0,3.1,0.4,3.9,1.1
			C333.5,74.2,333.9,75.2,333.9,76.6z M326.9,79.2h1.2c1.2,0,2-0.2,2.6-0.6c0.5-0.4,0.8-1,0.8-1.9c0-0.8-0.2-1.4-0.7-1.8
			c-0.5-0.4-1.3-0.6-2.3-0.6h-1.6V79.2z"/>
	</g>
	<g>
		<path class="st0" d="M347.7,72.4v9.1c0,1-0.2,1.9-0.7,2.7c-0.4,0.8-1.1,1.4-1.9,1.8c-0.8,0.4-1.8,0.6-3,0.6
			c-1.7,0-3.1-0.5-4.1-1.4c-1-0.9-1.4-2.2-1.4-3.8v-9h2.3v8.9c0,1.2,0.3,2,0.8,2.6c0.5,0.6,1.4,0.8,2.5,0.8c2.2,0,3.2-1.1,3.2-3.4
			v-8.9H347.7z"/>
	</g>
	<g>
		<path class="st0" d="M351.3,72.4h4.2c1.9,0,3.3,0.3,4.2,0.8c0.9,0.6,1.3,1.5,1.3,2.7c0,0.8-0.2,1.5-0.6,2c-0.4,0.5-1,0.9-1.8,1
			v0.1c1,0.2,1.7,0.6,2.2,1.1c0.5,0.5,0.7,1.3,0.7,2.2c0,1.3-0.4,2.2-1.3,3c-0.9,0.7-2.1,1.1-3.7,1.1h-5.1V72.4z M353.6,78.2h2.2
			c1,0,1.7-0.2,2.1-0.5c0.4-0.3,0.7-0.8,0.7-1.6c0-0.7-0.2-1.1-0.7-1.4c-0.5-0.3-1.2-0.4-2.3-0.4h-2V78.2z M353.6,80v4.4h2.4
			c1,0,1.7-0.2,2.2-0.6s0.7-0.9,0.7-1.7c0-0.7-0.2-1.3-0.7-1.6c-0.5-0.4-1.3-0.5-2.3-0.5H353.6z"/>
	</g>
	<g>
		<path class="st0" d="M364.3,72.4h4.2c1.9,0,3.3,0.3,4.2,0.8c0.9,0.6,1.3,1.5,1.3,2.7c0,0.8-0.2,1.5-0.6,2c-0.4,0.5-1,0.9-1.8,1
			v0.1c1,0.2,1.7,0.6,2.2,1.1c0.5,0.5,0.7,1.3,0.7,2.2c0,1.3-0.4,2.2-1.3,3c-0.9,0.7-2.1,1.1-3.7,1.1h-5.1V72.4z M366.6,78.2h2.2
			c1,0,1.7-0.2,2.1-0.5c0.4-0.3,0.7-0.8,0.7-1.6c0-0.7-0.2-1.1-0.7-1.4c-0.5-0.3-1.2-0.4-2.3-0.4h-2V78.2z M366.6,80v4.4h2.4
			c1,0,1.7-0.2,2.2-0.6s0.7-0.9,0.7-1.7c0-0.7-0.2-1.3-0.7-1.6c-0.5-0.4-1.3-0.5-2.3-0.5H366.6z"/>
	</g>
	<g>
		<path class="st0" d="M377.3,86.4v-14h2.3v12.1h5.9v2H377.3z"/>
	</g>
	<g>
		<path class="st0" d="M387.9,86.4v-14h2.3v14H387.9z"/>
	</g>
	<g>
		<path class="st0" d="M399.9,74.1c-1.3,0-2.4,0.5-3.1,1.4c-0.8,0.9-1.1,2.2-1.1,3.9c0,1.7,0.4,3,1.1,3.9c0.7,0.9,1.8,1.3,3.2,1.3
			c0.6,0,1.2-0.1,1.7-0.2c0.6-0.1,1.1-0.3,1.7-0.5v2c-1.1,0.4-2.3,0.6-3.7,0.6c-2.1,0-3.6-0.6-4.7-1.9c-1.1-1.2-1.7-3-1.7-5.3
			c0-1.5,0.3-2.7,0.8-3.8c0.5-1.1,1.3-1.9,2.3-2.5s2.2-0.9,3.6-0.9c1.4,0,2.8,0.3,4,0.9l-0.8,1.9c-0.5-0.2-1-0.4-1.5-0.6
			C401,74.2,400.5,74.1,399.9,74.1z"/>
	</g>
	<g>
		<path class="st0" d="M418.9,79.4c0,2.3-0.6,4.1-1.7,5.3c-1.1,1.3-2.8,1.9-4.9,1.9c-2.1,0-3.7-0.6-4.9-1.9c-1.1-1.3-1.7-3-1.7-5.4
			c0-2.3,0.6-4.1,1.7-5.3c1.1-1.2,2.8-1.9,4.9-1.9c2.1,0,3.7,0.6,4.8,1.9C418.3,75.3,418.9,77.1,418.9,79.4z M408.1,79.4
			c0,1.7,0.3,3,1,3.9c0.7,0.9,1.7,1.3,3.1,1.3c1.4,0,2.4-0.4,3.1-1.3c0.7-0.9,1-2.2,1-3.9c0-1.7-0.3-3-1-3.9
			c-0.7-0.9-1.7-1.3-3.1-1.3c-1.4,0-2.4,0.4-3.1,1.3C408.5,76.3,408.1,77.7,408.1,79.4z"/>
	</g>
</g>
<g>
	<rect x="233" y="0" class="st0" width="1.5" height="100"/>
</g>
</svg>
